<svg width="800" height="800" viewBox="0 0 800 800" fill="none" xmlns="http://www.w3.org/2000/svg">
<g clip-path="url(#clip0_2_13)">
<path d="M252.177 191.307C266.585 191.307 278.265 179.627 278.265 165.22C278.265 150.812 266.585 139.132 252.177 139.132C237.77 139.132 226.09 150.812 226.09 165.22C226.09 179.627 237.77 191.307 252.177 191.307Z" fill="black"/>
<path d="M556.526 191.307C570.934 191.307 582.613 179.627 582.613 165.22C582.613 150.812 570.934 139.132 556.526 139.132C542.118 139.132 530.438 150.812 530.438 165.22C530.438 179.627 542.118 191.307 556.526 191.307Z" fill="black"/>
<path d="M400.003 86.9543C414.411 86.9543 426.091 75.2746 426.091 60.8669C426.091 46.4593 414.411 34.7795 400.003 34.7795C385.596 34.7795 373.916 46.4593 373.916 60.8669C373.916 75.2746 385.596 86.9543 400.003 86.9543Z" fill="#F5C754"/>
<path d="M531.5 378.5C539.1 470.1 484 545.5 463.5 579.5C639.5 565.9 677.833 414.5 675 340.5C592.6 343.7 545 367.167 531.5 378.5Z" fill="#F5C754"/>
<path d="M117 338.5C187 334.5 248.167 362.167 270 376.5C258.4 451.3 310.833 544 338.5 581C162.1 570.2 117.333 414.833 117 338.5Z" fill="#F5C754" stroke="black"/>
<path d="M791.733 589.641C789.384 587.446 742.005 543.718 673.363 519.753C734.321 431.884 728.724 317.349 728.414 311.888C727.664 298.611 717.049 288.024 703.772 287.308C699.289 287.072 604.43 282.566 520.095 324.641C490.748 236.93 420.901 174.927 417.173 171.667C407.341 163.067 392.658 163.067 382.825 171.667C379.097 174.927 309.25 236.932 279.904 324.641C195.565 282.565 100.707 287.063 96.2245 287.308C82.948 288.022 72.3324 298.611 71.5824 311.888C71.2746 317.349 65.6762 431.883 126.634 519.753C57.9919 543.72 10.6124 587.448 8.2655 589.641C-2.76571 599.959 -2.74852 617.455 8.2655 627.752C11.9905 631.234 100.781 713.046 213.041 713.046C238.301 713.046 262.363 708.896 284.544 702.436C315.203 737.3 377.647 759.258 391.869 763.921C397.15 765.653 402.847 765.653 408.13 763.921C422.35 759.256 484.795 737.302 515.454 702.436C537.635 708.896 561.699 713.046 586.957 713.046C699.216 713.046 788.008 631.235 791.733 627.752C802.764 617.438 802.745 599.94 791.733 589.641ZM400.039 228.062C428.137 258.194 480.748 324.682 480.748 399.998C480.748 475.001 428.042 541.718 399.964 571.935C371.866 541.803 319.255 475.315 319.255 399.998C319.253 324.997 371.959 258.279 400.039 228.062ZM213.043 660.871C152.424 660.871 98.0839 629.793 68.1778 608.69C89.9105 593.343 124.551 572.781 165.093 562.679C213.641 604.579 275.707 622.329 324.052 629.715C294.103 645.919 255.085 660.871 213.043 660.871ZM188.916 513.526C137.148 460.768 126.129 380.105 124.007 339.696C157.207 341.291 217.527 348.45 268.25 377.58C260.683 450.925 291.905 520.806 337.303 578.893C232.64 564.479 194.646 517.909 188.916 513.526ZM400 711.527C377.869 703.486 354.549 692.088 338.61 681.061C365.023 667.858 386.195 653.194 400 642.576C413.803 653.194 434.976 667.86 461.39 681.061C445.447 692.09 422.125 703.489 400 711.527ZM531.748 377.578C582.509 348.427 642.88 341.278 676.052 339.689C674.011 380.03 663.108 460.528 611.087 513.521C605.368 517.896 567.62 564.228 462.787 578.776C508.243 520.573 539.296 450.759 531.748 377.578ZM586.959 660.871C544.912 660.871 505.892 645.918 475.945 629.715C524.293 622.329 586.36 604.579 634.908 562.679C675.457 572.782 710.099 593.349 731.822 608.688C701.903 629.798 647.569 660.871 586.959 660.871Z" fill="black"/>
</g>
<defs>
<clipPath id="clip0_2_13">
<rect width="800" height="800" fill="white"/>
</clipPath>
</defs>
</svg>
