<svg width="800" height="800" viewBox="0 0 800 800" fill="none" xmlns="http://www.w3.org/2000/svg">
<path d="M154.824 659.313C157.095 662.272 156.518 662.124 152 658.5C152.953 658.78 153.895 659.052 154.824 659.313C135.482 634.108 -90.5296 383.452 152 136C423 -140.5 927.5 194 707.5 592.5C675.5 638.667 583.7 734 472.5 746C460.333 737.167 443.3 716.2 472.5 703C573.5 673.5 798 401.8 552 177C463.333 124.5 259.2 76.8 152 306C132.167 352.333 113.3 470.8 196.5 574C222.746 613.946 250.659 686.293 154.824 659.313Z" fill="#F5C754"/>
<path d="M146.654 653.87C99.8252 607.039 66.8929 548.145 51.5135 483.729C36.1341 419.312 38.9095 351.893 59.5315 288.959C80.1535 226.024 117.815 170.037 168.334 127.213C218.853 84.3898 280.253 56.4063 345.715 46.37M349.557 45.8033C439.162 33.0691 530.267 54.7176 604.566 106.399C678.864 158.081 730.852 235.966 750.082 324.405C769.312 412.844 754.359 505.284 708.229 583.152C662.099 661.019 588.21 718.543 501.407 744.167C467.129 754.127 461.447 738.848 459.462 727.495C456.15 708.577 470.817 706.368 489.65 696.952C512.984 686.631 534.518 672.648 553.438 655.53C581.228 628.005 604.929 596.638 623.815 562.387C638.754 536.747 650.041 509.147 657.348 480.387C665.688 451.018 669.64 420.578 669.077 390.053C666.912 334.49 647.6 280.959 613.79 236.813C579.981 192.666 533.334 160.069 480.255 143.498C427.176 126.927 370.269 127.195 317.348 144.264C264.427 161.334 218.089 194.369 184.697 238.832M209.609 590.917C164.113 545.42 136.412 485.136 131.523 420.981C126.635 356.825 144.88 293.04 182.957 241.175M208.134 589.432C215.209 596.476 219.917 605.548 221.605 615.388C222.68 621.174 222.559 627.118 221.248 632.855C219.937 638.591 217.465 643.998 213.984 648.742C210.502 653.487 206.086 657.467 201.007 660.438C195.927 663.41 190.293 665.309 184.452 666.018C177.309 666.842 170.072 666.03 163.289 663.643C156.506 661.256 150.356 657.356 145.304 652.24M421.757 733.293C421.757 756.43 377.545 759.145 360.174 755.803C336.539 751.26 304.95 744.7 307.84 724.593C310.874 703.452 353.174 704.148 369.475 705.76C384.579 707.26 421.757 712.538 421.757 733.293Z" stroke="black" stroke-width="16.6667" stroke-linecap="round" stroke-linejoin="round"/>
<path d="M360.5 755.5C458.1 747.9 421.167 722.667 390.5 711C315.292 693.979 305.368 717.664 309.854 732.049C320.137 748.888 347.903 754.699 360.5 755.5Z" fill="black"/>
</svg>
