<svg width="888" height="699" viewBox="0 0 888 699" fill="none" xmlns="http://www.w3.org/2000/svg">
<path d="M147.874 128.101C145.074 132.781 139.214 134.761 134.174 135.771C127.734 137.091 121.074 137.441 114.554 138.021L110.764 138.951C110.047 139.172 109.38 139.533 108.803 140.012C108.225 140.492 107.748 141.081 107.399 141.745C107.049 142.409 106.835 143.136 106.767 143.884C106.699 144.631 106.78 145.385 107.004 146.101C109.349 154.171 112.575 161.957 116.624 169.321L110.624 175.321C108.924 173.021 108.844 168.991 106.564 169.381C104.374 167.191 101.774 166.121 99.0839 169.051C93.8239 174.801 94.6739 186.751 102.404 190.051L100.674 198.661C100.077 201.671 98.4559 204.382 96.0859 206.331C93.7149 208.28 90.7429 209.347 87.6739 209.351L89.0039 199.161C80.0039 203.711 69.7939 193.871 70.5039 185.761C70.9639 180.201 69.7039 176.361 65.5939 172.331C65.3239 172.061 66.9739 171.061 66.7239 170.791C65.5639 167.281 65.4039 163.181 66.5539 160.861C68.5539 156.721 74.4439 154.301 71.7339 149.781C70.5449 147.811 69.6769 145.664 69.1639 143.421C68.6199 140.447 68.7189 137.391 69.4559 134.458C70.1929 131.526 71.5489 128.785 73.4339 126.421C77.4339 121.621 83.9339 122.911 89.2439 121.211C95.7139 119.211 98.7039 112.281 105.474 110.141C108.844 109.071 111.964 109.561 115.334 110.331C118.184 110.991 121.004 111.731 123.804 112.611C126.604 113.491 129.064 114.221 131.804 113.401C135.424 112.401 138.214 109.021 142.164 108.991C144.135 108.946 146.064 109.562 147.644 110.741C150.564 115.991 150.584 123.611 147.874 128.101Z" fill="#225560"/>
<path d="M481.134 95.4019V95.3719" stroke="#CCDDE2" stroke-width="4.11" stroke-miterlimit="10"/>
<path d="M195.474 311.612V311.582" stroke="black" stroke-width="4.11" stroke-miterlimit="10"/>
<path d="M110.354 174.522C109.288 172.68 108.02 170.962 106.574 169.402C104.384 167.212 101.784 166.142 99.0941 169.072C93.8341 174.822 94.6841 186.772 102.414 190.072L100.684 198.682C100.087 201.692 98.4661 204.402 96.0961 206.351C93.7251 208.3 90.7531 209.368 87.6841 209.372" stroke="black" stroke-width="4.11" stroke-linecap="round" stroke-linejoin="round"/>
<path d="M82.8438 247.471C83.2837 244.131 84.3738 235.361 85.4238 227.001C86.4238 219.251 87.3138 211.791 87.6638 209.331L89.0038 199.161" stroke="black" stroke-width="4.11" stroke-linecap="round" stroke-linejoin="round"/>
<path d="M144.584 147.262C144.584 147.262 131.814 147.892 129.344 158.462" stroke="black" stroke-width="4.11" stroke-miterlimit="10"/>
<path d="M149.224 175.192C152.704 175.102 157.224 174.592 158.864 171.062L150.064 161.352C147.917 158.973 146.647 155.932 146.464 152.732C146.114 147.362 146.744 138.842 141.604 133.172" stroke="black" stroke-width="4.11" stroke-miterlimit="10"/>
<path d="M141.699 161.751C143.14 160.157 143.211 157.875 141.859 156.653C140.507 155.43 138.243 155.732 136.803 157.326C135.362 158.919 135.29 161.202 136.642 162.424C137.994 163.646 140.258 163.345 141.699 161.751Z" fill="black"/>
<path d="M140.834 238.972L134.204 206.832" stroke="black" stroke-width="4.11" stroke-miterlimit="10"/>
<path d="M308.904 383.621L266.174 418.561C317.584 496.961 278.674 511.351 278.674 511.351C271.126 512.796 263.505 513.821 255.844 514.421C218.684 517.101 180.564 507.511 149.934 486.031C87.9338 442.531 33.9337 355.471 62.7338 279.671C65.1568 273.26 68.1178 267.064 71.5838 261.151C74.5708 256.011 78.3738 251.391 82.8438 247.471C90.6678 240.622 100.303 236.177 110.592 234.671C120.88 233.165 131.385 234.662 140.844 238.981C144.465 240.634 147.89 242.687 151.054 245.101C167.244 257.491 181.964 275.101 194.654 293.581C205.921 310.293 216.061 327.739 225.004 345.801C227.474 350.731 229.714 355.391 231.694 359.661C249.644 352.401 264.694 340.071 278.694 326.751C261.764 358.351 308.904 383.621 308.904 383.621Z" fill="#EC9A4A"/>
<path d="M279.004 409.18C278.184 409.81 277.334 410.47 276.484 411.1" stroke="black" stroke-width="4.11" stroke-miterlimit="10"/>
<path d="M152.674 276.352C164.007 298.052 175.341 319.792 186.674 341.572C195.224 358.012 209.674 368.162 230.024 360.372C252.164 351.892 270.024 335.682 286.544 319.162C303.064 302.642 319.804 286.842 343.654 282.582C374.484 277.072 403.654 293.872 424.654 315.102C426.27 316.721 427.292 318.838 427.555 321.11C427.818 323.382 427.307 325.677 426.104 327.622C425.332 328.866 424.301 329.93 423.082 330.74C421.862 331.55 420.482 332.088 419.036 332.316C417.589 332.545 416.111 332.459 414.701 332.065C413.291 331.671 411.982 330.978 410.864 330.032C400.914 321.542 384.724 309.262 373.464 309.102" stroke="black" stroke-width="4.11" stroke-miterlimit="10"/>
<path d="M342.744 338.231C346.204 340.541 351.004 343.101 355.004 343.101" stroke="black" stroke-width="4.11" stroke-miterlimit="10"/>
<path d="M387.084 313.313C394.464 316.963 397.154 327.643 391.944 334.023C385.338 342.22 377.061 348.915 367.664 353.663C357.384 358.793 350.784 355.663 340.664 349.403" stroke="black" stroke-width="4.11" stroke-miterlimit="10"/>
<path d="M370.004 322.883C370.004 322.883 384.624 326.503 384.234 340.693C384.208 341.298 384.1 341.897 383.914 342.473" stroke="black" stroke-width="4.11" stroke-miterlimit="10"/>
<path d="M359.674 331.821C359.674 331.821 379.284 344.491 369.954 352.461" stroke="black" stroke-width="4.11" stroke-miterlimit="10"/>
<path d="M738.484 381.481C715.384 444.971 650.714 446.761 643.314 446.761C646.414 440.231 647.254 428.761 640.464 408.661C645.013 402.019 647.407 394.138 647.323 386.087C647.239 378.037 644.681 370.208 639.994 363.661C640.084 363.581 640.134 363.471 640.214 363.391C643.448 363.194 646.657 362.709 649.804 361.941C660.964 359.281 682.964 353.441 700.424 345.221C712.264 339.631 726.074 348.591 725.064 361.661C725.064 361.831 725.064 361.991 725.004 362.181C727.316 362.18 729.594 362.736 731.644 363.804C733.694 364.872 735.456 366.419 736.78 368.315C738.103 370.21 738.949 372.396 739.246 374.689C739.543 376.981 739.282 379.312 738.484 381.481Z" fill="#225560"/>
<path d="M442.054 530.393C434.274 543.743 422.164 555.113 410.464 565.033C369.274 599.893 315.464 617.593 261.464 618.283C207.284 617.593 153.274 599.833 111.894 565.283C-18.8562 456.103 4.77379 327.193 25.9238 267.503C26.6687 265.439 27.6771 263.48 28.9238 261.673C30.5775 259.254 32.7244 257.212 35.2235 255.682C37.7226 254.151 40.5169 253.167 43.4239 252.793C54.5239 254.323 64.6039 263.533 62.8239 277.793C62.8239 278.343 62.6039 279.103 62.5539 279.653C33.7738 355.453 87.7939 442.513 149.754 486.013C177.864 505.743 212.284 515.443 246.484 514.813H246.874C249.807 514.753 252.737 514.617 255.664 514.403C274.874 513.003 293.544 508.403 312.034 502.833C333.734 496.343 355.194 488.473 376.874 482.963C384.494 481.023 392.134 479.153 399.814 477.403C404.246 476.494 408.779 476.181 413.294 476.473C439.924 478.273 458.634 501.953 442.054 530.393Z" fill="#D7E8F0"/>
<path d="M448.634 530.393C440.854 543.743 428.734 555.113 417.034 565.033C374.204 601.313 317.694 619.033 261.434 618.283C207.254 617.593 153.244 599.833 111.864 565.283C-18.856 456.103 4.77402 327.193 25.924 267.503C26.669 265.439 27.6773 263.48 28.924 261.673C30.5777 259.254 32.7246 257.212 35.2237 255.682C37.7228 254.151 40.5179 253.167 43.4239 252.793C54.5239 254.323 64.6039 263.533 62.8239 277.793C62.8239 278.343 62.6039 279.103 62.5539 279.653C33.774 355.453 87.7939 442.513 149.754 486.013C177.864 505.743 212.284 515.443 246.484 514.813H246.874C252.027 514.893 257.151 514.757 262.244 514.403C281.454 513.003 300.114 508.403 318.614 502.833C340.314 496.343 361.774 488.473 383.454 482.963C391.064 481.023 398.714 479.153 406.384 477.403C408.664 476.937 410.972 476.626 413.294 476.473C443.234 474.463 466.554 499.653 448.634 530.393Z" fill="#F8BAB4"/>
<path d="M270.464 618.1L283.624 636.72C283.624 636.72 363.254 639.82 406.834 676.4C414.894 683.17 410.074 696.32 399.554 696.32C396.916 696.329 394.361 695.401 392.344 693.7C382.054 685.06 342.744 657.9 253.824 657.08C167.184 656.27 133.954 683.08 124.764 692.85C123.716 693.954 122.453 694.831 121.053 695.428C119.653 696.024 118.146 696.328 116.624 696.32H114.914C104.114 696.32 99.5439 682.68 108.074 676.06C144.454 647.77 226.004 638.75 226.004 638.75L239.924 617.75" fill="#353642"/>
<path d="M622.874 514.852C622.874 514.852 647.264 538.022 639.654 609.852C639.099 614.981 637.316 619.9 634.454 624.192L631.804 628.192C627.458 634.7 620.905 639.417 613.354 641.472C597.424 645.822 568.524 655.902 550.674 675.002C543.134 683.092 548.744 696.272 559.804 696.272C561.866 696.278 563.898 695.773 565.718 694.803C567.537 693.833 569.089 692.427 570.234 690.712C577.504 679.772 599.514 656.542 652.604 657.032C712.484 657.582 736.604 681.392 744.334 691.652C745.402 693.083 746.788 694.245 748.384 695.047C749.979 695.849 751.739 696.268 753.524 696.272C755.762 696.267 757.95 695.61 759.82 694.38C761.689 693.151 763.16 691.402 764.051 689.349C764.941 687.296 765.213 685.027 764.834 682.822C764.454 680.616 763.44 678.569 761.914 676.932C738.564 651.562 710.004 642.102 694.244 638.592C686.326 636.885 679.331 632.281 674.634 625.682C671.038 620.592 668.992 614.569 668.744 608.342C667.864 586.072 667.404 532.012 682.494 514.872" fill="#353642"/>
<path d="M312.234 502.861C355.124 482.041 401.674 468.381 447.444 455.521C493.504 442.581 540.014 431.291 586.664 420.681C605.304 416.451 624.114 412.681 642.664 407.911" stroke="black" stroke-width="4.11" stroke-miterlimit="10"/>
<path d="M352.474 342.813H352.504H352.524" stroke="black" stroke-width="4.11" stroke-miterlimit="10"/>
<path d="M347.664 340.103C344.974 342.763 335.374 356.973 332.964 359.523C319.724 373.712 305.66 387.109 290.844 399.643C287.114 402.743 283.164 405.943 279.004 409.183C278.184 409.813 277.334 410.473 276.484 411.103C248.284 432.503 211.484 453.103 177.484 439.903C176.584 439.573 175.704 439.193 174.834 438.803C122.684 415.453 86.2338 356.973 83.0538 300.523C82.9438 298.683 82.8838 296.853 82.8638 295.043C82.5838 279.613 84.8638 264.183 99.6638 256.043" stroke="black" stroke-width="4.11" stroke-miterlimit="10"/>
<path d="M62.8139 279.452L63.0239 277.812C66.3439 251.192 28.544 242.212 19.574 267.502C-1.56601 327.182 -25.206 456.062 105.574 565.262C189.984 635.772 326.644 636.262 410.734 565.032C422.434 555.122 434.544 543.732 442.334 530.382C462.044 496.622 431.944 469.552 397.994 477.862" stroke="black" stroke-width="4.11" stroke-miterlimit="10"/>
<path d="M270.464 618.1L283.624 636.72C283.624 636.72 363.254 639.82 406.834 676.4C414.894 683.17 410.074 696.32 399.554 696.32C396.916 696.329 394.361 695.401 392.344 693.7C382.054 685.06 342.744 657.9 253.824 657.08C167.184 656.27 133.954 683.08 124.764 692.85C123.716 693.954 122.453 694.831 121.053 695.428C119.653 696.024 118.146 696.328 116.624 696.32H114.914C104.114 696.32 99.5439 682.68 108.074 676.06C144.454 647.77 226.004 638.75 226.004 638.75L239.924 617.75" stroke="black" stroke-width="4.11" stroke-miterlimit="10"/>
<path d="M226.004 344.204C259.384 335.204 273.134 288.114 278.674 256.454" stroke="black" stroke-width="4.11" stroke-miterlimit="10"/>
<path d="M194.624 293.611C203.897 292.397 212.704 288.825 220.202 283.236C227.701 277.648 233.641 270.23 237.454 261.691C238.252 259.992 238.64 258.131 238.588 256.255C238.536 254.379 238.045 252.542 237.154 250.891C233.514 244.151 228.084 236.341 229.374 228.261C230.304 222.561 234.994 218.551 240.374 217.261C243.101 216.546 245.973 216.595 248.674 217.401C250.293 217.86 251.79 218.673 253.056 219.781C254.322 220.89 255.325 222.266 255.994 223.811C257.304 226.881 255.744 229.921 253.334 231.921C250.924 233.921 248.104 234.631 245.164 235.431C244.784 235.541 243.744 235.761 242.594 235.981" stroke="black" stroke-width="4.11" stroke-miterlimit="10"/>
<path d="M642.624 407.892C642.624 407.892 708.424 394.112 720.784 374.262C723.101 370.643 724.545 366.535 725.004 362.262" stroke="black" stroke-width="4.11" stroke-miterlimit="10"/>
<path d="M318.844 373.992C433.614 361.802 563.154 363.602 563.154 363.602H635.854C640.552 363.609 645.235 363.058 649.804 361.962C660.964 359.302 682.964 353.472 700.424 345.242C712.264 339.652 726.074 348.612 725.064 361.692C725.064 361.852 725.064 362.022 725.004 362.212C727.311 362.213 729.583 362.77 731.629 363.835C733.675 364.901 735.434 366.444 736.757 368.334C738.079 370.224 738.927 372.405 739.228 374.692C739.528 376.979 739.273 379.305 738.484 381.472C713.964 448.862 642.624 446.752 642.624 446.752C633.504 447.022 624.404 447.382 615.274 447.852C534.844 451.762 455.124 463.052 377.084 482.982C355.404 488.492 333.944 496.352 312.244 502.852C293.744 508.442 275.054 513.012 255.844 514.412C218.684 517.102 180.564 507.502 149.934 486.022C82.8437 438.942 25.1037 340.782 71.5837 261.102C87.9937 232.982 125.154 225.282 151.054 245.102C187.584 273.052 216.764 327.502 231.734 359.622" stroke="black" stroke-width="4.11" stroke-miterlimit="10"/>
<path d="M736.964 514.852H577.244" stroke="black" stroke-width="4.11" stroke-miterlimit="10"/>
<path d="M545.004 482.591C545.028 474.041 548.434 465.849 554.478 459.802C560.523 453.756 568.715 450.347 577.264 450.321H737.004C745.555 450.344 753.749 453.752 759.796 459.799C765.843 465.845 769.25 474.04 769.274 482.591" stroke="black" stroke-width="4.11" stroke-miterlimit="10"/>
<path d="M772.414 494.032C772.422 496.769 771.889 499.481 770.844 502.011C769.8 504.542 768.266 506.84 766.33 508.775C764.394 510.71 762.095 512.243 759.564 513.286C757.033 514.329 754.321 514.861 751.584 514.852H562.584C557.853 514.404 553.487 512.118 550.424 508.485C547.361 504.851 545.846 500.161 546.205 495.423C546.564 490.684 548.768 486.275 552.343 483.145C555.919 480.014 560.58 478.412 565.324 478.682H754.324C757.679 478.677 760.986 479.484 763.96 481.036C766.935 482.588 769.489 484.837 771.404 487.592C772.073 489.673 772.414 491.846 772.414 494.032Z" fill="#EC9A4A"/>
<path d="M772.414 494.031C772.422 496.768 771.888 499.48 770.844 502.01C769.8 504.54 768.266 506.839 766.33 508.774C764.394 510.709 762.094 512.242 759.564 513.285C757.033 514.328 754.321 514.86 751.584 514.851H562.584C559.811 514.912 557.053 514.418 554.473 513.399C551.894 512.379 549.543 510.855 547.561 508.915C545.578 506.975 544.002 504.659 542.927 502.102C541.851 499.546 541.297 496.8 541.297 494.026C541.297 491.252 541.851 488.506 542.927 485.949C544.002 483.392 545.578 481.076 547.561 479.136C549.543 477.196 551.894 475.672 554.473 474.653C557.053 473.634 559.811 473.14 562.584 473.201H751.584C755.984 473.199 760.272 474.59 763.832 477.175C767.393 479.76 770.043 483.406 771.404 487.591C772.073 489.672 772.413 491.845 772.414 494.031Z" stroke="black" stroke-width="4.11" stroke-miterlimit="10"/>
<path d="M278.314 255.713L277.934 258.923C277.76 260.38 277.059 261.722 275.963 262.697C274.866 263.672 273.451 264.211 271.984 264.213H251.214C249.747 264.211 248.332 263.672 247.235 262.697C246.139 261.722 245.438 260.38 245.264 258.923L242.584 235.923C243.734 235.703 244.774 235.483 245.154 235.373C248.094 234.573 250.944 233.893 253.324 231.863C255.704 229.833 257.324 226.863 255.984 223.753C255.315 222.209 254.312 220.832 253.046 219.724C251.78 218.615 250.283 217.802 248.664 217.343C245.962 216.537 243.091 216.488 240.364 217.203L239.734 211.723C239.641 210.886 239.726 210.038 239.983 209.236C240.239 208.433 240.662 207.694 241.223 207.066C241.784 206.437 242.472 205.934 243.24 205.589C244.009 205.244 244.842 205.065 245.684 205.063H277.554C278.396 205.066 279.227 205.247 279.995 205.592C280.762 205.938 281.448 206.441 282.008 207.069C282.568 207.697 282.99 208.436 283.246 209.238C283.502 210.04 283.587 210.886 283.494 211.723L282.754 217.973" stroke="black" stroke-width="4.11" stroke-miterlimit="10"/>
<path d="M281.084 232.262L281.054 232.482" stroke="black" stroke-width="4.11" stroke-miterlimit="10"/>
<path d="M279.524 245.473V245.383" stroke="black" stroke-width="4.11" stroke-miterlimit="10"/>
<path d="M279.824 245.47C279.735 245.455 279.643 245.455 279.554 245.47C279.428 245.456 279.3 245.456 279.174 245.47C277.878 245.475 276.631 245.966 275.68 246.846C274.729 247.726 274.143 248.932 274.038 250.224C273.934 251.515 274.319 252.799 275.116 253.821C275.913 254.843 277.065 255.528 278.344 255.74C278.895 255.85 279.463 255.85 280.014 255.74C282.51 255.342 284.789 254.082 286.454 252.18C288.673 248.53 290.215 244.509 291.004 240.31C291.018 240.268 291.018 240.222 291.004 240.18C291.614 237.086 291.846 233.93 291.694 230.78M291.694 230.78C291.694 229.43 291.524 228.09 291.364 226.78C291.059 224.588 290.057 222.553 288.507 220.974C286.956 219.395 284.94 218.356 282.754 218.01C282.644 218.01 282.514 218.01 282.404 217.95C278.204 217.43 272.314 219.02 271.224 223.76C270.224 228.04 274.864 231.71 278.674 232.04C278.674 232.04 279.674 232.17 281.084 232.26C283.904 232.45 288.594 232.42 291.694 230.78ZM291.694 230.78C292.15 230.544 292.579 230.259 292.974 229.93" stroke="black" stroke-width="4.11" stroke-miterlimit="10"/>
<path d="M284.204 232.493H283.514H278.184H275.834C274.245 232.498 272.719 233.111 271.568 234.207C270.416 235.302 269.728 236.796 269.644 238.383C269.566 239.925 270.063 241.44 271.039 242.637C272.014 243.834 273.398 244.627 274.924 244.863C281.824 245.973 289.704 246.203 291.054 240.023" stroke="black" stroke-width="4.11" stroke-miterlimit="10"/>
<path d="M622.874 514.852C622.874 514.852 647.264 538.022 639.654 609.852C639.099 614.981 637.316 619.9 634.454 624.192L631.804 628.192C627.458 634.7 620.905 639.417 613.354 641.472C597.424 645.822 568.524 655.902 550.674 675.002C543.134 683.092 548.744 696.272 559.804 696.272C561.866 696.278 563.898 695.773 565.718 694.803C567.537 693.833 569.089 692.427 570.234 690.712C577.504 679.772 599.514 656.542 652.604 657.032C712.484 657.582 736.604 681.392 744.334 691.652C745.402 693.083 746.788 694.245 748.384 695.047C749.979 695.849 751.739 696.268 753.524 696.272C755.762 696.267 757.95 695.61 759.82 694.38C761.689 693.151 763.16 691.402 764.051 689.349C764.941 687.296 765.213 685.027 764.834 682.822C764.454 680.616 763.44 678.569 761.914 676.932C738.564 651.562 710.004 642.102 694.244 638.592C686.326 636.885 679.331 632.281 674.634 625.682C671.038 620.592 668.992 614.569 668.744 608.342C667.864 586.072 667.404 532.012 682.494 514.872" stroke="black" stroke-width="4.11" stroke-miterlimit="10"/>
<path d="M572.174 346.96V348.58C572.174 359.67 563.234 361.58 555.514 361.77L406.104 365.25C399.554 365.41 394.044 359.69 393.904 352.53V352.23C393.904 345.23 399.064 339.38 405.524 339.23C405.524 339.23 489.114 336.87 553.834 335.09C555.074 339.01 558.074 342.03 561.834 344.4C564.949 346.263 568.549 347.154 572.174 346.96Z" stroke="black" stroke-width="4.11" stroke-miterlimit="10"/>
<path d="M651.594 188.86C651.602 190.685 651.184 192.485 650.374 194.12L583.554 331.1C582.77 332.69 581.648 334.09 580.266 335.201C578.884 336.311 577.276 337.106 575.554 337.53C572.795 338.237 569.874 337.939 567.314 336.69C565.262 335.68 563.535 334.112 562.331 332.167C561.127 330.222 560.494 327.978 560.504 325.69C560.509 325.128 560.549 324.567 560.624 324.01C560.802 322.77 561.173 321.566 561.724 320.44L628.534 183.44C629.741 180.982 631.745 179.004 634.219 177.83C636.693 176.657 639.492 176.355 642.16 176.976C644.828 177.596 647.206 179.102 648.909 181.247C650.611 183.393 651.536 186.051 651.534 188.79L651.594 188.86Z" stroke="black" stroke-width="4.11" stroke-miterlimit="10"/>
<path d="M110.634 175.341C110.554 175.061 110.444 174.791 110.354 174.521C110.264 174.251 110.134 173.941 110.054 173.641" stroke="black" stroke-width="4.11" stroke-linecap="round" stroke-linejoin="round"/>
<path d="M110.634 175.351L112.684 173.291L116.604 169.321" stroke="black" stroke-width="4.11" stroke-linecap="round" stroke-linejoin="round"/>
<path d="M133.704 180.774C133.704 180.774 136.334 188.624 146.384 189.154" stroke="black" stroke-width="4.11" stroke-miterlimit="10"/>
<path d="M89.0038 199.161C80.0038 203.711 69.7938 193.871 70.5038 185.761C70.9638 180.201 69.7038 176.362 65.5938 172.331C65.3238 172.061 65.0738 171.781 64.8338 171.511C63.2688 169.809 62.2518 167.676 61.9128 165.388C61.5738 163.101 61.9298 160.764 62.9338 158.681C64.8038 154.331 68.8338 151.781 66.0338 147.091C64.8048 145.063 63.9078 142.852 63.3738 140.541C62.8148 137.477 62.9198 134.329 63.6808 131.308C64.4418 128.288 65.8408 125.466 67.7838 123.031C71.9038 118.031 78.6138 119.411 84.1238 117.661C90.7538 115.551 93.8538 108.421 100.814 106.231C104.294 105.141 107.524 105.631 111.004 106.421C113.934 107.111 116.874 107.881 119.724 108.781C122.574 109.681 125.174 110.451 128.024 109.601C131.754 108.511 134.624 105.081 138.684 105.051C142.744 105.021 145.864 107.411 147.684 110.751C150.564 115.991 150.584 123.611 147.874 128.131C145.074 132.811 139.214 134.791 134.174 135.801C127.734 137.121 121.074 137.471 114.554 138.051L110.764 138.981C109.322 139.429 108.117 140.429 107.412 141.764C106.707 143.099 106.56 144.659 107.004 146.101C109.349 154.171 112.575 161.958 116.624 169.321" stroke="black" stroke-width="4.11" stroke-miterlimit="10"/>
<path d="M116.604 200.31C116.604 200.31 136.444 214.84 147.754 206.83C159.064 198.82 152.674 175.34 152.674 175.34" stroke="black" stroke-width="4.11" stroke-linecap="round" stroke-linejoin="round"/>
<path d="M256.794 195.032C256.794 195.032 248.364 189.332 253.724 183.512C259.084 177.692 251.944 170.012 251.944 170.012" stroke="black" stroke-width="4.11" stroke-miterlimit="10"/>
<path d="M264.574 196.021C264.574 196.021 270.154 192.251 266.574 188.391C262.994 184.531 267.764 179.391 267.764 179.391" stroke="black" stroke-width="4.11" stroke-miterlimit="10"/>
<path d="M408.374 214.543C430.962 214.543 449.274 196.231 449.274 173.643C449.274 151.054 430.962 132.743 408.374 132.743C385.786 132.743 367.474 151.054 367.474 173.643C367.474 196.231 385.786 214.543 408.374 214.543Z" fill="#F8BAB4"/>
<path d="M421.824 159.982C421.247 158.652 420.471 157.418 419.524 156.322C417.903 154.405 415.639 153.144 413.156 152.776C410.673 152.408 408.141 152.958 406.034 154.322C404.66 155.218 403.511 156.42 402.678 157.834C401.846 159.248 401.351 160.835 401.234 162.472C399.081 161.683 396.73 161.615 394.535 162.279C392.341 162.942 390.421 164.302 389.067 166.152C387.712 168.002 386.996 170.242 387.026 172.535C387.056 174.827 387.831 177.048 389.234 178.862C392.164 182.682 397.144 185.192 401.654 186.652C404.019 187.409 406.455 187.925 408.924 188.192C410.174 188.332 417.304 189.292 417.924 188.192C422.374 181.232 425.534 168.482 421.824 159.982Z" fill="white"/>
<g opacity="0.72">
<path opacity="0.72" d="M510.314 156.712C522.752 156.712 532.834 146.63 532.834 134.192C532.834 121.755 522.752 111.672 510.314 111.672C497.877 111.672 487.794 121.755 487.794 134.192C487.794 146.63 497.877 156.712 510.314 156.712Z" fill="#F8BAB4"/>
<path opacity="0.72" d="M520.084 138.181C520.642 137.613 521.107 136.962 521.464 136.251C522.106 135.025 522.279 133.606 521.949 132.262C521.62 130.918 520.811 129.74 519.674 128.951C518.931 128.438 518.08 128.104 517.186 127.975C516.293 127.847 515.381 127.928 514.524 128.211C514.476 126.949 514.018 125.737 513.221 124.758C512.423 123.779 511.329 123.086 510.103 122.783C508.877 122.481 507.586 122.585 506.424 123.081C505.263 123.576 504.294 124.436 503.664 125.531C502.439 128.007 501.963 130.788 502.294 133.531C502.407 134.885 502.654 136.225 503.034 137.531C503.224 138.201 504.224 142.031 504.904 142.151C509.374 142.901 516.534 141.851 520.084 138.181Z" fill="white"/>
</g>
<path d="M478.043 240.537L467.338 263.174C463.456 271.382 466.963 281.182 475.171 285.064L497.807 295.769C506.015 299.651 515.816 296.143 519.698 287.935L530.403 265.299C534.284 257.091 530.777 247.29 522.569 243.409L499.933 232.704C491.725 228.822 481.924 232.329 478.043 240.537Z" fill="#F8BAB4"/>
<path d="M524.294 269.262L516.544 285.652C514.918 289.066 512.007 291.698 508.448 292.974C504.888 294.249 500.968 294.065 497.544 292.462L477.884 283.162C474.472 281.534 471.842 278.623 470.569 275.063C469.295 271.504 469.48 267.585 471.084 264.162L471.604 263.062C476.944 258.802 486.174 253.062 489.544 260.872C494.394 272.152 500.704 268.512 508.764 263.792C515.494 259.812 523.574 258.482 524.294 269.262Z" fill="white"/>
<path d="M493.844 251.843C497.185 251.843 499.894 249.134 499.894 245.793C499.894 242.451 497.185 239.743 493.844 239.743C490.503 239.743 487.794 242.451 487.794 245.793C487.794 249.134 490.503 251.843 493.844 251.843Z" fill="white"/>
<path d="M597.064 166.292C598.267 168.485 599.14 170.844 599.654 173.292C600.57 177.77 600.307 182.41 598.891 186.755C597.474 191.101 594.953 195.004 591.574 198.082C588.894 200.452 585.484 202.302 582.774 204.782C580.797 206.488 579.341 208.717 578.574 211.212C578.434 212.065 578.091 212.871 577.574 213.562C575.994 215.262 574.444 212.562 573.074 212.102C570.866 211.384 568.471 211.501 566.344 212.432C560.751 214.771 554.522 215.103 548.712 213.373C542.902 211.643 537.87 207.956 534.467 202.939C531.065 197.922 529.503 191.882 530.045 185.845C530.588 179.807 533.202 174.143 537.444 169.812C541.634 165.542 547.114 162.812 552.444 160.032C557.104 157.562 561.744 154.932 566.804 153.452C578.664 149.902 591.324 155.812 597.064 166.292Z" fill="#F8BAB4"/>
<path d="M549.304 197.182C552.452 197.182 555.004 194.63 555.004 191.482C555.004 188.334 552.452 185.782 549.304 185.782C546.156 185.782 543.604 188.334 543.604 191.482C543.604 194.63 546.156 197.182 549.304 197.182Z" fill="white"/>
<path d="M564.654 188.971C567.802 188.971 570.354 186.419 570.354 183.271C570.354 180.123 567.802 177.571 564.654 177.571C561.506 177.571 558.954 180.123 558.954 183.271C558.954 186.419 561.506 188.971 564.654 188.971Z" fill="white"/>
<path d="M579.054 181.272C582.202 181.272 584.754 178.72 584.754 175.572C584.754 172.424 582.202 169.872 579.054 169.872C575.906 169.872 573.354 172.424 573.354 175.572C573.354 178.72 575.906 181.272 579.054 181.272Z" fill="white"/>
<g opacity="0.54">
<path opacity="0.54" d="M614.094 36.961C613.952 38.712 613.682 40.4499 613.284 42.1609L608.784 61.681C607.404 67.681 605.854 73.961 601.574 78.341C593.574 86.501 580.274 84.6309 569.154 82.1609L541.854 76.1009C535.584 74.7109 529.214 73.281 523.594 70.171C517.974 67.061 513.094 61.971 511.794 55.681C510.794 51.041 511.864 46.241 512.884 41.621L517.004 22.8809C518.374 16.7409 519.914 10.2609 524.344 5.79095C532.234 -2.15905 545.344 -0.349044 556.244 2.02096L584.204 8.10094C601.064 11.7409 615.434 19.561 614.094 36.961Z" fill="#F8BAB4"/>
<path opacity="0.54" d="M576.444 37.4819C577.613 38.5689 578.476 39.9449 578.944 41.4709C579.413 42.9979 579.471 44.6209 579.114 46.1769C578.756 47.7329 577.994 49.1669 576.906 50.3359C575.818 51.5039 574.441 52.3649 572.914 52.8319L564.594 55.3819L556.274 57.9319C554.747 58.3989 553.124 58.4559 551.568 58.0969C550.013 57.7379 548.579 56.9769 547.41 55.8879C546.242 54.7999 545.381 53.4239 544.913 51.8969C544.445 50.3709 544.386 48.7479 544.744 47.1919L546.744 38.7119L548.694 30.2419C549.05 28.6849 549.81 27.2499 550.898 26.0799C551.986 24.9109 553.362 24.0479 554.889 23.5799C556.416 23.1109 558.039 23.0539 559.595 23.4119C561.152 23.7709 562.586 24.5329 563.754 25.6219L570.124 31.5519L576.444 37.4819Z" fill="white"/>
</g>
<path d="M24.4839 696.274H888.004" stroke="black" stroke-width="4.11" stroke-miterlimit="10"/>
</svg>
