<svg width="888" height="699" viewBox="0 0 888 699" fill="none" xmlns="http://www.w3.org/2000/svg">
<path d="M740.13 128.101C742.93 132.781 748.79 134.761 753.83 135.771C760.27 137.091 766.93 137.441 773.45 138.021L777.24 138.951C777.957 139.172 778.624 139.533 779.201 140.012C779.779 140.492 780.256 141.081 780.605 141.745C780.955 142.409 781.169 143.136 781.237 143.884C781.305 144.631 781.224 145.385 781 146.101C778.655 154.171 775.429 161.957 771.38 169.321L777.38 175.321C779.08 173.021 779.16 168.991 781.44 169.381C783.63 167.191 786.23 166.121 788.92 169.051C794.18 174.801 793.33 186.751 785.6 190.051L787.33 198.661C787.927 201.671 789.548 204.382 791.918 206.331C794.289 208.28 797.261 209.347 800.33 209.351L799 199.161C808 203.711 818.21 193.871 817.5 185.761C817.04 180.201 818.3 176.361 822.41 172.331C822.68 172.061 821.03 171.061 821.28 170.791C822.44 167.281 822.6 163.181 821.45 160.861C819.45 156.721 813.56 154.301 816.27 149.781C817.459 147.811 818.327 145.664 818.84 143.421C819.384 140.447 819.285 137.391 818.548 134.458C817.811 131.526 816.455 128.785 814.57 126.421C810.57 121.621 804.07 122.911 798.76 121.211C792.29 119.211 789.3 112.281 782.53 110.141C779.16 109.071 776.04 109.561 772.67 110.331C769.82 110.991 767 111.731 764.2 112.611C761.4 113.491 758.94 114.221 756.2 113.401C752.58 112.401 749.79 109.021 745.84 108.991C743.869 108.946 741.94 109.562 740.36 110.741C737.44 115.991 737.42 123.611 740.13 128.101Z" fill="#225560"/>
<path d="M406.87 95.4019V95.3719" stroke="#CCDDE2" stroke-width="4.11" stroke-miterlimit="10"/>
<path d="M692.53 311.612V311.582" stroke="black" stroke-width="4.11" stroke-miterlimit="10"/>
<path d="M777.65 174.522C778.716 172.68 779.984 170.962 781.43 169.402C783.62 167.212 786.22 166.142 788.91 169.072C794.17 174.822 793.32 186.772 785.59 190.072L787.32 198.682C787.917 201.692 789.538 204.402 791.908 206.351C794.279 208.3 797.251 209.368 800.32 209.372" stroke="black" stroke-width="4.11" stroke-linecap="round" stroke-linejoin="round"/>
<path d="M805.16 247.471C804.72 244.131 803.63 235.361 802.58 227.001C801.58 219.251 800.69 211.791 800.34 209.331L799 199.161" stroke="black" stroke-width="4.11" stroke-linecap="round" stroke-linejoin="round"/>
<path d="M743.42 147.262C743.42 147.262 756.19 147.892 758.66 158.462" stroke="black" stroke-width="4.11" stroke-miterlimit="10"/>
<path d="M738.78 175.192C735.3 175.102 730.78 174.592 729.14 171.062L737.94 161.352C740.087 158.973 741.357 155.932 741.54 152.732C741.89 147.362 741.26 138.842 746.4 133.172" stroke="black" stroke-width="4.11" stroke-miterlimit="10"/>
<path d="M746.305 161.751C744.864 160.157 744.793 157.875 746.145 156.653C747.497 155.43 749.761 155.732 751.201 157.326C752.642 158.919 752.714 161.202 751.362 162.424C750.01 163.646 747.746 163.345 746.305 161.751Z" fill="black"/>
<path d="M747.17 238.972L753.8 206.832" stroke="black" stroke-width="4.11" stroke-miterlimit="10"/>
<path d="M579.1 383.621L621.83 418.561C570.42 496.961 609.33 511.351 609.33 511.351C616.878 512.796 624.499 513.821 632.16 514.421C669.32 517.101 707.44 507.511 738.07 486.031C800.07 442.531 854.07 355.471 825.27 279.671C822.847 273.26 819.886 267.064 816.42 261.151C813.433 256.011 809.63 251.391 805.16 247.471C797.336 240.622 787.701 236.177 777.412 234.671C767.124 233.165 756.619 234.662 747.16 238.981C743.539 240.634 740.114 242.687 736.95 245.101C720.76 257.491 706.04 275.101 693.35 293.581C682.083 310.293 671.943 327.739 663 345.801C660.53 350.731 658.29 355.391 656.31 359.661C638.36 352.401 623.31 340.071 609.31 326.751C626.24 358.351 579.1 383.621 579.1 383.621Z" fill="#EC9A4A"/>
<path d="M609 409.18C609.82 409.81 610.67 410.47 611.52 411.1" stroke="black" stroke-width="4.11" stroke-miterlimit="10"/>
<path d="M735.33 276.352C723.997 298.052 712.663 319.792 701.33 341.572C692.78 358.012 678.33 368.162 657.98 360.372C635.84 351.892 617.98 335.682 601.46 319.162C584.94 302.642 568.2 286.842 544.35 282.582C513.52 277.072 484.35 293.872 463.35 315.102C461.734 316.721 460.712 318.838 460.449 321.11C460.186 323.382 460.697 325.677 461.9 327.622C462.672 328.866 463.703 329.93 464.922 330.74C466.142 331.55 467.522 332.088 468.968 332.316C470.415 332.545 471.893 332.459 473.303 332.065C474.713 331.671 476.022 330.978 477.14 330.032C487.09 321.542 503.28 309.262 514.54 309.102" stroke="black" stroke-width="4.11" stroke-miterlimit="10"/>
<path d="M545.26 338.231C541.8 340.541 537 343.101 533 343.101" stroke="black" stroke-width="4.11" stroke-miterlimit="10"/>
<path d="M500.92 313.313C493.54 316.963 490.85 327.643 496.06 334.023C502.666 342.22 510.943 348.915 520.34 353.663C530.62 358.793 537.22 355.663 547.34 349.403" stroke="black" stroke-width="4.11" stroke-miterlimit="10"/>
<path d="M518 322.883C518 322.883 503.38 326.503 503.77 340.693C503.796 341.298 503.904 341.897 504.09 342.473" stroke="black" stroke-width="4.11" stroke-miterlimit="10"/>
<path d="M528.33 331.821C528.33 331.821 508.72 344.491 518.05 352.461" stroke="black" stroke-width="4.11" stroke-miterlimit="10"/>
<path d="M149.52 381.481C172.62 444.971 237.29 446.761 244.69 446.761C241.59 440.231 240.75 428.761 247.54 408.661C242.991 402.019 240.597 394.138 240.681 386.087C240.765 378.037 243.323 370.208 248.01 363.661C247.92 363.581 247.87 363.471 247.79 363.391C244.556 363.194 241.347 362.709 238.2 361.941C227.04 359.281 205.04 353.441 187.58 345.221C175.74 339.631 161.93 348.591 162.94 361.661C162.94 361.831 162.94 361.991 163 362.181C160.688 362.18 158.41 362.736 156.36 363.804C154.31 364.872 152.548 366.419 151.224 368.315C149.901 370.21 149.055 372.396 148.758 374.689C148.461 376.981 148.722 379.312 149.52 381.481Z" fill="#225560"/>
<path d="M445.95 530.393C453.73 543.743 465.84 555.113 477.54 565.033C518.73 599.893 572.54 617.593 626.54 618.283C680.72 617.593 734.73 599.833 776.11 565.283C906.86 456.103 883.23 327.193 862.08 267.503C861.335 265.439 860.327 263.48 859.08 261.673C857.426 259.254 855.28 257.212 852.78 255.682C850.281 254.151 847.487 253.167 844.58 252.793C833.48 254.323 823.4 263.533 825.18 277.793C825.18 278.343 825.4 279.103 825.45 279.653C854.23 355.453 800.21 442.513 738.25 486.013C710.14 505.743 675.72 515.443 641.52 514.813H641.13C638.197 514.753 635.267 514.617 632.34 514.403C613.13 513.003 594.46 508.403 575.97 502.833C554.27 496.343 532.81 488.473 511.13 482.963C503.51 481.023 495.87 479.153 488.19 477.403C483.758 476.494 479.225 476.181 474.71 476.473C448.08 478.273 429.37 501.953 445.95 530.393Z" fill="#D7E8F0"/>
<path d="M439.37 530.393C447.15 543.743 459.27 555.113 470.97 565.033C513.8 601.313 570.31 619.033 626.57 618.283C680.75 617.593 734.76 599.833 776.14 565.283C906.86 456.103 883.23 327.193 862.08 267.503C861.335 265.439 860.327 263.48 859.08 261.673C857.426 259.254 855.279 257.212 852.78 255.682C850.281 254.151 847.486 253.167 844.58 252.793C833.48 254.323 823.4 263.533 825.18 277.793C825.18 278.343 825.4 279.103 825.45 279.653C854.23 355.453 800.21 442.513 738.25 486.013C710.14 505.743 675.72 515.443 641.52 514.813H641.13C635.977 514.893 630.853 514.757 625.76 514.403C606.55 513.003 587.89 508.403 569.39 502.833C547.69 496.343 526.23 488.473 504.55 482.963C496.94 481.023 489.29 479.153 481.62 477.403C479.34 476.937 477.032 476.626 474.71 476.473C444.77 474.463 421.45 499.653 439.37 530.393Z" fill="#F8BAB4"/>
<path d="M617.54 618.1L604.38 636.72C604.38 636.72 524.75 639.82 481.17 676.4C473.11 683.17 477.93 696.32 488.45 696.32C491.088 696.329 493.643 695.401 495.66 693.7C505.95 685.06 545.26 657.9 634.18 657.08C720.82 656.27 754.05 683.08 763.24 692.85C764.288 693.954 765.551 694.831 766.951 695.428C768.351 696.024 769.858 696.328 771.38 696.32H773.09C783.89 696.32 788.46 682.68 779.93 676.06C743.55 647.77 662 638.75 662 638.75L648.08 617.75" fill="#353642"/>
<path d="M265.13 514.852C265.13 514.852 240.74 538.022 248.35 609.852C248.905 614.981 250.688 619.9 253.55 624.192L256.2 628.192C260.546 634.7 267.099 639.417 274.65 641.472C290.58 645.822 319.48 655.902 337.33 675.002C344.87 683.092 339.26 696.272 328.2 696.272C326.138 696.278 324.106 695.773 322.286 694.803C320.467 693.833 318.915 692.427 317.77 690.712C310.5 679.772 288.49 656.542 235.4 657.032C175.52 657.582 151.4 681.392 143.67 691.652C142.602 693.083 141.216 694.245 139.62 695.047C138.025 695.849 136.265 696.268 134.48 696.272C132.242 696.267 130.054 695.61 128.184 694.38C126.315 693.151 124.844 691.402 123.953 689.349C123.063 687.296 122.791 685.027 123.17 682.822C123.55 680.616 124.564 678.569 126.09 676.932C149.44 651.562 178 642.102 193.76 638.592C201.678 636.885 208.673 632.281 213.37 625.682C216.966 620.592 219.012 614.569 219.26 608.342C220.14 586.072 220.6 532.012 205.51 514.872" fill="#353642"/>
<path d="M575.77 502.861C532.88 482.041 486.33 468.381 440.56 455.521C394.5 442.581 347.99 431.291 301.34 420.681C282.7 416.451 263.89 412.681 245.34 407.911" stroke="black" stroke-width="4.11" stroke-miterlimit="10"/>
<path d="M535.53 342.813H535.5H535.48" stroke="black" stroke-width="4.11" stroke-miterlimit="10"/>
<path d="M540.34 340.103C543.03 342.763 552.63 356.973 555.04 359.523C568.28 373.712 582.344 387.109 597.16 399.643C600.89 402.743 604.84 405.943 609 409.183C609.82 409.813 610.67 410.473 611.52 411.103C639.72 432.503 676.52 453.103 710.52 439.903C711.42 439.573 712.3 439.193 713.17 438.803C765.32 415.453 801.77 356.973 804.95 300.523C805.06 298.683 805.12 296.853 805.14 295.043C805.42 279.613 803.14 264.183 788.34 256.043" stroke="black" stroke-width="4.11" stroke-miterlimit="10"/>
<path d="M825.19 279.452L824.98 277.812C821.66 251.192 859.46 242.212 868.43 267.502C889.57 327.182 913.21 456.062 782.43 565.262C698.02 635.772 561.36 636.262 477.27 565.032C465.57 555.122 453.46 543.732 445.67 530.382C425.96 496.622 456.06 469.552 490.01 477.862" stroke="black" stroke-width="4.11" stroke-miterlimit="10"/>
<path d="M617.54 618.1L604.38 636.72C604.38 636.72 524.75 639.82 481.17 676.4C473.11 683.17 477.93 696.32 488.45 696.32C491.088 696.329 493.643 695.401 495.66 693.7C505.95 685.06 545.26 657.9 634.18 657.08C720.82 656.27 754.05 683.08 763.24 692.85C764.288 693.954 765.551 694.831 766.951 695.428C768.351 696.024 769.858 696.328 771.38 696.32H773.09C783.89 696.32 788.46 682.68 779.93 676.06C743.55 647.77 662 638.75 662 638.75L648.08 617.75" stroke="black" stroke-width="4.11" stroke-miterlimit="10"/>
<path d="M662 344.204C628.62 335.204 614.87 288.114 609.33 256.454" stroke="black" stroke-width="4.11" stroke-miterlimit="10"/>
<path d="M693.38 293.611C684.107 292.397 675.3 288.825 667.802 283.236C660.303 277.648 654.363 270.23 650.55 261.691C649.752 259.992 649.364 258.131 649.416 256.255C649.468 254.379 649.959 252.542 650.85 250.891C654.49 244.151 659.92 236.341 658.63 228.261C657.7 222.561 653.01 218.551 647.63 217.261C644.903 216.546 642.031 216.595 639.33 217.401C637.711 217.86 636.214 218.673 634.948 219.781C633.682 220.89 632.679 222.266 632.01 223.811C630.7 226.881 632.26 229.921 634.67 231.921C637.08 233.921 639.9 234.631 642.84 235.431C643.22 235.541 644.26 235.761 645.41 235.981" stroke="black" stroke-width="4.11" stroke-miterlimit="10"/>
<path d="M245.38 407.892C245.38 407.892 179.58 394.112 167.22 374.262C164.903 370.643 163.459 366.535 163 362.262" stroke="black" stroke-width="4.11" stroke-miterlimit="10"/>
<path d="M569.16 373.992C454.39 361.802 324.85 363.602 324.85 363.602H252.15C247.452 363.609 242.769 363.058 238.2 361.962C227.04 359.302 205.04 353.472 187.58 345.242C175.74 339.652 161.93 348.612 162.94 361.692C162.94 361.852 162.94 362.022 163 362.212C160.693 362.213 158.421 362.77 156.375 363.835C154.329 364.901 152.57 366.444 151.247 368.334C149.925 370.224 149.077 372.405 148.776 374.692C148.476 376.979 148.731 379.305 149.52 381.472C174.04 448.862 245.38 446.752 245.38 446.752C254.5 447.022 263.6 447.382 272.73 447.852C353.16 451.762 432.88 463.052 510.92 482.982C532.6 488.492 554.06 496.352 575.76 502.852C594.26 508.442 612.95 513.012 632.16 514.412C669.32 517.102 707.44 507.502 738.07 486.022C805.16 438.942 862.9 340.782 816.42 261.102C800.01 232.982 762.85 225.282 736.95 245.102C700.42 273.052 671.24 327.502 656.27 359.622" stroke="black" stroke-width="4.11" stroke-miterlimit="10"/>
<path d="M151.04 514.852H310.76" stroke="black" stroke-width="4.11" stroke-miterlimit="10"/>
<path d="M343 482.591C342.976 474.041 339.57 465.849 333.526 459.802C327.481 453.756 319.289 450.347 310.74 450.321L151 450.321C142.449 450.344 134.255 453.752 128.208 459.799C122.161 465.845 118.754 474.04 118.73 482.591" stroke="black" stroke-width="4.11" stroke-miterlimit="10"/>
<path d="M115.59 494.032C115.582 496.769 116.115 499.481 117.16 502.011C118.204 504.542 119.738 506.84 121.674 508.775C123.61 510.71 125.909 512.243 128.44 513.286C130.971 514.329 133.683 514.861 136.42 514.852H325.42C330.151 514.404 334.517 512.118 337.58 508.485C340.643 504.851 342.158 500.161 341.799 495.423C341.44 490.684 339.236 486.275 335.661 483.145C332.085 480.014 327.424 478.412 322.68 478.682L133.68 478.682C130.325 478.677 127.018 479.484 124.044 481.036C121.069 482.588 118.515 484.837 116.6 487.592C115.931 489.673 115.59 491.846 115.59 494.032Z" fill="#EC9A4A"/>
<path d="M115.59 494.031C115.582 496.768 116.116 499.48 117.16 502.01C118.204 504.54 119.738 506.839 121.674 508.774C123.61 510.709 125.91 512.242 128.44 513.285C130.971 514.328 133.683 514.86 136.42 514.851H325.42C328.193 514.912 330.951 514.418 333.531 513.399C336.11 512.379 338.461 510.855 340.443 508.915C342.426 506.975 344.002 504.659 345.077 502.102C346.153 499.546 346.707 496.8 346.707 494.026C346.707 491.252 346.153 488.506 345.077 485.949C344.002 483.392 342.426 481.076 340.443 479.136C338.461 477.196 336.11 475.672 333.531 474.653C330.951 473.634 328.193 473.14 325.42 473.201L136.42 473.201C132.02 473.199 127.732 474.59 124.172 477.175C120.611 479.76 117.961 483.406 116.6 487.591C115.931 489.672 115.591 491.845 115.59 494.031Z" stroke="black" stroke-width="4.11" stroke-miterlimit="10"/>
<path d="M609.69 255.713L610.07 258.923C610.244 260.38 610.945 261.722 612.041 262.697C613.138 263.672 614.553 264.211 616.02 264.213H636.79C638.257 264.211 639.672 263.672 640.769 262.697C641.865 261.722 642.566 260.38 642.74 258.923L645.42 235.923C644.27 235.703 643.23 235.483 642.85 235.373C639.91 234.573 637.06 233.893 634.68 231.863C632.3 229.833 630.68 226.863 632.02 223.753C632.689 222.209 633.692 220.832 634.958 219.724C636.224 218.615 637.721 217.802 639.34 217.343C642.042 216.537 644.913 216.488 647.64 217.203L648.27 211.723C648.363 210.886 648.278 210.038 648.021 209.236C647.765 208.433 647.342 207.694 646.781 207.066C646.22 206.437 645.532 205.934 644.764 205.589C643.995 205.244 643.162 205.065 642.32 205.063H610.45C609.608 205.066 608.777 205.247 608.009 205.592C607.242 205.938 606.556 206.441 605.996 207.069C605.436 207.697 605.014 208.436 604.758 209.238C604.502 210.04 604.417 210.886 604.51 211.723L605.25 217.973" stroke="black" stroke-width="4.11" stroke-miterlimit="10"/>
<path d="M606.92 232.262L606.95 232.482" stroke="black" stroke-width="4.11" stroke-miterlimit="10"/>
<path d="M608.48 245.473V245.383" stroke="black" stroke-width="4.11" stroke-miterlimit="10"/>
<path d="M608.18 245.47C608.269 245.455 608.361 245.455 608.45 245.47C608.576 245.456 608.704 245.456 608.83 245.47C610.126 245.475 611.373 245.966 612.324 246.846C613.275 247.726 613.861 248.932 613.966 250.224C614.07 251.515 613.685 252.799 612.888 253.821C612.091 254.843 610.939 255.528 609.66 255.74C609.109 255.85 608.541 255.85 607.99 255.74C605.494 255.342 603.215 254.082 601.55 252.18C599.331 248.53 597.789 244.509 597 240.31C596.986 240.268 596.986 240.222 597 240.18C596.39 237.086 596.158 233.93 596.31 230.78M596.31 230.78C596.31 229.43 596.48 228.09 596.64 226.78C596.945 224.588 597.947 222.553 599.497 220.974C601.048 219.395 603.064 218.356 605.25 218.01C605.36 218.01 605.49 218.01 605.6 217.95C609.8 217.43 615.69 219.02 616.78 223.76C617.78 228.04 613.14 231.71 609.33 232.04C609.33 232.04 608.33 232.17 606.92 232.26C604.1 232.45 599.41 232.42 596.31 230.78ZM596.31 230.78C595.854 230.544 595.425 230.259 595.03 229.93" stroke="black" stroke-width="4.11" stroke-miterlimit="10"/>
<path d="M603.8 232.493H604.49H609.82H612.17C613.759 232.498 615.285 233.111 616.436 234.207C617.588 235.302 618.276 236.796 618.36 238.383C618.438 239.925 617.941 241.44 616.965 242.637C615.99 243.834 614.606 244.627 613.08 244.863C606.18 245.973 598.3 246.203 596.95 240.023" stroke="black" stroke-width="4.11" stroke-miterlimit="10"/>
<path d="M265.13 514.852C265.13 514.852 240.74 538.022 248.35 609.852C248.905 614.981 250.688 619.9 253.55 624.192L256.2 628.192C260.546 634.7 267.099 639.417 274.65 641.472C290.58 645.822 319.48 655.902 337.33 675.002C344.87 683.092 339.26 696.272 328.2 696.272C326.138 696.278 324.106 695.773 322.286 694.803C320.467 693.833 318.915 692.427 317.77 690.712C310.5 679.772 288.49 656.542 235.4 657.032C175.52 657.582 151.4 681.392 143.67 691.652C142.602 693.083 141.216 694.245 139.62 695.047C138.025 695.849 136.265 696.268 134.48 696.272C132.242 696.267 130.054 695.61 128.184 694.38C126.315 693.151 124.844 691.402 123.953 689.349C123.063 687.296 122.791 685.027 123.17 682.822C123.55 680.616 124.564 678.569 126.09 676.932C149.44 651.562 178 642.102 193.76 638.592C201.678 636.885 208.673 632.281 213.37 625.682C216.966 620.592 219.012 614.569 219.26 608.342C220.14 586.072 220.6 532.012 205.51 514.872" stroke="black" stroke-width="4.11" stroke-miterlimit="10"/>
<path d="M315.83 346.96V348.58C315.83 359.67 324.77 361.58 332.49 361.77L481.9 365.25C488.45 365.41 493.96 359.69 494.1 352.53V352.23C494.1 345.23 488.94 339.38 482.48 339.23C482.48 339.23 398.89 336.87 334.17 335.09C332.93 339.01 329.93 342.03 326.17 344.4C323.055 346.263 319.455 347.154 315.83 346.96Z" stroke="black" stroke-width="4.11" stroke-miterlimit="10"/>
<path d="M236.41 188.86C236.402 190.685 236.82 192.485 237.63 194.12L304.45 331.1C305.234 332.69 306.356 334.09 307.738 335.201C309.12 336.311 310.728 337.106 312.45 337.53C315.209 338.237 318.13 337.939 320.69 336.69C322.742 335.68 324.469 334.112 325.673 332.167C326.877 330.222 327.51 327.978 327.5 325.69C327.495 325.128 327.455 324.567 327.38 324.01C327.202 322.77 326.831 321.566 326.28 320.44L259.47 183.44C258.263 180.982 256.259 179.004 253.785 177.83C251.311 176.657 248.512 176.355 245.844 176.976C243.176 177.596 240.798 179.102 239.095 181.247C237.393 183.393 236.468 186.051 236.47 188.79L236.41 188.86Z" stroke="black" stroke-width="4.11" stroke-miterlimit="10"/>
<path d="M777.37 175.341C777.45 175.061 777.56 174.791 777.65 174.521C777.74 174.251 777.87 173.941 777.95 173.641" stroke="black" stroke-width="4.11" stroke-linecap="round" stroke-linejoin="round"/>
<path d="M777.37 175.351L775.32 173.291L771.4 169.321" stroke="black" stroke-width="4.11" stroke-linecap="round" stroke-linejoin="round"/>
<path d="M754.3 180.774C754.3 180.774 751.67 188.624 741.62 189.154" stroke="black" stroke-width="4.11" stroke-miterlimit="10"/>
<path d="M799 199.161C808 203.711 818.21 193.871 817.5 185.761C817.04 180.201 818.3 176.362 822.41 172.331C822.68 172.061 822.93 171.781 823.17 171.511C824.735 169.809 825.752 167.676 826.091 165.388C826.43 163.101 826.074 160.764 825.07 158.681C823.2 154.331 819.17 151.781 821.97 147.091C823.199 145.063 824.096 142.852 824.63 140.541C825.189 137.477 825.084 134.329 824.323 131.308C823.562 128.288 822.163 125.466 820.22 123.031C816.1 118.031 809.39 119.411 803.88 117.661C797.25 115.551 794.15 108.421 787.19 106.231C783.71 105.141 780.48 105.631 777 106.421C774.07 107.111 771.13 107.881 768.28 108.781C765.43 109.681 762.83 110.451 759.98 109.601C756.25 108.511 753.38 105.081 749.32 105.051C745.26 105.021 742.14 107.411 740.32 110.751C737.44 115.991 737.42 123.611 740.13 128.131C742.93 132.811 748.79 134.791 753.83 135.801C760.27 137.121 766.93 137.471 773.45 138.051L777.24 138.981C778.682 139.429 779.887 140.429 780.592 141.764C781.297 143.099 781.444 144.659 781 146.101C778.655 154.171 775.429 161.958 771.38 169.321" stroke="black" stroke-width="4.11" stroke-miterlimit="10"/>
<path d="M771.4 200.31C771.4 200.31 751.56 214.84 740.25 206.83C728.94 198.82 735.33 175.34 735.33 175.34" stroke="black" stroke-width="4.11" stroke-linecap="round" stroke-linejoin="round"/>
<path d="M631.21 195.032C631.21 195.032 639.64 189.332 634.28 183.512C628.92 177.692 636.06 170.012 636.06 170.012" stroke="black" stroke-width="4.11" stroke-miterlimit="10"/>
<path d="M623.43 196.021C623.43 196.021 617.85 192.251 621.43 188.391C625.01 184.531 620.24 179.391 620.24 179.391" stroke="black" stroke-width="4.11" stroke-miterlimit="10"/>
<path d="M479.63 214.543C457.042 214.543 438.73 196.231 438.73 173.643C438.73 151.054 457.042 132.743 479.63 132.743C502.218 132.743 520.53 151.054 520.53 173.643C520.53 196.231 502.218 214.543 479.63 214.543Z" fill="#F8BAB4"/>
<path d="M466.18 159.982C466.757 158.652 467.533 157.418 468.48 156.322C470.101 154.405 472.365 153.144 474.848 152.776C477.331 152.408 479.863 152.958 481.97 154.322C483.344 155.218 484.493 156.42 485.326 157.834C486.158 159.248 486.653 160.835 486.77 162.472C488.923 161.683 491.274 161.615 493.469 162.279C495.663 162.942 497.583 164.302 498.937 166.152C500.292 168.002 501.008 170.242 500.978 172.535C500.948 174.827 500.173 177.048 498.77 178.862C495.84 182.682 490.86 185.192 486.35 186.652C483.985 187.409 481.549 187.925 479.08 188.192C477.83 188.332 470.7 189.292 470.08 188.192C465.63 181.232 462.47 168.482 466.18 159.982Z" fill="white"/>
<g opacity="0.72">
<path opacity="0.72" d="M377.69 156.712C365.252 156.712 355.17 146.63 355.17 134.192C355.17 121.755 365.252 111.672 377.69 111.672C390.127 111.672 400.21 121.755 400.21 134.192C400.21 146.63 390.127 156.712 377.69 156.712Z" fill="#F8BAB4"/>
<path opacity="0.72" d="M367.92 138.181C367.362 137.613 366.897 136.962 366.54 136.251C365.898 135.025 365.725 133.606 366.055 132.262C366.384 130.918 367.193 129.74 368.33 128.951C369.073 128.438 369.924 128.104 370.818 127.975C371.711 127.847 372.623 127.928 373.48 128.211C373.528 126.949 373.986 125.737 374.783 124.758C375.581 123.779 376.675 123.086 377.901 122.783C379.127 122.481 380.418 122.585 381.58 123.081C382.741 123.576 383.71 124.436 384.34 125.531C385.565 128.007 386.041 130.788 385.71 133.531C385.597 134.885 385.35 136.225 384.97 137.531C384.78 138.201 383.78 142.031 383.1 142.151C378.63 142.901 371.47 141.851 367.92 138.181Z" fill="white"/>
</g>
<path d="M409.961 240.537L420.666 263.174C424.548 271.382 421.041 281.182 412.833 285.064L390.197 295.769C381.989 299.651 372.188 296.143 368.306 287.935L357.601 265.299C353.72 257.091 357.227 247.29 365.435 243.409L388.071 232.704C396.279 228.822 406.08 232.329 409.961 240.537Z" fill="#F8BAB4"/>
<path d="M363.71 269.262L371.46 285.652C373.086 289.066 375.997 291.698 379.556 292.974C383.116 294.249 387.036 294.065 390.46 292.462L410.12 283.162C413.532 281.534 416.162 278.623 417.435 275.063C418.709 271.504 418.524 267.585 416.92 264.162L416.4 263.062C411.06 258.802 401.83 253.062 398.46 260.872C393.61 272.152 387.3 268.512 379.24 263.792C372.51 259.812 364.43 258.482 363.71 269.262Z" fill="white"/>
<path d="M394.16 251.843C390.819 251.843 388.11 249.134 388.11 245.793C388.11 242.451 390.819 239.743 394.16 239.743C397.501 239.743 400.21 242.451 400.21 245.793C400.21 249.134 397.501 251.843 394.16 251.843Z" fill="white"/>
<path d="M290.94 166.292C289.737 168.485 288.864 170.844 288.35 173.292C287.434 177.77 287.697 182.41 289.113 186.755C290.53 191.101 293.051 195.004 296.43 198.082C299.11 200.452 302.52 202.302 305.23 204.782C307.207 206.488 308.663 208.717 309.43 211.212C309.57 212.065 309.913 212.871 310.43 213.562C312.01 215.262 313.56 212.562 314.93 212.102C317.138 211.384 319.533 211.501 321.66 212.432C327.253 214.771 333.482 215.103 339.292 213.373C345.102 211.643 350.134 207.956 353.537 202.939C356.939 197.922 358.501 191.882 357.959 185.845C357.416 179.807 354.802 174.143 350.56 169.812C346.37 165.542 340.89 162.812 335.56 160.032C330.9 157.562 326.26 154.932 321.2 153.452C309.34 149.902 296.68 155.812 290.94 166.292Z" fill="#F8BAB4"/>
<path d="M338.7 197.182C335.552 197.182 333 194.63 333 191.482C333 188.334 335.552 185.782 338.7 185.782C341.848 185.782 344.4 188.334 344.4 191.482C344.4 194.63 341.848 197.182 338.7 197.182Z" fill="white"/>
<path d="M323.35 188.971C320.202 188.971 317.65 186.419 317.65 183.271C317.65 180.123 320.202 177.571 323.35 177.571C326.498 177.571 329.05 180.123 329.05 183.271C329.05 186.419 326.498 188.971 323.35 188.971Z" fill="white"/>
<path d="M308.95 181.272C305.802 181.272 303.25 178.72 303.25 175.572C303.25 172.424 305.802 169.872 308.95 169.872C312.098 169.872 314.65 172.424 314.65 175.572C314.65 178.72 312.098 181.272 308.95 181.272Z" fill="white"/>
<g opacity="0.54">
<path opacity="0.54" d="M273.91 36.961C274.052 38.712 274.322 40.4499 274.72 42.1609L279.22 61.681C280.6 67.681 282.15 73.961 286.43 78.341C294.43 86.501 307.73 84.6309 318.85 82.1609L346.15 76.1009C352.42 74.7109 358.79 73.281 364.41 70.171C370.03 67.061 374.91 61.971 376.21 55.681C377.21 51.041 376.14 46.241 375.12 41.621L371 22.8809C369.63 16.7409 368.09 10.2609 363.66 5.79095C355.77 -2.15905 342.66 -0.349044 331.76 2.02096L303.8 8.10094C286.94 11.7409 272.57 19.561 273.91 36.961Z" fill="#F8BAB4"/>
<path opacity="0.54" d="M311.56 37.4819C310.391 38.5689 309.528 39.9449 309.06 41.4709C308.591 42.9979 308.533 44.6209 308.89 46.1769C309.248 47.7329 310.01 49.1669 311.098 50.3359C312.186 51.5039 313.563 52.3649 315.09 52.8319L323.41 55.3819L331.73 57.9319C333.257 58.3989 334.88 58.4559 336.436 58.0969C337.991 57.7379 339.425 56.9769 340.594 55.8879C341.762 54.7999 342.623 53.4239 343.091 51.8969C343.559 50.3709 343.618 48.7479 343.26 47.1919L341.26 38.7119L339.31 30.2419C338.954 28.6849 338.194 27.2499 337.106 26.0799C336.018 24.9109 334.642 24.0479 333.115 23.5799C331.588 23.1109 329.965 23.0539 328.409 23.4119C326.852 23.7709 325.418 24.5329 324.25 25.6219L317.88 31.5519L311.56 37.4819Z" fill="white"/>
</g>
<path d="M863.52 696.274L0 696.274" stroke="black" stroke-width="4.11" stroke-miterlimit="10"/>
</svg>
