<svg width="613" height="906" viewBox="0 0 613 906" fill="none" xmlns="http://www.w3.org/2000/svg">
<path d="M181.44 808.641V830.641C181.435 831.803 181.03 832.928 180.292 833.826C179.554 834.724 178.529 835.34 177.39 835.571C177.062 835.648 176.727 835.685 176.39 835.681H24.6401" stroke="#CCDDE2" stroke-width="5.28" stroke-miterlimit="10"/>
<path d="M360.91 397.812C360.91 397.812 380.32 467.192 344.22 493.122C344.66 495.262 378.66 491.122 378.66 491.122L376.76 528.522C376.76 528.522 416 543.782 434.24 543.952C452.48 544.122 470.62 526.632 475.08 517.722C479.54 508.812 558.23 522.932 551.36 581.302C551.36 581.302 501.2 633.842 445.81 617.382C445.81 617.382 408.02 602.462 422.99 619.962C437.96 637.462 523.84 698.252 533.76 819.082C533.76 819.082 605.51 775.732 609.15 642.322C612.79 508.912 574.36 454.122 535.02 412.402C535.02 412.402 505.23 391.482 500.62 397.812C496.01 404.142 465.84 428.702 455.83 427.002C445.82 425.302 430.83 426.002 435.52 414.242C440.21 402.482 443.88 407.872 442.18 399.052C440.48 390.232 440.09 389.222 429.63 390.232C419.17 391.242 360.91 397.812 360.91 397.812Z" fill="#EC9A4A"/>
<path d="M189.49 808.651C180.49 817.421 171.31 826.471 162.23 835.651H70.0901C68.2731 835.721 66.4611 835.423 64.7631 834.776C63.0641 834.129 61.5131 833.146 60.2031 831.886C58.8931 830.625 57.8511 829.113 57.1391 827.44C56.4271 825.768 56.0601 823.969 56.0601 822.151C56.0601 820.333 56.4271 818.533 57.1391 816.861C57.8511 815.188 58.8931 813.676 60.2031 812.416C61.5131 811.155 63.0641 810.172 64.7631 809.525C66.4611 808.878 68.2731 808.581 70.0901 808.651H189.49Z" fill="#225560"/>
<path d="M544.92 317.259C544.9 319.579 544.75 321.896 544.47 324.199V324.269L540.03 339.519V339.629C530.28 360.509 508.33 370.089 496.85 373.829C494.456 374.619 492.023 375.287 489.56 375.829C486.5 365.969 487.66 356.319 493.68 347.689C496.32 343.929 500.2 341.139 502.42 337.129C504.53 333.359 504.74 328.849 501.57 325.649C500.522 324.584 499.293 323.714 497.94 323.079C496.787 322.475 495.512 322.145 494.211 322.114C492.91 322.083 491.62 322.351 490.44 322.899C489.99 323.149 489.56 323.359 489.14 323.569C484.14 320.079 487.59 315.009 489.14 310.679C489.33 310.16 489.484 309.629 489.6 309.089C489.594 309.042 489.594 308.995 489.6 308.949C490.06 307.469 493.44 295.079 484.67 284.189C483.957 283.315 483.33 282.374 482.8 281.379C481.917 279.728 481.405 277.904 481.302 276.035C481.198 274.166 481.505 272.297 482.2 270.559C483.506 267.421 485.534 264.635 488.12 262.429C490.759 260.103 494.012 258.585 497.49 258.059C512.84 260.139 529.08 272.989 530.14 273.869C530.151 273.873 530.163 273.876 530.175 273.876C530.187 273.876 530.199 273.873 530.21 273.869C539.01 283.999 545.1 298.209 544.92 317.259Z" fill="#F8BAB4"/>
<path d="M579.86 354.282C577.25 368.692 565.24 381.222 565.77 395.982C566.27 409.982 572.43 423.562 573.94 437.542C574.47 442.472 574.3 450.542 573.28 459.312C573.28 459.452 573.28 459.552 573.28 459.692C564.54 443.492 542.43 421.092 532.74 411.692C534.295 408.389 536.121 405.222 538.2 402.222C544.51 393.222 550.28 384.051 554.26 373.801C556.87 367.281 560.53 357.701 557.26 350.801C556.722 349.6 555.915 348.54 554.9 347.702C554.749 346.289 554.367 344.911 553.77 343.622C553.217 342.28 552.287 341.126 551.093 340.301C549.898 339.476 548.491 339.014 547.04 338.972C544.841 338.841 542.638 339.15 540.56 339.882V339.711V339.602C542.837 334.785 544.336 329.638 545 324.352V324.282C549.75 319.842 558.35 314.982 570.22 320.942C575.22 323.442 578.07 327.842 579.51 332.942C581.55 339.772 581.02 347.902 579.86 354.282Z" fill="#F8BAB4"/>
<path d="M497.09 705.632C470.61 666.502 439.93 632.832 410.6 605.222C403.38 598.462 396.26 592.002 389.29 586.002C374.96 573.532 361.29 562.682 349.11 553.522C338.627 545.63 325.798 541.486 312.679 541.754C299.56 542.023 286.911 546.688 276.76 555.002C271.508 559.244 267.049 564.384 263.59 570.182L119.36 808.652H70.0901C68.2731 808.582 66.4611 808.879 64.7631 809.526C63.0641 810.173 61.5131 811.156 60.2031 812.417C58.8931 813.677 57.8511 815.189 57.1391 816.862C56.4271 818.535 56.0601 820.334 56.0601 822.152C56.0601 823.97 56.4271 825.769 57.1391 827.442C57.8511 829.115 58.8931 830.626 60.2031 831.887C61.5131 833.147 63.0641 834.131 64.7631 834.777C66.4611 835.424 68.2731 835.722 70.0901 835.652H162.23C171.31 826.462 180.47 817.412 189.49 808.652C243.49 756.102 294.19 712.432 313.78 695.842" stroke="black" stroke-width="5.28" stroke-miterlimit="10"/>
<path d="M376.76 528.521C374.795 496.679 381.808 464.924 397 436.871" stroke="black" stroke-width="5.28" stroke-miterlimit="10"/>
<path d="M485.66 490.191C466.88 568.281 405.21 538.441 405.21 538.441L381.34 530.101L327.27 511.261C318.57 507.381 308.27 507.631 300.33 512.801C293.33 517.311 277.33 536.231 276.77 554.961" stroke="black" stroke-width="5.28" stroke-miterlimit="10"/>
<path d="M304.27 670.41C307.343 679.363 310.513 687.84 313.78 695.84C387.22 875.43 514.43 830.66 514.43 830.66C626.85 776.11 630.43 570.18 572.68 459.66C572.37 458.99 572.01 458.36 571.68 457.66C560.91 437.52 546.68 419.06 527.48 407.09C522.015 403.69 516.206 400.878 510.15 398.7C506.67 397.466 503.067 396.376 499.34 395.43" stroke="black" stroke-width="5.28" stroke-miterlimit="10"/>
<path d="M318.12 406.411C343.79 399.681 370.12 396.161 396.62 393.271C409.93 391.831 425.04 390.521 440.47 390.211" stroke="black" stroke-width="5.28" stroke-miterlimit="10"/>
<path d="M284.09 275.46C284.09 275.46 279.38 248.14 290.95 237.97C296.1 233.45 297.01 227.56 298.15 221.2C299.7 212.57 308.84 208.92 314.46 216.59C319.53 223.51 317.83 236.06 317.83 244.01" stroke="black" stroke-width="5.28" stroke-miterlimit="10"/>
<path d="M286.59 243.938C286.59 243.938 273.46 244.358 275.46 215.938V215.868C275.8 211.378 279.14 204.168 283.55 203.298L286.97 202.628C289.53 202.12 291.835 200.74 293.492 198.723C295.149 196.707 296.057 194.179 296.06 191.568V159.918C296.06 154.648 299.59 149.798 304.75 148.778C306.332 148.459 307.965 148.494 309.532 148.882C311.098 149.27 312.559 150.001 313.809 151.021C315.06 152.042 316.068 153.327 316.761 154.784C317.455 156.242 317.816 157.835 317.82 159.448L318.11 418.588" stroke="black" stroke-width="5.28" stroke-miterlimit="10"/>
<path d="M283.14 258.77C260.04 261.51 258.28 232.77 258.59 220.16C258.59 220.09 258.59 220.06 258.59 220.02" stroke="black" stroke-width="5.28" stroke-miterlimit="10"/>
<path d="M244.4 232.809C244.4 232.809 241.63 269.709 264.81 250.599" stroke="black" stroke-width="5.28" stroke-miterlimit="10"/>
<path d="M497.38 898.64C496.366 899.897 495.102 900.93 493.668 901.674C492.235 902.418 490.662 902.856 489.051 902.961C487.439 903.066 485.823 902.836 484.305 902.285C482.786 901.734 481.399 900.874 480.23 899.76C478.49 898.239 476.6 896.899 474.59 895.76C486.11 859.41 449.13 834.48 448.14 833.84C453.21 835.64 458.04 837.36 462.54 839.05C465.873 840.29 469.043 841.476 472.05 842.61C482.863 846.729 491.619 854.942 496.42 865.47C500.34 874 504.07 890.68 497.38 898.64Z" fill="#225560"/>
<path d="M571.66 457.719C598.56 495.899 578.5 549.149 551.4 581.299C514.51 625.069 461.09 629.649 410.6 605.219" stroke="black" stroke-width="5.28" stroke-miterlimit="10"/>
<path d="M502.32 397.809C497.24 390.319 491.37 381.809 489.51 375.809C486.45 365.959 487.61 356.309 493.65 347.669C496.28 343.909 500.14 341.119 502.39 337.089C504.5 333.319 504.7 328.819 501.53 325.609C498.78 322.819 494.32 320.939 490.4 322.869C487.06 324.509 485.27 326.319 481.4 323.639C475.64 319.639 480.79 313.639 481.72 309.029C481.88 308.269 482.04 307.509 482.24 306.719" stroke="black" stroke-width="5.28" stroke-miterlimit="10"/>
<path d="M434.28 358.398L443.88 407.818L445.85 418.008" stroke="black" stroke-width="5.28" stroke-miterlimit="10"/>
<path d="M443.17 404.059C435.17 411.839 427.95 422.799 445.54 426.379C469.02 431.159 494.47 406.249 502.32 397.809" stroke="black" stroke-width="5.28" stroke-miterlimit="10"/>
<path d="M458.54 269.631C458.54 269.631 463.72 251.911 485.01 252.111C506.3 252.311 545.38 269.461 544.94 317.271C544.5 365.081 489.49 375.831 489.49 375.831" stroke="black" stroke-width="5.28" stroke-miterlimit="10"/>
<path d="M379.76 75.802C379.756 89.364 375.962 102.656 368.807 114.177C361.652 125.698 351.42 134.991 339.265 141.007C327.11 147.023 313.515 149.523 300.015 148.226C286.515 146.928 273.646 141.883 262.86 133.662C250.821 120.156 244.247 102.648 244.42 84.556C244.594 66.464 251.503 49.0862 263.799 35.8135C276.094 22.5408 292.895 14.3262 310.921 12.7727C328.947 11.2192 346.905 16.4385 361.29 27.4118C373.209 40.7089 379.788 57.945 379.76 75.802Z" fill="#F8BAB4"/>
<path d="M530.25 273.85C530.25 273.85 497.5 247.2 480.33 262.35C480.33 262.35 467.49 272.6 476.82 284.18C486.15 295.76 481.7 309.1 481.7 309.1" stroke="black" stroke-width="5.28" stroke-miterlimit="10"/>
<path d="M539.96 339.811C544.26 338.401 550.42 337.621 553.17 343.541C556.45 350.481 552.78 360.061 550.17 366.541C546.17 376.791 540.41 385.981 534.11 394.971C531.473 398.778 529.241 402.85 527.45 407.121" stroke="black" stroke-width="5.28" stroke-miterlimit="10"/>
<path d="M572.68 459.691C572.68 459.551 572.68 459.451 572.68 459.311C573.68 450.541 573.88 442.471 573.35 437.541C571.83 423.541 565.67 410.001 565.18 395.981C564.65 381.221 576.66 368.691 579.26 354.281C581.26 343.221 581.45 326.741 569.65 320.861C557.85 314.981 549.19 319.771 544.43 324.201" stroke="black" stroke-width="5.28" stroke-miterlimit="10"/>
<path d="M453.17 359.188C446.49 360.108 439.75 360.308 434.28 358.398C423.58 354.608 417.69 342.638 426.56 311.458C437.64 272.508 469.48 264.138 480.25 262.458C479.434 262.423 478.62 262.574 477.87 262.898" stroke="black" stroke-width="5.28" stroke-miterlimit="10"/>
<path d="M457.187 296.728C463.828 289.487 467.224 281.795 464.774 279.548C462.323 277.301 454.954 281.35 448.313 288.591C441.673 295.833 438.276 303.525 440.727 305.772C443.177 308.019 450.547 303.97 457.187 296.728Z" stroke="black" stroke-width="5.28" stroke-miterlimit="10"/>
<path d="M481.24 310.681C473.545 305.743 466.234 300.231 459.37 294.191" stroke="black" stroke-width="5.28" stroke-miterlimit="10"/>
<path d="M191.07 806.18C188.89 820.76 197.38 848.27 289.37 853.7C399.29 860.18 456.37 884.58 474.59 895.7C476.599 896.836 478.486 898.177 480.22 899.7C481.39 900.815 482.778 901.675 484.297 902.226C485.816 902.777 487.433 903.007 489.046 902.902C490.658 902.797 492.231 902.359 493.666 901.615C495.1 900.871 496.365 899.838 497.38 898.58C504.07 890.58 500.38 873.89 496.38 865.4C491.576 854.87 482.817 846.657 472 842.54C469.007 841.407 465.837 840.22 462.49 838.98C457.99 837.29 453.16 835.57 448.09 833.77C434.68 828.98 419.53 823.77 403.68 818.77C389.52 814.33 374.84 810 360.36 806.23C358.99 805.88 357.69 805.52 356.36 805.23C338.15 800.61 320.36 796.99 304.72 795.16" stroke="black" stroke-width="5.28" stroke-miterlimit="10"/>
<path d="M360.35 806.29C368.348 804.054 376.51 802.453 384.76 801.5" stroke="black" stroke-width="5.28" stroke-miterlimit="10"/>
<path d="M258.61 226.088C258.4 223.948 258.1 221.258 256.83 219.458C255.07 216.948 252.31 219.718 251.05 221.308C244.13 230.018 241.3 241.198 238.5 251.748C235.938 261.433 234.05 271.283 232.85 281.228C230.52 300.228 230.52 319.488 230.35 338.638C229.993 360.044 230.958 381.452 233.24 402.738C236.93 438.878 250.07 475.118 288.07 486.348C315.69 494.558 348.07 494.168 378.66 491.068" stroke="black" stroke-width="5.28" stroke-miterlimit="10"/>
<path d="M258.52 222.138C258.419 219.74 259.061 217.37 260.356 215.349C261.652 213.329 263.539 211.757 265.76 210.848C269.85 209.318 275.55 210.438 275.43 215.748C275.435 215.811 275.435 215.875 275.43 215.938" stroke="black" stroke-width="5.28" stroke-miterlimit="10"/>
<path d="M306.92 148.56C347.115 148.56 379.7 115.975 379.7 75.78C379.7 35.5847 347.115 3 306.92 3C266.725 3 234.14 35.5847 234.14 75.78C234.14 115.975 266.725 148.56 306.92 148.56Z" stroke="black" stroke-width="5.28" stroke-miterlimit="10"/>
<path d="M0 835.621C3.82 835.621 208.48 835.621 208.48 835.621" stroke="black" stroke-width="5.28" stroke-miterlimit="10"/>
<path d="M462.54 839.051H600.01" stroke="black" stroke-width="5.28" stroke-miterlimit="10"/>
<path d="M393.02 70.52C397.32 73.97 399.71 77.81 399.71 81.79C399.71 86.58 396.3 91.08 390.2 95.1" stroke="black" stroke-width="5.28" stroke-miterlimit="10"/>
<path d="M343.36 109.469C339.45 109.999 335.36 110.469 331.25 110.809" stroke="black" stroke-width="5.28" stroke-miterlimit="10"/>
<path d="M289.19 111.23C295.19 111.62 301.34 111.83 307.65 111.83C312.37 111.83 317.02 111.72 321.56 111.48" stroke="black" stroke-width="5.28" stroke-miterlimit="10"/>
<path d="M219.95 72.629C217.17 75.549 215.65 78.629 215.65 81.789C215.65 87.699 220.9 93.159 229.92 97.849C240.59 103.379 256.65 107.669 275.7 109.959" stroke="black" stroke-width="5.28" stroke-miterlimit="10"/>
<path d="M99.3102 420.898H99.2402" stroke="#CCDDE2" stroke-width="5.28" stroke-miterlimit="10"/>
</svg>
