<svg width="686" height="816" viewBox="0 0 686 816" fill="none" xmlns="http://www.w3.org/2000/svg">
<path d="M569.4 534.768C568.177 534.624 566.962 534.418 565.76 534.148" stroke="#CCDDE2" stroke-width="5.21" stroke-miterlimit="10"/>
<path d="M599.69 473.91L589.9 528.66C589.627 530.195 588.822 531.585 587.626 532.586C586.43 533.586 584.919 534.133 583.36 534.13H532.19C530.615 534.13 529.092 533.571 527.89 532.553C526.689 531.535 525.888 530.124 525.63 528.57L516.63 473.91H599.69Z" stroke="#F8BAB4" stroke-width="5.21" stroke-miterlimit="10"/>
<path d="M609 467.801C608.864 469.466 608.107 471.019 606.879 472.151C605.65 473.283 604.041 473.912 602.37 473.911H514.09C512.44 473.911 510.848 473.297 509.626 472.188C508.404 471.078 507.639 469.554 507.48 467.911C507.389 466.989 507.493 466.057 507.784 465.177C508.074 464.297 508.546 463.488 509.169 462.801C509.792 462.114 510.551 461.565 511.399 461.19C512.246 460.815 513.163 460.621 514.09 460.621H602.37C603.288 460.622 604.195 460.813 605.035 461.182C605.876 461.551 606.631 462.089 607.253 462.763C607.876 463.437 608.352 464.233 608.653 465.1C608.953 465.967 609.072 466.886 609 467.801Z" stroke="#F8BAB4" stroke-width="5.21" stroke-miterlimit="10"/>
<path d="M560.99 460.611C560.99 457.811 568.12 422.881 562.21 391.901C558.97 374.901 551.8 359.111 537.39 350.461" stroke="#225560" stroke-width="5.21" stroke-miterlimit="10"/>
<path d="M562.19 391.898C562.19 391.898 563.82 368.368 584.19 366.738" stroke="#225560" stroke-width="5.21" stroke-miterlimit="10"/>
<path d="M564.37 427.809C570.159 423.756 577.132 421.743 584.19 422.089" stroke="#225560" stroke-width="5.21" stroke-miterlimit="10"/>
<path d="M564.37 411.1C564.37 411.1 549.6 393.6 525.99 407.44" stroke="#225560" stroke-width="5.21" stroke-miterlimit="10"/>
<path d="M553.97 404.061C553.97 404.061 520.7 373.661 514.19 414.761C514.19 414.761 523.55 420.871 537.39 414.761C551.23 408.651 553.97 404.061 553.97 404.061Z" stroke="#225560" stroke-width="5.21" stroke-miterlimit="10"/>
<path d="M569.53 373.911C569.53 373.911 568.32 360.231 584.19 355.751C600.06 351.271 609.02 370.001 609.02 370.001C609.02 370.001 596.79 383.521 569.53 373.911Z" stroke="#225560" stroke-width="5.21" stroke-miterlimit="10"/>
<path d="M573.19 422.069C573.19 422.069 572.65 408.239 591.1 411.069C609.55 413.899 612.54 429.659 612.54 429.659C612.54 429.659 582.31 440.739 573.19 423.499" stroke="#225560" stroke-width="5.21" stroke-miterlimit="10"/>
<path d="M550.97 363.25C550.97 364.25 537.09 362.01 536.21 361.75C529.49 359.75 524.72 355.09 521.58 348.93C520.58 347.02 515.02 336.31 516.58 334.45C516.6 334.45 549.61 323.83 550.97 363.25Z" stroke="#225560" stroke-width="5.21" stroke-miterlimit="10"/>
<path d="M461.92 207.469L432.62 240.219H412.52L382.07 259.669C375.803 258.543 369.369 258.738 363.182 260.243C356.994 261.748 351.19 264.53 346.14 268.409C332.83 278.409 291.82 318.949 271.02 323.409C266.02 311.479 259.59 300.089 256.02 295.029L401.52 225.029L408.19 207.469L450.38 190.469L461.92 207.469Z" fill="#F8BAB4"/>
<path d="M246.51 534.288L185.34 533.828C164.382 533.683 143.864 527.804 126.01 516.828C138.566 516.813 151.086 515.473 163.36 512.828C164.21 512.828 165.09 512.828 165.97 512.828C180.31 512.218 192.97 502.508 201.29 490.828C209.61 479.148 214.64 465.478 220.77 452.468C226.9 439.458 234.66 426.618 246.7 418.758C247.85 417.998 249.04 417.308 250.23 416.648C268.399 415.482 286.62 415.382 304.8 416.348C288.58 423.998 231.78 456.438 246.51 534.288Z" fill="#EC9A4A"/>
<path d="M314.01 373.781C314.01 373.781 308.01 392.051 327.06 399.211C346.11 406.371 344.38 398.931 344.36 411.681C344.36 411.681 348.2 417.201 340.28 417.381C332.36 417.561 300.71 412.601 288.72 414.181C276.73 415.761 254.72 414.791 276.12 408.501C297.52 402.211 311.49 391.841 314.01 373.781Z" fill="#EC9A4A"/>
<path d="M202.1 310.469C205.748 311.486 209.006 313.576 211.45 316.469C215.91 321.469 223.2 327.269 224.35 342.349C225.5 357.429 231.68 362.109 233.04 363.409C234.4 364.709 233.4 369.409 224.48 368.579C215.56 367.749 189.58 363.679 190.73 333.189C190.73 333.149 189.95 315.729 202.1 310.469Z" fill="#2E2E2E"/>
<path d="M165.66 513.479C153.386 516.124 140.866 517.464 128.31 517.479C128.15 517.359 127.96 517.289 127.81 517.169C117.328 516.906 106.886 515.779 96.59 513.799C55.36 505.929 -52.98 332.389 39.06 278.699C39.06 278.699 41.86 277.849 46.69 276.699C51.95 283.369 59.27 288.579 68.86 291.769C65.184 294.989 62.006 298.736 59.43 302.889C52.25 314.399 50.49 328.509 50.95 342.089C51.87 370.849 61.84 398.619 74.69 424.389C89.34 453.809 108.44 481.879 135.13 501.059C144.19 507.499 154.61 513.099 165.66 513.479Z" fill="#F8BAB4"/>
<path d="M95.97 140.349C95.97 140.349 95.47 142.769 101.75 143.219C108.03 143.669 134.68 144.879 137.56 174.219C140.44 203.559 125 240.519 134.04 242.739C143.08 244.959 162.7 250.139 168.5 246.539C174.3 242.939 206.5 222.289 242.64 236.259C242.64 236.259 248.34 241.839 248.48 226.059C248.62 210.279 250.69 184.739 239.82 188.239C228.95 191.739 221.82 185.829 218.67 199.659C215.52 213.489 187.75 201.489 187.75 201.489C187.75 201.489 170.27 186.999 160.8 158.999C151.33 130.999 127.19 131.499 119.33 132.629C111.47 133.759 95.97 140.349 95.97 140.349Z" fill="#EC9A4A"/>
<path d="M509.12 752.999C502.29 749.279 502.44 743.999 498.57 739.349L492.94 751.259C492.42 754.067 492.735 756.966 493.846 759.596C494.957 762.227 496.815 764.474 499.19 766.059L552.79 811.169C554.391 812.248 556.256 812.871 558.184 812.972C560.112 813.073 562.032 812.647 563.737 811.741C565.442 810.835 566.869 809.483 567.865 807.828C568.86 806.174 569.388 804.28 569.39 802.349C569.395 801.185 569.202 800.029 568.82 798.929L462.39 482.639C459.452 473.893 454.816 465.814 448.748 458.864C442.68 451.914 435.3 446.23 427.03 442.139C397.19 427.339 337.19 408.609 255.64 415.739" stroke="black" stroke-width="5.21" stroke-linecap="round" stroke-linejoin="round"/>
<path d="M498.57 739.38C461.02 688.06 406.57 602.92 396.08 570.16C385.08 536.03 354.24 534.69 324.44 535.42L187.64 534.42C166.487 534.29 145.782 528.317 127.81 517.16" stroke="black" stroke-width="5.21" stroke-linecap="round" stroke-linejoin="round"/>
<path d="M421.32 439.42C421.09 410.66 421.24 352.42 421.39 306.42C421.51 267.61 377.1 244.98 346.11 268.42C332.65 278.54 317.73 288.94 301.58 306.5" stroke="black" stroke-width="5.21" stroke-linecap="round" stroke-linejoin="round"/>
<path d="M349.37 371.691C349.37 371.691 341.19 394.631 345.19 418.061" stroke="black" stroke-width="5.21" stroke-linecap="round" stroke-linejoin="round"/>
<path d="M231.89 234.471H231.78C201.64 229.021 179.78 237.801 164.86 249.161" stroke="black" stroke-width="5.21" stroke-linecap="round" stroke-linejoin="round"/>
<path d="M46.69 276.66C41.86 277.84 39.06 278.66 39.06 278.66C-52.94 332.35 55.36 505.89 96.59 513.76C106.886 515.739 117.328 516.867 127.81 517.13C152.39 517.82 168.5 513.56 168.5 513.56" stroke="black" stroke-width="5.21" stroke-linecap="round" stroke-linejoin="round"/>
<path d="M111.93 324.711L168.5 443.601L180.72 427.301L129.31 324.711H111.93Z" stroke="black" stroke-width="5.21" stroke-linecap="round" stroke-linejoin="round"/>
<path d="M141.92 349.87L194.65 324.52V324.48L211.45 316.43" stroke="black" stroke-width="5.21" stroke-linecap="round" stroke-linejoin="round"/>
<path d="M382.04 259.67L412.53 240.22H432.63L461.93 207.47L450.39 190.48L408.2 207.47L401.49 225L255.98 295.03" stroke="black" stroke-width="5.21" stroke-linecap="round" stroke-linejoin="round"/>
<path d="M273.39 325.358L301.58 306.488" stroke="black" stroke-width="5.21" stroke-linecap="round" stroke-linejoin="round"/>
<path d="M227.52 356.039L212.11 366.359L165.74 397.389" stroke="black" stroke-width="5.21" stroke-linecap="round" stroke-linejoin="round"/>
<path d="M277.8 265.11C277.07 241.91 267.52 218.59 258.13 197.69C256.493 194.038 254.674 190.47 252.68 187" stroke="black" stroke-width="5.21" stroke-linecap="round" stroke-linejoin="round"/>
<path d="M212.11 148.83C220.2 172.38 231.36 216.48 197.26 205.83C151.26 191.45 175.21 120.96 111.93 133.69C111.793 133.729 111.652 133.753 111.51 133.76C111.484 133.752 111.456 133.752 111.43 133.76H111.35" stroke="black" stroke-width="5.21" stroke-linecap="round" stroke-linejoin="round"/>
<path d="M90.76 144.071C115.57 140.201 157.26 145.951 129.3 240.181" stroke="black" stroke-width="5.21" stroke-linecap="round" stroke-linejoin="round"/>
<path d="M247.04 238.11C249.923 221.548 249.324 204.567 245.28 188.25" stroke="black" stroke-width="5.21" stroke-linecap="round" stroke-linejoin="round"/>
<path d="M344.07 402.099C344.07 402.099 310.25 401.419 311.93 381.859" stroke="black" stroke-width="5.21" stroke-linecap="round" stroke-linejoin="round"/>
<path d="M311.36 415.172C311.36 415.172 231.66 444.282 248.82 534.872" stroke="black" stroke-width="5.21" stroke-linecap="round" stroke-linejoin="round"/>
<path d="M202.1 310.469C197.431 313.635 193.97 318.287 192.28 323.669C189.963 331.588 190.432 340.063 193.607 347.678C196.783 355.294 202.473 361.591 209.73 365.519C216.52 368.969 224.12 369.579 230.94 366.589C232.158 366.046 233.314 365.375 234.39 364.589" stroke="black" stroke-width="5.21" stroke-linecap="round" stroke-linejoin="round"/>
<path d="M301.57 306.488C305.477 315.618 308.692 325.027 311.19 334.638C311.307 334.964 311.397 335.298 311.46 335.638C311.85 337.138 312.19 338.638 312.54 340.198C312.92 342.008 313.3 343.768 313.65 345.568C313.73 346.148 313.84 346.718 313.92 347.298C313.936 347.401 313.936 347.506 313.92 347.608C313.99 348.028 314.07 348.448 314.15 348.908C314.22 349.638 314.34 350.408 314.49 351.208C314.47 351.297 314.47 351.389 314.49 351.478" stroke="black" stroke-width="5.21" stroke-linecap="round" stroke-linejoin="round"/>
<path d="M187.74 254.998C199.74 243.538 215.55 234.258 231.74 234.448H231.85C233.12 234.448 234.46 234.518 235.73 234.678C246.54 235.828 255.73 242.998 263.49 250.588C272.54 259.422 280.558 269.255 287.39 279.898" stroke="black" stroke-width="5.21" stroke-linecap="round" stroke-linejoin="round"/>
<path d="M313.97 347.3C313.986 347.402 313.986 347.507 313.97 347.61C314.04 348.03 314.12 348.45 314.2 348.91C315.81 361.68 315.73 373.46 310.25 385.27C305.61 395.27 295.25 401.57 285.32 405.36C273.16 410.01 259.89 412.27 249 419.36C237 427.22 229.21 440.07 223.07 453.07C216.93 466.07 211.95 479.73 203.59 491.43C195.23 503.13 182.59 512.83 168.27 513.43C156.27 513.89 144.87 507.98 135.09 500.97C108.4 481.79 89.3 453.72 74.65 424.3C61.8 398.53 51.83 370.76 50.91 342C50.45 328.42 52.21 314.31 59.39 302.8C61.966 298.647 65.144 294.899 68.82 291.68" stroke="black" stroke-width="5.21" stroke-linecap="round" stroke-linejoin="round"/>
<path d="M248.82 534.871H5.49998" stroke="black" stroke-width="5.21" stroke-linecap="round" stroke-linejoin="round"/>
<path d="M625.85 534.871H480.11" stroke="black" stroke-width="5.21" stroke-linecap="round" stroke-linejoin="round"/>
<path d="M304.72 82.862V142.322C304.732 148.107 303.021 153.765 299.805 158.574C296.588 163.383 292.012 167.124 286.66 169.322C272.43 175.122 253.59 181.642 222.44 182.752V140.352C230.9 143.742 240.66 141.582 247.44 135.472C248.89 134.172 250.31 132.912 251.64 131.802C256.85 127.292 261.08 124.382 263.21 125.192C267.63 126.822 268.21 126.822 270.93 112.502C272.93 102.192 289.61 90.792 293.63 71.842C294.458 67.899 294.688 63.853 294.31 59.842C293.834 54.923 292.659 50.098 290.82 45.512C288.149 38.652 284.439 32.243 279.82 26.512L288.47 35.372C289.27 36.212 290.04 37.042 290.75 37.912C301.36 50.292 304.72 66.252 304.72 82.862Z" fill="#225560"/>
<path d="M294.04 69.5178C293.94 70.3178 293.79 71.0978 293.64 71.8378C291.72 71.7078 286.23 72.4778 279.93 76.1278C275.523 78.6678 271.635 82.0158 268.47 85.9978C263.66 91.9978 240.56 118.168 221.39 139.808L214.29 147.808C213.246 148.985 211.958 149.919 210.515 150.545C209.072 151.171 207.51 151.474 205.938 151.432C204.365 151.39 202.821 151.004 201.414 150.302C200.006 149.6 198.769 148.599 197.79 147.368L150.62 88.2678C147.513 84.3378 146.024 79.3698 146.455 74.3778C146.886 69.3868 149.205 64.7478 152.94 61.4078L195.49 23.4078L197.19 21.9978C198.02 21.3878 198.85 20.7978 199.67 20.2278C226.26 3.40782 252.41 5.16782 271.67 18.1378L279.85 26.5278C284.469 32.2598 288.18 38.6678 290.85 45.5278C294.44 54.6978 295.09 62.5978 294.04 69.5178Z" fill="#225560"/>
<path d="M279.83 26.5399L271.65 18.1499L271.19 17.6799C271.261 17.7109 271.325 17.7549 271.38 17.8099L272.15 18.4899C274.854 20.8679 277.353 23.4709 279.62 26.2699C279.68 26.3599 279.77 26.4499 279.83 26.5399Z" fill="#3FBDF1"/>
<path d="M277.19 22.3088C277.261 22.3388 277.326 22.3828 277.38 22.4388C280.379 25.0008 283.137 27.8328 285.62 30.8988C285.68 30.9888 285.78 31.0788 285.84 31.1688L277.19 22.3088Z" fill="#3FBDF1"/>
<path d="M201.32 162.481C206.32 156.831 213.55 148.711 221.32 139.851C240.56 118.211 263.66 92.0009 268.47 86.0009C278.47 73.6509 290.58 71.6109 293.64 71.8009" stroke="black" stroke-width="5.21" stroke-linecap="round" stroke-linejoin="round"/>
<path d="M221.36 139.85C221.701 140.035 222.052 140.201 222.41 140.35C230.87 143.74 240.63 141.58 247.41 135.47C254.54 129.05 260.5 124.17 263.18 125.19C267.6 126.82 268.18 126.82 270.9 112.5C272.9 102.19 289.58 90.7899 293.6 71.8399C295.17 64.3599 294.8 55.7199 290.79 45.5299C288.116 38.6709 284.406 32.2639 279.79 26.5299C279.72 26.4399 279.63 26.3499 279.57 26.2599C277.087 23.1949 274.329 20.3629 271.33 17.7999C271.275 17.7449 271.211 17.7009 271.14 17.6699C250.08 -0.200111 218.47 -3.41011 187.04 20.1699C186.48 20.6099 185.93 21.0699 185.4 21.5299L142.86 59.5299C139.125 62.8629 136.805 67.4969 136.374 72.4839C135.942 77.4719 137.433 82.4349 140.54 86.3599L201.27 162.43" stroke="black" stroke-width="5.21" stroke-linecap="round" stroke-linejoin="round"/>
<path d="M265.93 89.6199C265.93 89.6199 270.17 88.99 274.42 92.85" stroke="black" stroke-width="5.21" stroke-linecap="round" stroke-linejoin="round"/>
<path d="M265.286 99.691C266.944 97.759 267.306 95.35 266.095 94.31C264.883 93.271 262.557 93.995 260.899 95.927C259.242 97.859 258.879 100.268 260.091 101.308C261.302 102.347 263.628 101.623 265.286 99.691Z" fill="black"/>
<path d="M271.19 17.6799L279.84 26.5399L288.48 35.3999C300.86 48.0899 304.72 65.1099 304.72 82.8599V149.79C304.732 155.575 303.021 161.233 299.805 166.042C296.588 170.851 292.012 174.592 286.66 176.79C272.43 182.59 253.59 189.11 222.44 190.22V140.35" stroke="black" stroke-width="5.21" stroke-linecap="round" stroke-linejoin="round"/>
<path d="M251.63 131.789C251.63 131.789 244.7 134.119 242.63 124.859" stroke="black" stroke-width="5.21" stroke-linecap="round" stroke-linejoin="round"/>
<path d="M165.94 118.172L157.48 128.392C156.738 129.283 155.788 129.977 154.713 130.414C153.639 130.85 152.473 131.014 151.32 130.892C145.54 130.332 139.75 130.072 133.98 130.072C46.73 130.072 -10.57 288.122 86.04 294.992C180.73 301.702 218.36 297.562 225.04 346.762C226.61 358.352 233.63 369.762 246.78 365.332C263.16 359.842 273.55 340.052 270.95 323.412C268.3 306.492 255.53 292.342 242.6 282.062C217.18 261.932 186.07 253.382 154.85 247.062C144.73 245.062 112.55 242.382 122.75 225.002" stroke="black" stroke-width="5.21" stroke-linecap="round" stroke-linejoin="round"/>
<path d="M260.25 393.16H257.51V389.76H260.25C261.178 389.76 262.069 389.391 262.725 388.735C263.381 388.079 263.75 387.188 263.75 386.26V362.93L288.31 352.41V378.41C288.31 380.267 287.573 382.047 286.26 383.36C284.947 384.673 283.167 385.41 281.31 385.41H278.1V382H281.31C282.262 382 283.175 381.622 283.849 380.949C284.522 380.275 284.9 379.362 284.9 378.41V357.56L267.19 365.18V386.26C267.189 387.169 267.008 388.069 266.658 388.908C266.309 389.748 265.797 390.509 265.152 391.15C264.507 391.791 263.742 392.299 262.901 392.644C262.06 392.989 261.159 393.164 260.25 393.16Z" fill="#225560"/>
<path d="M255.72 395.15C257.758 395.15 259.41 393.497 259.41 391.46C259.41 389.422 257.758 387.77 255.72 387.77C253.682 387.77 252.03 389.422 252.03 391.46C252.03 393.497 253.682 395.15 255.72 395.15Z" fill="#225560"/>
<path d="M278.2 387.778C280.238 387.778 281.89 386.126 281.89 384.088C281.89 382.051 280.238 380.398 278.2 380.398C276.162 380.398 274.51 382.051 274.51 384.088C274.51 386.126 276.162 387.778 278.2 387.778Z" fill="#225560"/>
<g opacity="0.54">
<path opacity="0.54" d="M485.29 183.658L481.04 185.438L478.82 180.148L483.08 178.368C484.523 177.763 485.666 176.61 486.258 175.162C486.851 173.715 486.844 172.091 486.24 170.648L470.09 132.078L474.47 132.148C475.21 132.148 492.69 132.618 503.57 147.148L498.98 150.588C492.92 142.518 484.25 139.588 478.98 138.528L491.52 168.528C492.681 171.362 492.678 174.54 491.512 177.372C490.346 180.205 488.11 182.463 485.29 183.658Z" fill="#225560"/>
<path opacity="0.54" d="M477.14 190.178C480.57 190.178 483.35 187.397 483.35 183.968C483.35 180.538 480.57 177.758 477.14 177.758C473.71 177.758 470.93 180.538 470.93 183.968C470.93 187.397 473.71 190.178 477.14 190.178Z" fill="#225560"/>
</g>
<g opacity="0.46">
<path opacity="0.46" d="M342.19 218.87H337.56V213.12H342.19C343.759 213.117 345.264 212.493 346.373 211.383C347.483 210.274 348.107 208.769 348.11 207.2V167.75L389.64 150V194C389.635 197.135 388.386 200.14 386.169 202.356C383.951 204.572 380.945 205.817 377.81 205.82H372.38V200H377.81C378.607 200 379.396 199.843 380.133 199.538C380.869 199.233 381.538 198.786 382.102 198.222C382.666 197.658 383.113 196.989 383.418 196.253C383.723 195.516 383.88 194.727 383.88 193.93V158.67L353.88 171.55V207.2C353.879 208.734 353.575 210.252 352.987 211.669C352.399 213.086 351.537 214.372 350.452 215.456C349.366 216.54 348.078 217.399 346.66 217.985C345.243 218.571 343.724 218.871 342.19 218.87Z" fill="#225560"/>
<path opacity="0.46" d="M334.51 222.222C337.951 222.222 340.74 219.432 340.74 215.992C340.74 212.551 337.951 209.762 334.51 209.762C331.069 209.762 328.28 212.551 328.28 215.992C328.28 219.432 331.069 222.222 334.51 222.222Z" fill="#225560"/>
<path opacity="0.46" d="M372.54 209.761C375.981 209.761 378.77 206.972 378.77 203.531C378.77 200.09 375.981 197.301 372.54 197.301C369.099 197.301 366.31 200.09 366.31 203.531C366.31 206.972 369.099 209.761 372.54 209.761Z" fill="#225560"/>
</g>
<path d="M526.42 265.139L524.52 267.379L521.74 264.999L523.64 262.759C523.959 262.384 524.202 261.949 524.353 261.48C524.504 261.011 524.562 260.517 524.522 260.025C524.482 259.534 524.345 259.055 524.12 258.617C523.895 258.178 523.586 257.788 523.21 257.469L504.13 241.269L512.58 213.859L533.85 231.919C535.365 233.209 536.308 235.047 536.471 237.03C536.634 239.013 536.004 240.98 534.72 242.499L532.48 245.129L529.7 242.759L531.93 240.139C532.258 239.754 532.507 239.308 532.662 238.826C532.817 238.345 532.876 237.837 532.835 237.333C532.795 236.829 532.655 236.338 532.424 235.887C532.193 235.437 531.876 235.037 531.49 234.709L514.49 220.229L508.38 240.039L525.62 254.679C526.36 255.313 526.968 256.087 527.409 256.956C527.85 257.824 528.115 258.772 528.19 259.743C528.264 260.715 528.146 261.692 527.842 262.618C527.539 263.544 527.055 264.401 526.42 265.139Z" fill="#225560"/>
<path d="M521.88 271.619C524.062 271.619 525.83 269.85 525.83 267.669C525.83 265.487 524.062 263.719 521.88 263.719C519.698 263.719 517.93 265.487 517.93 267.669C517.93 269.85 519.698 271.619 521.88 271.619Z" fill="#225560"/>
<path d="M531.47 248.099C533.652 248.099 535.42 246.331 535.42 244.149C535.42 241.968 533.652 240.199 531.47 240.199C529.289 240.199 527.52 241.968 527.52 244.149C527.52 246.331 529.289 248.099 531.47 248.099Z" fill="#225560"/>
<path d="M600.62 322.61L595.07 320.75L597.39 313.84L602.94 315.71C603.872 316.024 604.857 316.151 605.839 316.084C606.821 316.018 607.779 315.758 608.661 315.321C609.542 314.883 610.328 314.277 610.975 313.535C611.622 312.794 612.116 311.932 612.43 311L628.35 263.68L685.35 259.09L667.6 311.86C666.327 315.626 663.61 318.733 660.047 320.497C656.485 322.262 652.367 322.539 648.6 321.27L642.19 319.08L644.51 312.17L651.03 314.37C652.962 315.015 655.071 314.869 656.896 313.964C658.721 313.059 660.114 311.468 660.77 309.54L675 267.24L633.76 270.56L619.37 313.33C618.749 315.171 617.771 316.871 616.492 318.333C615.213 319.796 613.659 320.993 611.918 321.854C610.176 322.716 608.282 323.226 606.344 323.356C604.405 323.486 602.46 323.232 600.62 322.61Z" fill="#225560"/>
<path d="M592.58 323.96C596.938 323.96 600.47 320.427 600.47 316.07C600.47 311.712 596.938 308.18 592.58 308.18C588.222 308.18 584.69 311.712 584.69 316.07C584.69 320.427 588.222 323.96 592.58 323.96Z" fill="#225560"/>
<path d="M643.24 324.358C647.597 324.358 651.13 320.826 651.13 316.468C651.13 312.111 647.597 308.578 643.24 308.578C638.882 308.578 635.35 312.111 635.35 316.468C635.35 320.826 638.882 324.358 643.24 324.358Z" fill="#225560"/>
<path d="M469.46 330L466.38 328.3L468.49 324.47L471.57 326.17C472.614 326.746 473.843 326.884 474.989 326.554C476.135 326.224 477.102 325.453 477.68 324.41L493.08 296.5L495.08 299.16C495.42 299.61 503.42 310.27 499.92 323.62L495.69 322.5C497.114 316.538 496.31 310.261 493.43 304.85L481.43 326.52C480.292 328.556 478.398 330.062 476.158 330.713C473.918 331.365 471.512 331.108 469.46 330Z" fill="#225560"/>
<path d="M465.42 330C468.038 330 470.16 327.877 470.16 325.26C470.16 322.642 468.038 320.52 465.42 320.52C462.802 320.52 460.68 322.642 460.68 325.26C460.68 327.877 462.802 330 465.42 330Z" fill="#225560"/>
<g opacity="0.56">
<path opacity="0.56" d="M385.96 350.731L381.77 352.731L378.6 346.001C376.593 347.114 374.375 347.795 372.09 348.001C370.176 348.168 368.251 347.856 366.489 347.091C364.728 346.326 363.184 345.133 362 343.621C359.89 341.041 358.56 337.621 357.94 333.121C356.72 324.341 358.48 315.651 360.8 308.221L358.19 302.641C357.43 301.041 356.19 298.361 357.19 295.641C357.57 294.752 358.159 293.968 358.908 293.356C359.656 292.744 360.541 292.322 361.488 292.125C362.435 291.929 363.415 291.964 364.345 292.228C365.275 292.492 366.128 292.977 366.83 293.641C369.83 296.821 368.1 301.511 367.35 303.511C366.84 304.901 366.35 306.371 365.81 307.901L373.02 323.221C377.02 320.411 382.6 321.301 386.07 325.281C389.25 328.921 389.42 333.941 386.53 338.701C385.45 340.458 384.1 342.034 382.53 343.371L385.96 350.731ZM363.82 314.611C362.279 320.428 361.842 326.483 362.53 332.461C363.03 336.071 364.03 338.751 365.59 340.651C366.31 341.582 367.252 342.316 368.33 342.786C369.409 343.257 370.588 343.447 371.76 343.341C373.474 343.176 375.133 342.651 376.63 341.801L372.55 333.131C372.47 333.551 372.4 333.991 372.35 334.441L367.74 333.901C368.006 331.535 368.683 329.234 369.74 327.101L363.82 314.611ZM375.03 327.521L380.41 339.001C381.222 338.193 381.934 337.29 382.53 336.311C383.39 334.901 385.12 331.311 382.53 328.311C380.9 326.451 377.96 325.311 375.63 327.011C375.415 327.162 375.214 327.333 375.03 327.521ZM362.03 296.741C361.92 296.782 361.819 296.845 361.733 296.926C361.647 297.007 361.578 297.104 361.53 297.211C361.22 298.051 361.81 299.431 362.39 300.661L362.97 301.901C363.6 300.191 364.34 297.801 363.43 296.841C363.289 296.734 363.126 296.66 362.953 296.625C362.78 296.591 362.601 296.596 362.43 296.641C362.289 296.656 362.151 296.689 362.02 296.741H362.03Z" fill="#225560"/>
</g>
<path d="M573.38 226.14L568.38 222.49L574.21 214.49C571.642 212.84 569.446 210.674 567.76 208.13C566.347 206 565.487 203.551 565.258 201.006C565.029 198.46 565.439 195.897 566.45 193.55C568.12 189.44 571.29 185.7 576.13 182.12C585.62 175.12 596.9 171.63 607.06 169.6L611.88 163.02C613.28 161.11 615.61 157.93 619.42 157.35C620.706 157.212 622.007 157.391 623.208 157.871C624.41 158.351 625.476 159.117 626.314 160.102C627.152 161.088 627.736 162.264 628.016 163.527C628.296 164.79 628.263 166.102 627.92 167.35C626.13 172.89 619.53 173.84 616.72 174.25C614.72 174.53 612.72 174.85 610.61 175.25L597.29 193.44C603.11 196.32 605.64 203.44 603.2 210C600.96 216 595.2 219.44 587.79 219.08C585.05 218.931 582.351 218.354 579.79 217.37L573.38 226.14ZM601.5 177.26C594.03 179.26 586.38 182.26 579.82 187.12C575.92 190 573.43 192.87 572.2 195.91C571.565 197.341 571.304 198.91 571.44 200.47C571.577 202.03 572.106 203.53 572.98 204.83C574.257 206.729 575.924 208.335 577.87 209.54L585.41 199.25C584.87 199.43 584.32 199.63 583.76 199.85L581.46 194.12C584.384 192.923 587.494 192.246 590.65 192.12L601.5 177.26ZM593.55 198.58L583.62 212.15C585.082 212.577 586.589 212.835 588.11 212.92C590.31 213.02 595.62 212.74 597.43 207.86C598.57 204.78 597.98 200.64 594.55 198.96C594.227 198.807 593.893 198.68 593.55 198.58ZM621.25 163.77C621.005 163.571 620.696 163.467 620.38 163.48C619.2 163.66 617.96 165.23 616.89 166.69L615.82 168.16C618.22 167.82 621.48 167.16 622.03 165.48C622.066 165.238 622.044 164.99 621.968 164.758C621.891 164.525 621.762 164.314 621.59 164.14C621.489 164.005 621.375 163.882 621.25 163.77Z" fill="#225560"/>
</svg>
