<svg width="614" height="635" viewBox="0 0 614 635" fill="none" xmlns="http://www.w3.org/2000/svg">
<path fill-rule="evenodd" clip-rule="evenodd" d="M569.764 511.088C684.613 408.616 536.334 350.145 563.662 263.549C590.99 176.953 660.161 46.7229 402.07 69.667C143.978 92.611 -70.2914 353.282 21.7193 475.964C113.73 598.645 454.915 613.561 569.764 511.088Z" fill="black"/>
<path fill-rule="evenodd" clip-rule="evenodd" d="M356.699 301.009C364.155 304.629 371.61 308.25 379.066 311.87C390.811 317.573 402.759 323.414 412.229 332.383C421.699 341.352 428.474 354.11 427.054 367.051C425.385 382.263 413.321 393.983 401.992 404.315C387.225 417.785 372.458 431.254 357.69 444.723C351.219 450.626 344.132 459.031 347.617 467.053C356.669 487.887 364.868 511.586 356.637 532.756C354.313 538.733 349.502 544.903 343.076 544.609C338.294 544.39 334.502 540.645 331.426 536.99C319.201 522.463 310.129 505.315 305.011 487.055C298.457 463.674 299.257 436.273 315.207 417.923C327.601 403.663 348.957 394.074 350.276 375.257C326.13 354.826 291.2 347.864 261.024 357.467C230.848 367.07 206.435 392.916 198.644 423.509C194.401 440.17 203.899 457.321 215.581 469.968C227.264 482.616 241.595 493.101 250.584 507.772C268.662 537.277 260.77 575.059 252.311 608.585C249.375 620.219 231.661 622.16 222.843 613.993C214.024 605.826 212.506 592.485 213.44 580.525C214.375 568.565 217.177 556.476 214.827 544.711C208.76 514.346 173.087 500.484 155.606 474.888C142.358 455.489 140.533 430.108 145.438 407.158C150.344 384.209 161.313 363.066 172.166 342.242C151.97 311.436 143.492 273.198 148.782 236.782C151.451 218.407 127.178 204.269 129.706 185.875C131.723 171.194 149.009 164.565 163.62 161.803C191.43 156.546 219.868 154.603 248.137 156.028C254.458 156.346 257.239 147.197 254.074 141.737C250.908 136.276 244.727 133.465 239.608 129.757C229.295 122.287 222.815 110.51 219.242 98.315C214.657 82.665 214.648 64.895 223.164 50.973C225.292 47.4943 228.951 42.3377 234.518 47.3347C236.189 38.6127 253.922 30.2296 265.26 34.912C272.055 37.7184 279.296 31.9631 283.615 26.0296C287.933 20.096 292.111 12.9311 299.287 11.3211C312.137 8.43808 320.367 25.5716 318.887 38.6127C317.407 51.654 311.651 65.431 317.302 77.286C319.451 81.793 323.173 85.696 323.886 90.635C324.505 94.92 323.396 93.249 320.983 103.114C318.571 112.978 312.759 116.147 310.363 121.604C306.675 130.004 307.229 137.382 299.523 144.817C298.226 146.068 300.867 148.935 299.934 151.059C318.913 151.33 333.331 167.1 348.021 179.077C366.289 193.972 388.637 204.392 412.155 206.413C435.673 208.434 460.283 201.559 477.842 185.84C484.716 179.687 501.113 187.726 502.31 178.596C502.54 176.231 501.91 175.212 499.663 174.63C498.499 174.329 495.748 174.955 494.894 173.86C492.391 170.651 506.972 165.118 506.356 169.525C506.198 170.654 505.535 171.488 505.619 172.219C505.864 174.345 507.078 175.001 508.952 175.376C512.904 175.622 518.565 172.922 520.928 169.525C522.511 167.25 521.894 166.646 520.652 166.546C518.622 166.381 514.923 167.562 516.438 164.979C518.302 161.803 523.105 158.791 527.674 161.556C528.661 162.153 528.314 163.312 527.808 164.45C526.88 166.539 525.416 168.558 530.662 166.916C538.769 164.379 539.233 164.854 541.328 165.474C543.422 166.094 546.498 169.775 548.466 173.214C552.517 180.289 556.672 187.71 557.051 195.847C557.43 203.984 552.719 212.982 544.708 214.609C544.637 216.977 545.799 219.208 547.562 220.777C549.483 222.487 554.422 221.445 553.592 222.973C550.896 227.937 544.331 229.21 539.163 227.473C537.744 226.996 541.018 224.553 541.328 222.86C541.824 220.149 541.26 217.23 539.602 215.015C534.928 216.986 530.253 218.957 525.578 220.929C526.936 222.657 526.317 224.709 527.674 226.437C528.955 228.069 532.243 227.656 532.794 229.972C533.393 232.491 528.539 233.548 526.031 233.783C523.282 234.041 519.005 234.323 517.724 232.491C516.269 230.408 520.829 229.741 521.04 227.562C521.27 225.183 520.397 222.641 518.302 221.49C514.287 219.285 508.527 223.345 509.276 227.851C511.164 239.204 506.443 251.411 497.398 258.566C488.353 265.721 475.35 267.534 464.681 263.128C455.034 259.144 444.349 264.269 434.367 267.323C411.737 274.249 385.914 269.832 366.897 255.783C365.799 271.488 362.781 288.499 352.706 300.079C354.34 301.009 353.5 301.009 356.699 301.009Z" fill="white"/>
<path d="M256.038 130.983C259.076 130.983 261.538 128.529 261.538 125.501C261.538 122.473 259.076 120.019 256.038 120.019C253 120.019 250.538 122.473 250.538 125.501C250.538 128.529 253 130.983 256.038 130.983Z" fill="#F5C754"/>
<path d="M295.5 120C298.538 120 301 117.538 301 114.5C301 111.462 298.538 109 295.5 109C292.462 109 290 111.462 290 114.5C290 117.538 292.462 120 295.5 120Z" fill="#F5C754"/>
<path fill-rule="evenodd" clip-rule="evenodd" d="M327.621 359.487C325.145 358.377 322.665 357.266 320.17 356.184C301.904 348.26 279.995 342.561 262.761 352.518C260.129 335.765 278.155 322.97 294.743 319.18C299.293 318.14 303.987 317.403 308.682 316.666C321.105 314.715 333.531 312.763 343.283 305.211C357.762 293.998 361.623 274.011 362.897 255.783C381.914 269.832 407.737 274.249 430.367 267.323C432.095 266.795 433.843 266.204 435.603 265.609C444.016 262.768 452.704 259.833 460.681 263.128C471.35 267.534 484.353 265.721 493.398 258.566C502.443 251.411 507.164 239.204 505.276 227.851C504.527 223.345 510.287 219.285 514.302 221.49C516.397 222.641 517.27 225.183 517.04 227.562C516.946 228.537 515.98 229.21 515.072 229.842C513.952 230.622 512.92 231.34 513.724 232.491C515.005 234.323 519.282 234.041 522.031 233.783C524.539 233.548 529.393 232.491 528.794 229.972C528.478 228.645 527.264 228.214 526.043 227.781C525.134 227.458 524.221 227.134 523.674 226.437C522.996 225.573 522.811 224.628 522.626 223.683C522.442 222.738 522.257 221.793 521.578 220.929L535.602 215.015C537.26 217.23 537.824 220.149 537.328 222.86C537.194 223.588 536.513 224.455 535.893 225.244C535.07 226.291 534.354 227.201 535.163 227.473C540.331 229.21 546.896 227.937 549.592 222.973C550.014 222.196 548.944 222.084 547.538 221.936C546.179 221.793 544.506 221.617 543.562 220.777C541.799 219.208 540.637 216.977 540.708 214.609C548.719 212.982 553.43 203.984 553.051 195.847C552.672 187.71 548.517 180.289 544.466 173.214C542.498 169.775 539.422 166.094 537.328 165.474C537.198 165.436 537.074 165.398 536.954 165.361C535.146 164.807 534.265 164.537 526.662 166.916C521.953 168.39 522.65 166.914 523.514 165.086C523.612 164.877 523.713 164.664 523.808 164.45C524.314 163.312 524.661 162.153 523.674 161.556C519.105 158.791 514.302 161.803 512.438 164.979C511.325 166.876 513.024 166.743 514.81 166.604C515.456 166.553 516.113 166.502 516.652 166.546C517.894 166.646 518.511 167.25 516.928 169.525C514.565 172.922 508.904 175.622 504.952 175.376C503.078 175.001 501.864 174.345 501.619 172.219C501.574 171.83 501.741 171.412 501.93 170.937C502.097 170.518 502.282 170.054 502.356 169.525C502.972 165.118 488.391 170.651 490.894 173.86C491.451 174.574 492.813 174.557 494.016 174.541C494.66 174.533 495.258 174.526 495.663 174.63C497.91 175.212 498.54 176.23 498.31 178.596C497.657 183.581 492.471 183.447 486.778 183.3C482.045 183.178 476.962 183.047 473.842 185.84C456.283 201.559 431.673 208.434 408.155 206.413C384.637 204.392 362.289 193.972 344.021 179.077C341.499 177.021 338.986 174.853 336.456 172.672C324.247 162.143 311.656 151.284 295.934 151.059C296.396 150.008 295.983 148.775 295.604 147.647C295.218 146.494 294.868 145.449 295.523 144.817C299.582 140.901 301.655 133.274 303.451 126.668C305.064 120.731 306.454 115.62 308.858 114.771C313.669 113.072 315.08 108.83 316.708 103.938C316.799 103.665 316.891 103.39 316.983 103.114C317.539 101.458 318.034 100.12 318.456 98.981C319.748 95.496 320.352 93.864 319.886 90.635C319.421 87.415 317.677 84.635 315.923 81.841C314.988 80.349 314.05 78.854 313.302 77.286C309.191 68.661 311.117 59.02 313.042 49.384C313.763 45.7747 314.483 42.1663 314.887 38.6127C316.367 25.5716 308.137 8.43808 295.287 11.3211C289.025 12.726 285.047 18.3602 281.265 23.7154C280.713 24.4974 280.165 25.2735 279.615 26.0296C275.296 31.9631 268.055 37.7184 261.26 34.912C249.922 30.2296 232.189 38.6127 230.518 47.3347C224.951 42.3377 221.292 47.4943 219.164 50.973C210.648 64.895 210.657 82.665 215.242 98.315C218.815 110.51 225.295 122.287 235.608 129.757C236.919 130.707 238.3 131.598 239.682 132.489C243.695 135.079 247.719 137.675 250.074 141.737C253.239 147.197 250.458 156.346 244.137 156.028C215.868 154.603 187.43 156.546 159.62 161.803C145.009 164.565 127.723 171.194 125.706 185.875C124.445 195.052 129.855 203.17 135.262 211.283C140.692 219.431 146.119 227.575 144.782 236.782C139.492 273.198 147.97 311.436 168.166 342.242C157.313 363.066 146.344 384.209 141.438 407.158C136.533 430.108 138.358 455.489 151.606 474.888C158.51 484.997 168.252 493.276 177.886 501.463C192.647 514.007 207.156 526.338 210.827 544.711C212.552 553.347 211.501 562.159 210.45 570.966C210.069 574.156 209.689 577.345 209.44 580.525C208.506 592.485 210.024 605.826 218.843 613.993C223.878 618.656 231.813 620.024 238.242 618.173C238.187 619.157 238.13 620.072 238.076 620.933C237.784 625.624 237.592 628.701 238.417 632.348C238.632 633.298 238.982 634.38 239.895 634.726C241.713 635.414 242.926 632.64 242.803 630.756C242.337 623.622 241.445 619.596 240.587 617.323C244.328 615.659 247.262 612.74 248.311 608.585C256.77 575.059 264.662 537.277 246.584 507.772C240.612 498.025 232.282 490.125 223.937 482.212C219.721 478.214 215.502 474.213 211.581 469.968C199.899 457.321 190.401 440.17 194.644 423.509C202.435 392.916 226.848 367.07 257.024 357.467C287.2 347.864 322.13 354.826 346.276 375.257C345.377 388.074 335.183 396.61 324.856 405.256C320.022 409.304 315.159 413.376 311.207 417.923C295.257 436.273 294.457 463.674 301.011 487.055C306.129 505.315 315.201 522.463 327.426 536.99C330.502 540.645 334.294 544.39 339.076 544.609C345.502 544.903 350.313 538.733 352.637 532.756C360.868 511.586 352.669 487.887 343.617 467.053C340.132 459.031 347.219 450.626 353.69 444.723L397.992 404.315C409.321 393.983 421.385 382.263 423.054 367.051C424.474 354.11 417.699 341.352 408.229 332.383C398.759 323.414 386.811 317.573 375.066 311.87L352.699 301.009C360.072 310.451 371.2 315.752 382.157 320.971C384.274 321.979 386.384 322.984 388.46 324.015C401.28 330.386 414.441 339.683 417.376 353.654C420.983 370.817 407.88 386.571 395.732 399.26C380.35 415.327 364.833 431.51 346.559 444.22C340.342 448.544 333.447 452.568 325.869 452.839C318.291 453.11 310.048 448.377 308.858 440.915C307.784 434.179 312.441 428.005 316.821 422.763L349.21 383.995C354.132 378.103 360.617 376.57 368.331 374.746C371.045 374.104 373.911 373.427 376.914 372.51C358.74 373.434 343.265 366.499 327.621 359.487ZM196.538 255.295C197.845 267.029 201.473 278.779 208.83 288.033C216.187 297.288 227.65 303.73 239.488 303.219C243.452 303.047 244.722 297.171 242.368 293.988C240.327 291.228 236.951 289.971 233.678 288.753C233.177 288.567 232.679 288.381 232.189 288.191C228.49 286.761 224.546 284.367 223.878 280.47C234.315 288.561 249.897 289.312 261.069 282.262C264.958 293.382 277.857 300.059 289.531 298.223C301.205 296.387 310.963 287.09 314.835 275.964C314.909 275.751 314.982 275.536 315.055 275.321C315.643 273.589 316.248 271.809 317.585 270.583C318.83 269.44 320.528 268.955 322.16 268.505L354.08 259.71C354.872 259.492 355.771 259.286 356.474 259.711C357.223 260.164 357.43 261.139 357.54 262.006C359.748 279.454 349.918 297.781 334.132 305.647C325.667 309.865 315.995 311.243 306.405 312.61C293.892 314.392 281.521 316.155 272.16 324.178C267.066 328.544 263.531 334.279 259.99 340.026C258.298 342.771 256.605 345.519 254.739 348.121C243.298 364.08 222.284 374.887 203.622 368.651C192.91 365.072 184.584 356.602 177.741 347.645C157.14 320.682 146.265 286.496 147.518 252.631C147.745 246.487 148.378 240.266 150.608 234.533C164.751 250.909 181.104 265.389 199.088 277.458C198.46 274.208 196.2 271.54 193.95 269.104C187.513 262.135 180.409 255.607 173.313 249.087C156.81 233.925 140.35 218.802 132.424 198.241C130.681 193.721 129.393 188.787 130.466 184.065C132.901 173.355 145.533 168.897 156.336 166.722C182.281 161.501 208.76 158.914 235.229 159.016C236.634 175.352 250.276 189.963 266.59 192.114C282.904 194.265 300.096 183.386 304.677 167.638C304.813 167.17 304.94 166.697 305.068 166.222C305.637 164.106 306.212 161.968 307.573 160.274C309.239 158.2 312.627 157.18 314.571 158.998C328.983 172.47 344.107 185.422 361.341 195.057C378.576 204.692 398.157 210.906 417.9 210.035C384.176 222.294 349.706 232.513 314.741 240.616C312.067 241.236 308.756 241.642 307.037 239.51C300.947 231.951 291.016 227.637 281.313 228.336C271.61 229.035 262.405 234.727 257.47 243.081C255.683 246.105 251.225 245.725 247.833 244.779C240.778 242.812 233.517 239.786 229.348 233.783C228.644 232.77 228.034 231.679 227.425 230.591C226.234 228.461 225.047 226.338 223.167 224.817C220.508 222.665 217.026 222.141 213.577 221.621C212.618 221.477 211.662 221.333 210.727 221.154C200.08 219.123 190.651 211.578 186.361 201.659C196.398 194.962 209.952 198.14 221.034 202.93C222.779 203.684 224.529 204.476 226.285 205.272C235.68 209.527 245.266 213.868 255.401 212.94C264.018 212.152 271.538 207.684 279.091 203.197C285.769 199.229 292.471 195.247 299.978 193.78C319.238 190.016 338.143 204.306 347.16 221.676C347.229 221.809 347.298 221.943 347.367 222.077C348.843 224.928 350.438 228.013 353.396 229.21C350.378 212.303 337.633 197.473 321.331 191.901C305.03 186.328 285.832 190.238 273.033 201.738C265.091 208.874 253.023 209.378 242.658 206.756C236.82 205.278 231.256 202.965 225.688 200.651C221.371 198.856 217.051 197.06 212.599 195.652C202.406 192.429 190.634 191.475 181.561 197.116C178.837 191.136 175.194 185.572 170.796 180.681C175.154 205.602 197.966 226.092 223.295 227.836L209.24 233.157C205.956 234.4 202.552 235.721 200.142 238.268C196.015 242.629 195.874 249.338 196.538 255.295ZM189.604 429.611C188.238 436.47 187.489 443.902 190.568 450.185C192.227 453.572 194.877 456.354 197.483 459.09L197.662 459.277C213.336 475.739 228.059 493.099 241.734 511.245C235.662 517.056 228.903 522.154 221.641 526.4C219.618 527.582 217.434 528.731 215.089 528.689C211.594 528.626 208.754 525.994 206.296 523.519C189.124 506.232 172.396 488.508 156.133 470.37C150.962 464.603 145.704 458.564 143.354 451.194C140.367 441.826 142.482 431.69 144.614 422.093C150.495 395.628 156.681 368.44 172.014 346.049C180.628 361.461 196.581 372.585 214.064 375.37C201.941 391.301 193.509 410.001 189.604 429.611ZM298.842 134.556C296.277 139.9 291.95 144.621 286.339 146.578C278.859 149.188 270.631 146.577 263.307 143.558C259.502 141.989 255.656 140.249 252.709 137.382C250.207 134.95 248.493 131.84 246.905 128.737C241.961 119.073 237.876 108.973 234.712 98.594C232.096 90.012 230.748 79.151 237.712 73.467C245.666 79.55 256.365 81.076 266.325 79.922C275.181 78.896 283.664 75.963 292.102 73.046C293.155 72.682 294.207 72.318 295.259 71.958C296.461 71.547 297.883 71.168 298.92 71.899C299.714 72.458 299.994 73.484 300.21 74.428C303.414 88.472 304.347 103.027 302.963 117.363C302.394 123.259 301.407 129.213 298.842 134.556ZM330.802 535.754C316.542 516.813 306.99 494.38 303.229 471.001C301.614 460.963 301.092 450.443 304.449 440.843C307.655 453.416 322.841 461.446 335.089 457.043C338.286 463.604 341.192 470.306 343.796 477.122C350.638 495.031 355.296 515.411 347.718 533.023C345.896 537.257 342.298 541.765 337.725 541.089C334.76 540.65 332.6 538.142 330.802 535.754ZM235.86 46.6838C239.465 40.2502 247.397 36.9816 254.766 37.6C256.485 37.7443 258.198 37.9619 259.877 38.1752C265.195 38.8509 270.169 39.4828 273.925 37.6C279.644 34.7334 282.033 30.7484 284.466 26.6923C286.09 23.9846 287.732 21.2453 290.397 18.7857C292.083 17.2297 293.962 15.7365 296.207 15.2446C300.796 14.2387 305.203 17.7213 307.817 21.6125C313.428 29.9641 314.168 41.3311 309.688 50.335C304.754 60.251 294.583 66.456 284.407 70.894C277.081 74.089 269.328 76.68 261.333 76.845C253.337 77.01 245.017 74.487 239.504 68.715C233.991 62.942 231.962 53.641 235.86 46.6838ZM213.316 568.522C212.973 565.989 212.703 563.159 214.246 561.117C220.568 561.684 227.094 559.401 231.672 555.02C230.28 552.156 225.969 552.35 223.246 554.012C222.2 554.651 221.24 555.434 220.283 556.216C218.747 557.47 217.217 558.719 215.354 559.349C213.553 557.573 213.876 554.439 215.374 552.402C216.872 550.366 219.226 549.165 221.492 548.036L235.762 540.924C233.02 538.22 228.45 538.185 224.951 539.803C221.452 541.42 218.775 544.356 216.198 547.216C213.338 542.239 215.379 535.096 220.442 532.365L238.929 522.396C240.365 521.622 241.888 520.826 243.52 520.874C247.055 520.979 249.187 524.792 250.154 528.18C252.951 537.984 252.098 548.404 251.222 558.558C249.933 573.49 248.624 588.537 244.421 602.927C242.972 607.887 240.686 613.289 235.874 615.212C230.654 617.298 224.514 614.132 221.393 609.471C218.271 604.81 217.441 599.04 216.69 593.487L213.316 568.522ZM459.776 229.972C461.777 229.728 463.511 227.424 462.535 225.666L455.663 213.28C454.757 211.648 453.831 209.947 453.71 208.086C453.59 206.226 454.523 204.157 456.303 203.582C458.851 202.758 461.194 205.213 462.669 207.441C465.777 212.136 468.487 217.091 470.76 222.238C473.458 218.656 470.511 213.71 467.818 210.124C465.126 206.539 462.769 201.041 466.137 198.075C469.463 195.146 474.749 198.148 477.298 201.77C478.636 203.673 479.736 205.783 480.832 207.886C482.956 211.959 485.064 216.003 488.859 218.446C490.498 217.448 489.682 214.946 488.688 213.308L475.953 192.303C474.815 190.425 476.697 187.878 478.876 187.561C481.055 187.244 483.158 188.405 484.979 189.64C493.736 195.581 500.71 204.674 502.356 215.102C504.001 225.53 499.533 237.115 490.35 242.379C487.573 243.971 484.479 244.963 481.334 245.572C462.19 249.281 441.238 237.069 435.1 218.625C434.161 215.802 433.934 211.946 436.6 210.609C438.632 209.59 441.087 210.801 442.78 212.316C445.225 214.505 446.972 217.306 448.72 220.108C450.404 222.807 452.089 225.508 454.399 227.665C455.871 229.039 457.774 230.216 459.776 229.972ZM260.066 250.696C262.418 250.768 264.855 250.843 266.81 252.105C268.967 253.496 269.907 257.018 267.864 258.571C267.091 259.158 266.088 259.329 265.128 259.483C256.206 260.908 246.027 262.017 239.09 256.246C237.531 256.955 237.076 259.093 237.712 260.679C238.349 262.265 239.765 263.394 241.183 264.354C247.477 268.619 255.013 271.041 262.622 271.246C257.639 275.546 250.345 277.01 244.079 274.966C241.62 274.163 238.16 273.248 237.072 275.588C241.897 280.184 249.262 280.537 255.937 280.623C244.013 286.285 228.368 282.598 220.253 272.213C219.676 271.473 218.373 271.851 217.914 272.669C217.455 273.487 217.58 274.493 217.718 275.42C218.42 280.138 219.384 285.326 223.143 288.28C225.132 289.844 227.601 290.525 230.071 291.207C231.056 291.478 232.042 291.75 232.998 292.079C236.349 293.229 239.813 295.754 239.845 299.286C229.049 300.213 218.48 294.117 211.945 285.505C205.409 276.894 202.406 266.097 201.022 255.389C200.664 252.621 200.412 249.755 201.219 247.082C202.826 241.761 208.102 238.544 212.964 235.822C216.491 233.847 221.355 232.028 224.152 234.939C233.267 244.426 246.171 250.194 259.343 250.672C259.583 250.681 259.824 250.688 260.066 250.696ZM283.222 269.824L421.385 231.714C427.401 230.054 434.522 228.603 439.337 232.563C384.635 249.407 329.231 263.992 273.317 276.267C270.273 276.935 265.934 276.801 265.403 273.741C267.241 273.809 267.233 271.756 267.226 269.585C267.218 267.448 267.21 265.196 268.962 264.741L429.968 222.84C430.942 222.587 432.177 222.418 432.774 223.224C433.745 224.536 431.758 226.001 430.182 226.437L276.625 268.974C278.018 270.882 280.939 270.453 283.222 269.824ZM438.998 258.842C429.03 265.497 416.376 267.244 404.46 265.836C392.545 264.429 381.186 260.108 370.145 255.429L436.248 236.967C438.565 236.32 441.426 235.811 443.061 237.571C456.474 252.011 480.881 254.588 497.034 243.269C495.15 252.255 486.993 259.566 477.826 260.483C472.604 261.006 467.461 259.656 462.345 258.312C460.988 257.956 459.633 257.6 458.279 257.279C451.818 255.751 444.514 255.159 438.998 258.842ZM256.325 148.258C257.269 146.911 259.3 146.169 260.609 147.168C268.28 153.026 278.944 154.756 288.083 151.624C291 150.625 294.319 152.694 295.523 155.524C296.727 158.354 296.241 161.632 295.183 164.519C291.962 173.31 283.291 179.85 273.925 180.554C264.559 181.258 255.002 176.087 250.494 167.877C249.103 165.342 248.638 161.369 251.323 160.277C254 159.187 254.767 155.829 255.056 152.961L255.065 152.874C255.227 151.266 255.397 149.58 256.325 148.258ZM511.77 218.631C510.691 218.922 509.549 219.208 508.47 218.92C507.39 218.632 506.437 217.55 506.709 216.47C516.371 214.941 525.697 211.344 533.873 205.992C537.058 203.907 540.438 200.274 538.831 196.832C537.765 194.55 534.905 193.672 532.38 193.774C528.725 193.923 525.318 195.557 522.031 197.159L504.302 205.8C503.478 204.827 503.82 203.263 504.692 202.332C505.532 201.435 506.724 200.975 507.875 200.531L508.003 200.481C516.052 197.368 523.55 192.85 530.054 187.192C531.958 185.536 530.969 182.122 528.794 180.837C526.619 179.552 523.886 179.805 521.4 180.268C514.19 181.61 507.251 184.382 501.107 188.374C498.083 190.34 493.789 192.516 491.315 189.895C497.992 183.152 507.145 179.553 516.012 176.137L533.171 169.525C534.364 169.066 535.654 168.599 536.893 168.915C538.579 169.345 539.567 171.043 540.331 172.602C544.665 181.445 547.855 190.843 549.799 200.491C550.081 201.891 550.315 203.438 549.592 204.67C548.936 205.788 547.657 206.36 546.457 206.854C535.161 211.51 523.568 215.446 511.77 218.631ZM430.619 219.221C429.977 219.902 429.019 220.168 428.111 220.405L270.539 261.513C272.985 255.626 280.176 253.612 286.424 252.253C329.899 242.798 372.488 229.76 415.031 216.736C417.45 215.995 419.869 215.255 422.288 214.515C424.387 213.873 426.673 213.234 428.73 214.001C430.786 214.768 432.123 217.627 430.619 219.221ZM217.355 62.443C218.32 59.295 219.898 54.944 222.368 52.756C223.627 51.641 225.332 50.451 226.848 51.185C227.801 51.646 228.268 52.712 228.658 53.693C229.243 55.16 230.077 57.127 230.911 59.093C231.745 61.06 232.579 63.027 233.163 64.494C233.983 66.552 234.775 69.75 233.273 70.789C226.848 75.233 228.31 91.456 231.187 98.921C231.874 100.703 232.463 104.356 231.871 107.018C231.279 109.681 228.31 112.076 225.882 110.817C224.489 110.095 222.279 106.269 221.479 104.883C221.406 104.756 221.345 104.65 221.297 104.568C209.461 84.389 216.022 66.16 217.203 62.879C217.276 62.675 217.329 62.529 217.355 62.443ZM269.279 280.944C279.801 279.001 290.215 276.476 300.456 273.384C300.615 273.336 300.774 273.288 300.933 273.24C304.121 272.274 307.356 271.295 310.682 271.311C310.265 276.558 307.34 281.418 303.328 284.841C299.316 288.263 294.292 290.348 289.146 291.534C285.244 292.433 281.13 292.837 277.252 291.839C273.375 290.84 269.758 288.258 268.284 284.548C267.756 283.218 267.868 281.204 269.279 280.944ZM282.324 249.645C275.613 250.593 268.52 250.107 262.479 247.045C261.202 246.398 261.863 244.452 262.765 243.343C267.403 237.641 274.428 233.931 281.767 233.307C289.106 232.684 296.66 235.155 302.2 239.992C303.116 240.792 304.046 242.057 303.428 243.102C303.103 243.652 302.451 243.906 301.848 244.122C295.469 246.403 289.035 248.698 282.324 249.645ZM261.648 187.619C255.682 185.755 251.012 181.023 247.601 175.801C245.533 172.636 243.841 169.254 242.148 165.871C241.048 163.672 239.948 161.474 238.744 159.333C240.955 158.967 243.107 160.469 244.333 162.338C245.209 163.673 245.739 165.183 246.27 166.695C246.483 167.3 246.696 167.906 246.93 168.5C251.342 179.661 264.481 186.354 276.314 184.142C288.147 181.93 297.742 171.545 299.794 159.725C300.009 158.483 300.401 156.946 301.641 156.7C302.982 157.815 303.042 159.832 302.805 161.556C301.088 174.071 289.702 183.487 277.539 187.043C272.377 188.552 266.781 189.223 261.648 187.619ZM498.183 195.112C505.638 189.314 514.426 185.227 523.674 183.256C524.785 183.019 526.451 183.263 526.351 184.39C526.319 184.746 526.087 185.049 525.858 185.324C521.264 190.846 514.539 194.077 508.031 197.143C506.208 198.002 504.286 198.881 502.273 198.757C500.26 198.633 498.18 197.122 498.183 195.112ZM530.447 197.891C531.405 197.586 532.454 197.3 533.395 197.652C534.337 198.004 534.959 199.293 534.297 200.046C528.589 206.539 520.048 209.743 511.716 212.102C509.537 212.719 506.334 212.703 505.962 210.477C513.345 204.964 521.659 200.69 530.447 197.891ZM306.295 102.768C306.777 99.797 307.353 96.247 307.353 93.951C307.353 90.797 307.833 86.939 310.785 85.816C313.614 84.739 316.811 87.322 317.356 90.291C317.901 93.26 314.536 105.246 312.864 107.764C312.101 108.914 311.212 110.061 309.956 110.639C308.699 111.218 306.988 111.03 306.219 109.884C305.818 109.287 305.728 108.542 305.66 107.827C305.591 107.111 305.914 105.121 306.295 102.768ZM306.363 65.431C306.51 65.642 306.574 65.898 306.633 66.149C307.859 71.334 308.334 76.695 308.04 82.014C306.634 82.644 305.47 80.774 305.056 79.294L303.289 72.963C302.594 70.471 302.033 67.421 303.89 65.614C304.564 64.958 305.825 64.66 306.363 65.431ZM231.967 121.848C230.14 120.59 228.658 119.57 228.658 116.458C228.658 112.776 232.652 109.187 233.522 109.884C236.686 112.418 242.373 124.983 242.658 129.018C240.277 128.049 238.522 126.728 235.318 124.315C234.62 123.79 233.854 123.214 232.998 122.577C232.647 122.317 232.301 122.079 231.967 121.848ZM252.733 265.399L259.186 264.039C259.991 263.87 260.969 263.753 261.508 264.373C262.545 265.568 260.502 267.077 258.917 267.106C256.748 267.146 254.572 266.546 252.733 265.399ZM448.627 206.318C449.795 206.45 450.781 207.935 450.013 208.821L449.942 208.901C448.934 209.669 447.774 210.479 446.518 210.299C445.262 210.118 444.378 208.285 445.417 207.561C446.38 206.889 447.46 206.186 448.627 206.318ZM457.912 225.543L456.445 225.329L456.302 225.315L453.195 220.552C455.92 219.673 458.956 222.886 457.912 225.543ZM451.087 216.947C449.893 217.004 448.935 215.521 449.481 214.462C450.028 213.403 451.797 213.318 452.444 214.319C453.091 215.321 452.281 216.889 451.087 216.947ZM288.197 61.604L276.979 66.897C268.408 70.94 257.643 69.893 250.019 64.273C248.943 64.025 248.01 65.306 248.192 66.392C248.374 67.477 249.259 68.298 250.147 68.954C256.293 73.493 264.697 74.062 272.111 72.18C279.525 70.299 286.174 66.249 292.615 62.136C292.149 60.507 289.734 60.879 288.197 61.604ZM277.65 86.159C276.729 86.98 275.133 85.865 275.148 84.633C275.163 83.4 276.165 82.41 277.2 81.734C281.536 78.899 287.754 79.339 291.645 82.756C290.786 84.163 288.779 83.837 287.088 83.562C286.956 83.54 286.825 83.519 286.697 83.499C283.487 82.996 280.072 84 277.65 86.159ZM256.875 90.815C258.346 90.48 259.904 89.358 259.764 87.86C259.646 86.598 258.371 85.76 257.145 85.42C254.255 84.619 250.936 85.66 249.028 87.967C247.12 90.274 246.729 93.72 248.071 96.393C248.718 95.817 249.244 95.109 249.768 94.403C250.545 93.357 251.316 92.319 252.463 91.738C253.33 91.298 254.302 91.181 255.278 91.063C255.815 90.998 256.352 90.934 256.875 90.815ZM286.169 107.434C287.949 107.409 289.15 105.576 289.597 103.859C290.517 100.328 289.581 96.371 287.175 93.621C286.086 92.376 284.23 91.34 282.844 92.246C282.416 92.526 282.108 92.957 281.859 93.404C280.121 96.534 280.992 100.448 282.343 103.763C283.053 105.504 284.282 107.461 286.169 107.434ZM263.663 107.441L263.133 101.935C262.931 99.84 262.481 97.376 260.565 96.49C257.946 95.279 255.181 98.18 254.495 100.973C253.758 103.973 254.184 107.241 255.664 109.955C257.007 112.416 260.35 114.478 262.486 112.656C263.901 111.448 263.841 109.289 263.663 107.441ZM259.24 520.145C273.997 519.707 288.755 519.276 303.512 518.85C305.133 518.803 306.874 518.789 308.219 519.692C309.467 520.529 310.15 522.128 309.889 523.604L266.567 524.417C264.957 524.447 263.292 524.467 261.811 523.837C260.331 523.208 259.081 521.741 259.24 520.145ZM274.399 125.261C272.818 124.811 273.563 122.472 274.307 121.01C276.71 116.286 275.356 110.493 272.95 105.771L272.89 105.655C272.356 104.609 271.786 103.491 271.975 102.339C272.172 101.145 273.683 100.151 274.628 100.913C274.912 101.142 275.084 101.477 275.248 101.803C277.055 105.389 278.827 109.075 279.415 113.044C280.004 117.013 279.246 121.37 276.514 124.318C275.961 124.915 275.182 125.484 274.399 125.261ZM276.759 140.305C284.166 139.122 290.107 131.935 289.853 124.464C289.838 124.02 289.798 123.557 289.569 123.176C288.926 122.106 287.177 122.356 286.351 123.293C285.672 124.063 285.414 125.085 285.159 126.093C285.104 126.31 285.05 126.526 284.991 126.739C284.001 130.335 281.537 133.504 278.29 135.359C278.132 135.449 277.971 135.538 277.809 135.627C276.861 136.149 275.885 136.686 275.387 137.625C274.805 138.724 275.527 140.501 276.759 140.305ZM321.987 590.212C322.303 599.085 323.292 627.239 322.136 632.348C321.922 633.298 321.572 634.38 320.659 634.726C318.84 635.414 317.773 632.694 317.751 630.756C317.568 615.049 317.385 596.592 317.202 578.135V578.134C317.019 559.677 316.836 541.22 316.653 525.513C319.668 525.513 320.659 536.111 320.659 542.956C320.659 565.955 321.987 590.212 321.987 590.212ZM218.244 395.136C217.803 394.88 217.289 394.623 216.762 394.359C214.662 393.309 212.352 392.153 213.568 390.525C245.716 391.912 277.938 391.591 310.052 389.562C319.147 388.987 329.406 387.661 334.813 380.351C335.029 380.058 335.238 379.756 335.447 379.453C336.166 378.411 336.888 377.364 337.946 376.688C339.31 375.816 341.494 375.927 342.176 377.392C341.213 385.228 333.842 391.761 325.918 391.8C322.451 391.817 321.276 396.326 320.837 399.753C320.397 403.179 318.025 407.569 314.771 406.377C315.592 403.567 316.124 400.674 316.355 397.756C316.433 396.778 316.412 395.643 315.653 395.018C315.063 394.533 314.225 394.531 313.46 394.553L228.61 396.965C228.072 396.98 227.479 397.017 227.095 397.393C226.626 397.851 226.669 398.602 226.746 399.252L232.768 450.411C232.9 451.536 233.359 452.974 234.497 452.98L282.597 453.244C285.154 453.258 288.793 455.205 287.231 457.222C286.592 458.048 285.392 458.124 284.346 458.128L235.393 458.326C233.326 458.334 232.742 461.134 232.818 463.192L233.597 484.243C227.717 480.068 227.313 471.687 227.272 464.493C227.152 443.529 225.272 422.574 221.657 401.921C221.205 399.343 220.513 396.453 218.244 395.136Z" fill="#00160A"/>
<path fill-rule="evenodd" clip-rule="evenodd" d="M327.16 494.516C329.174 489.964 333.866 486.712 338.85 486.414C340.145 486.336 341.616 486.527 342.407 487.552C343.198 488.577 342.519 490.524 341.232 490.356C338.143 489.952 335.06 491.522 332.892 493.752C330.725 495.981 329.311 498.813 327.931 501.596C325.948 499.978 326.126 496.852 327.16 494.516Z" fill="#00160A"/>
<path fill-rule="evenodd" clip-rule="evenodd" d="M547.264 58.974C549.797 59.213 552.143 57.75 554.243 56.318C560.08 52.335 566.367 46.906 565.983 39.8649C565.862 37.6288 565.053 35.525 564.244 33.4187C563.898 32.5173 563.551 31.6155 563.258 30.7027C561.729 25.9356 561.672 20.9092 561.615 15.8699C561.569 11.7366 561.522 7.59453 560.662 3.57963C560.354 2.13983 559.737 0.504227 558.319 0.094727C557.519 -0.135973 556.668 0.0984278 555.87 0.332028L530.371 7.79183C525.571 9.19613 524.543 15.4095 524.405 20.3949L524.031 33.9598C522.515 34.1492 521.077 33.557 519.638 32.9647C519.089 32.7386 518.54 32.5126 517.987 32.33C512.538 30.5321 505.95 33.5551 503.775 38.8505C501.601 44.1459 504.172 50.908 509.321 53.435C514.47 55.962 521.413 53.87 524.296 48.923C526.254 45.5638 526.37 41.4849 526.435 37.6L526.555 30.3055C526.6 27.5793 529.668 26.0675 532.261 25.2008C540.247 22.5313 548.307 20.0812 556.429 17.8541C557.231 17.634 558.229 17.4689 558.777 18.0932C559.074 18.4306 559.138 18.9058 559.19 19.3512L560.301 28.9015C560.466 30.3179 560.306 32.2225 558.908 32.5228C552.157 33.9729 546.155 38.5699 543.01 44.7003C541.67 47.3119 540.824 50.311 541.418 53.185C542.011 56.058 544.335 58.699 547.264 58.974ZM557.578 4.34343C557.863 4.63183 557.945 5.05673 558.014 5.45523L558.788 9.93833C558.992 11.1225 559.186 12.3945 558.67 13.4814C557.856 15.1984 555.694 15.715 553.818 16.0839C549.484 16.9361 545.206 18.067 541.02 19.4672C537.521 20.6375 534.089 21.9945 530.659 23.3509C530.369 23.4655 530.079 23.5801 529.789 23.6946C528.975 24.0161 527.853 24.2479 527.387 23.5118C527.27 23.3275 527.221 23.1096 527.181 22.8955C526.362 18.5483 528.376 13.8064 532.084 11.3516C534.126 9.99963 536.54 9.33633 538.907 8.69363L555.551 4.17543C556.239 3.98873 557.078 3.83853 557.578 4.34343ZM523.998 40.0932C523.928 44.295 522.912 49.099 519.175 51.133C516.209 52.746 512.337 51.971 509.647 49.944C506.486 47.5646 504.751 42.8258 507.061 39.6372C508.023 38.3091 509.526 37.4482 511.081 36.885C514.655 35.5913 518.738 35.7213 522.219 37.2397C522.774 37.4821 523.342 37.7815 523.663 38.289C523.996 38.8154 524.008 39.473 523.998 40.0932ZM78.501 49.482C78.933 50.808 80.814 50.757 82.176 50.438L94.561 47.5421C94.216 44.3267 93.589 41.1413 92.691 38.0338C92.426 37.118 92.107 36.1601 91.386 35.5333C90.271 34.5626 88.601 34.6969 87.132 34.8874L68.11 37.3548C66.803 37.5242 65.06 38.3704 65.558 39.5856C69.912 50.232 73.347 61.253 75.812 72.485C76.283 74.633 76.204 77.65 74.048 78.122C67.804 79.486 62.461 84.37 60.559 90.45C59.974 92.321 59.708 94.399 60.465 96.207C60.875 97.187 61.564 98.03 62.335 98.762C66.039 102.278 71.945 103.255 76.59 101.122C81.235 98.988 84.325 93.878 84.047 88.789C83.942 86.867 83.405 84.997 82.872 83.147L70.712 40.9693L86.812 39.7104C88.43 39.8008 89.113 42.0904 88.258 43.4614C87.404 44.8325 85.707 45.4028 84.119 45.7211C83.89 45.7669 83.659 45.8103 83.428 45.8537C82.052 46.112 80.652 46.3747 79.536 47.1947C78.814 47.7255 78.224 48.631 78.501 49.482Z" fill="#F5C754"/>
<path fill-rule="evenodd" clip-rule="evenodd" d="M324.508 480.874C324.025 481.5 322.934 481.321 322.468 480.682C322.003 480.042 322.044 479.157 322.298 478.409C322.752 477.069 323.78 476.004 324.858 475.083C327.566 472.77 330.789 471.059 334.227 470.111C335.582 469.737 337.163 469.521 338.285 470.365C339.407 471.21 339.226 473.465 337.826 473.59C332.636 474.053 327.687 476.76 324.508 480.874Z" fill="#00160A"/>
</svg>
