<svg width="686" height="906" viewBox="0 0 686 906" fill="none" xmlns="http://www.w3.org/2000/svg">
<path d="M569.4 624.768C568.177 624.624 566.962 624.418 565.76 624.148" stroke="#CCDDE2" stroke-width="5.21" stroke-miterlimit="10"/>
<path d="M79.91 241.51C79.91 241.51 40.19 44.84 220.51 6.49C231.124 4.1956 241.951 3.0258 252.81 3C287.28 3 318.96 15.73 345.46 41.31C360.81 56.16 371.39 74.31 382.82 91.75C389.99 102.75 397.55 113.45 406.82 122.97C432.44 149.28 467.15 160.47 500.9 172.97C530.58 183.9 559.5 195.86 580.78 219.97C607.86 250.61 635.78 282.9 650.09 321.83C656.031 338.135 660.561 354.92 663.63 372C671.38 414.5 671.69 457.91 662.29 500.14C652.13 545.85 625.59 588.89 590.69 619.87" stroke="#F8BAB4" stroke-width="5.21" stroke-miterlimit="10"/>
<path d="M599.69 563.91L589.9 618.66C589.627 620.195 588.822 621.585 587.626 622.586C586.43 623.586 584.919 624.133 583.36 624.13H532.19C530.615 624.13 529.092 623.571 527.89 622.553C526.689 621.535 525.888 620.124 525.63 618.57L516.63 563.91H599.69Z" stroke="#F8BAB4" stroke-width="5.21" stroke-miterlimit="10"/>
<path d="M609 557.801C608.864 559.466 608.107 561.019 606.879 562.151C605.65 563.283 604.041 563.912 602.37 563.911H514.09C512.44 563.911 510.848 563.297 509.626 562.188C508.404 561.078 507.639 559.554 507.48 557.911C507.389 556.989 507.493 556.057 507.784 555.177C508.074 554.297 508.546 553.488 509.169 552.801C509.792 552.114 510.551 551.565 511.399 551.19C512.246 550.815 513.163 550.621 514.09 550.621H602.37C603.288 550.622 604.195 550.813 605.035 551.182C605.876 551.551 606.631 552.089 607.253 552.763C607.876 553.437 608.352 554.233 608.653 555.1C608.953 555.967 609.072 556.886 609 557.801Z" stroke="#F8BAB4" stroke-width="5.21" stroke-miterlimit="10"/>
<path d="M560.99 550.611C560.99 547.811 568.12 512.881 562.21 481.901C558.97 464.901 551.8 449.111 537.39 440.461" stroke="#225560" stroke-width="5.21" stroke-miterlimit="10"/>
<path d="M562.19 481.898C562.19 481.898 563.82 458.368 584.19 456.738" stroke="#225560" stroke-width="5.21" stroke-miterlimit="10"/>
<path d="M564.37 517.809C570.159 513.756 577.132 511.743 584.19 512.089" stroke="#225560" stroke-width="5.21" stroke-miterlimit="10"/>
<path d="M564.37 501.1C564.37 501.1 549.6 483.6 525.99 497.44" stroke="#225560" stroke-width="5.21" stroke-miterlimit="10"/>
<path d="M553.97 494.061C553.97 494.061 520.7 463.661 514.19 504.761C514.19 504.761 523.55 510.871 537.39 504.761C551.23 498.651 553.97 494.061 553.97 494.061Z" stroke="#225560" stroke-width="5.21" stroke-miterlimit="10"/>
<path d="M569.53 463.911C569.53 463.911 568.32 450.231 584.19 445.751C600.06 441.271 609.02 460.001 609.02 460.001C609.02 460.001 596.79 473.521 569.53 463.911Z" stroke="#225560" stroke-width="5.21" stroke-miterlimit="10"/>
<path d="M573.19 512.069C573.19 512.069 572.65 498.239 591.1 501.069C609.55 503.899 612.54 519.659 612.54 519.659C612.54 519.659 582.31 530.739 573.19 513.499" stroke="#225560" stroke-width="5.21" stroke-miterlimit="10"/>
<path d="M550.97 453.25C550.97 454.25 537.09 452.01 536.21 451.75C529.49 449.75 524.72 445.09 521.58 438.93C520.58 437.02 515.02 426.31 516.58 424.45C516.6 424.45 549.61 413.83 550.97 453.25Z" stroke="#225560" stroke-width="5.21" stroke-miterlimit="10"/>
<path d="M461.92 297.469L432.62 330.219H412.52L382.07 349.669C375.803 348.543 369.369 348.738 363.182 350.243C356.994 351.748 351.19 354.53 346.14 358.409C332.83 368.409 291.82 408.949 271.02 413.409C266.02 401.479 259.59 390.089 256.02 385.029L401.52 315.029L408.19 297.469L450.38 280.469L461.92 297.469Z" fill="#F8BAB4"/>
<path d="M246.51 624.288L185.34 623.828C164.382 623.683 143.864 617.804 126.01 606.828C138.566 606.813 151.086 605.473 163.36 602.828C164.21 602.828 165.09 602.828 165.97 602.828C180.31 602.218 192.97 592.508 201.29 580.828C209.61 569.148 214.64 555.478 220.77 542.468C226.9 529.458 234.66 516.618 246.7 508.758C247.85 507.998 249.04 507.308 250.23 506.648C268.399 505.482 286.62 505.382 304.8 506.348C288.58 513.998 231.78 546.438 246.51 624.288Z" fill="#EC9A4A"/>
<path d="M314.01 463.781C314.01 463.781 308.01 482.051 327.06 489.211C346.11 496.371 344.38 488.931 344.36 501.681C344.36 501.681 348.2 507.201 340.28 507.381C332.36 507.561 300.71 502.601 288.72 504.181C276.73 505.761 254.72 504.791 276.12 498.501C297.52 492.211 311.49 481.841 314.01 463.781Z" fill="#EC9A4A"/>
<path d="M202.1 400.469C205.748 401.486 209.006 403.576 211.45 406.469C215.91 411.469 223.2 417.269 224.35 432.349C225.5 447.429 231.68 452.109 233.04 453.409C234.4 454.709 233.4 459.409 224.48 458.579C215.56 457.749 189.58 453.679 190.73 423.189C190.73 423.149 189.95 405.729 202.1 400.469Z" fill="#2E2E2E"/>
<path d="M165.66 603.479C153.386 606.124 140.866 607.464 128.31 607.479C128.15 607.359 127.96 607.289 127.81 607.169C117.328 606.906 106.886 605.779 96.59 603.799C55.36 595.929 -52.98 422.389 39.06 368.699C39.06 368.699 41.86 367.849 46.69 366.699C51.95 373.369 59.27 378.579 68.86 381.769C65.184 384.989 62.006 388.736 59.43 392.889C52.25 404.399 50.49 418.509 50.95 432.089C51.87 460.849 61.84 488.619 74.69 514.389C89.34 543.809 108.44 571.879 135.13 591.059C144.19 597.499 154.61 603.099 165.66 603.479Z" fill="#F8BAB4"/>
<path d="M95.97 230.349C95.97 230.349 95.47 232.769 101.75 233.219C108.03 233.669 134.68 234.879 137.56 264.219C140.44 293.559 125 330.519 134.04 332.739C143.08 334.959 162.7 340.139 168.5 336.539C174.3 332.939 206.5 312.289 242.64 326.259C242.64 326.259 248.34 331.839 248.48 316.059C248.62 300.279 250.69 274.739 239.82 278.239C228.95 281.739 221.82 275.829 218.67 289.659C215.52 303.489 187.75 291.489 187.75 291.489C187.75 291.489 170.27 276.999 160.8 248.999C151.33 220.999 127.19 221.499 119.33 222.629C111.47 223.759 95.97 230.349 95.97 230.349Z" fill="#EC9A4A"/>
<path d="M509.12 842.999C502.29 839.279 502.44 833.999 498.57 829.349L492.94 841.259C492.42 844.067 492.735 846.966 493.846 849.596C494.957 852.227 496.815 854.474 499.19 856.059L552.79 901.169C554.391 902.248 556.256 902.871 558.184 902.972C560.112 903.073 562.032 902.647 563.737 901.741C565.442 900.835 566.869 899.483 567.865 897.828C568.86 896.174 569.388 894.28 569.39 892.349C569.395 891.185 569.202 890.029 568.82 888.929L462.39 572.639C459.452 563.893 454.816 555.814 448.748 548.864C442.68 541.914 435.3 536.23 427.03 532.139C397.19 517.339 337.19 498.609 255.64 505.739" stroke="black" stroke-width="5.21" stroke-linecap="round" stroke-linejoin="round"/>
<path d="M498.57 829.38C461.02 778.06 406.57 692.92 396.08 660.16C385.08 626.03 354.24 624.69 324.44 625.42L187.64 624.42C166.487 624.29 145.782 618.317 127.81 607.16" stroke="black" stroke-width="5.21" stroke-linecap="round" stroke-linejoin="round"/>
<path d="M421.32 529.42C421.09 500.66 421.24 442.42 421.39 396.42C421.51 357.61 377.1 334.98 346.11 358.42C332.65 368.54 317.73 378.94 301.58 396.5" stroke="black" stroke-width="5.21" stroke-linecap="round" stroke-linejoin="round"/>
<path d="M349.37 461.691C349.37 461.691 341.19 484.631 345.19 508.061" stroke="black" stroke-width="5.21" stroke-linecap="round" stroke-linejoin="round"/>
<path d="M231.89 324.471H231.78C201.64 319.021 179.78 327.801 164.86 339.161" stroke="black" stroke-width="5.21" stroke-linecap="round" stroke-linejoin="round"/>
<path d="M46.69 366.66C41.86 367.84 39.06 368.66 39.06 368.66C-52.94 422.35 55.36 595.89 96.59 603.76C106.886 605.739 117.328 606.867 127.81 607.13C152.39 607.82 168.5 603.56 168.5 603.56" stroke="black" stroke-width="5.21" stroke-linecap="round" stroke-linejoin="round"/>
<path d="M111.93 414.711L168.5 533.601L180.72 517.301L129.31 414.711H111.93Z" stroke="black" stroke-width="5.21" stroke-linecap="round" stroke-linejoin="round"/>
<path d="M141.92 439.87L194.65 414.52V414.48L211.45 406.43" stroke="black" stroke-width="5.21" stroke-linecap="round" stroke-linejoin="round"/>
<path d="M382.04 349.67L412.53 330.22H432.63L461.93 297.47L450.39 280.48L408.2 297.47L401.49 315L255.98 385.03" stroke="black" stroke-width="5.21" stroke-linecap="round" stroke-linejoin="round"/>
<path d="M273.39 415.358L301.58 396.488" stroke="black" stroke-width="5.21" stroke-linecap="round" stroke-linejoin="round"/>
<path d="M227.52 446.039L212.11 456.359L165.74 487.389" stroke="black" stroke-width="5.21" stroke-linecap="round" stroke-linejoin="round"/>
<path d="M277.8 355.11C277.07 331.91 267.52 308.59 258.13 287.69C256.493 284.038 254.674 280.47 252.68 277" stroke="black" stroke-width="5.21" stroke-linecap="round" stroke-linejoin="round"/>
<path d="M212.11 238.83C220.2 262.38 231.36 306.48 197.26 295.83C151.26 281.45 175.21 210.96 111.93 223.69C111.793 223.729 111.652 223.753 111.51 223.76C111.484 223.752 111.456 223.752 111.43 223.76H111.35" stroke="black" stroke-width="5.21" stroke-linecap="round" stroke-linejoin="round"/>
<path d="M90.76 234.071C115.57 230.201 157.26 235.951 129.3 330.181" stroke="black" stroke-width="5.21" stroke-linecap="round" stroke-linejoin="round"/>
<path d="M247.04 328.11C249.923 311.548 249.324 294.567 245.28 278.25" stroke="black" stroke-width="5.21" stroke-linecap="round" stroke-linejoin="round"/>
<path d="M344.07 492.099C344.07 492.099 310.25 491.419 311.93 471.859" stroke="black" stroke-width="5.21" stroke-linecap="round" stroke-linejoin="round"/>
<path d="M311.36 505.172C311.36 505.172 231.66 534.282 248.82 624.872" stroke="black" stroke-width="5.21" stroke-linecap="round" stroke-linejoin="round"/>
<path d="M202.1 400.469C197.431 403.635 193.97 408.287 192.28 413.669C189.963 421.588 190.432 430.063 193.607 437.678C196.783 445.294 202.473 451.591 209.73 455.519C216.52 458.969 224.12 459.579 230.94 456.589C232.158 456.046 233.314 455.375 234.39 454.589" stroke="black" stroke-width="5.21" stroke-linecap="round" stroke-linejoin="round"/>
<path d="M301.57 396.488C305.477 405.618 308.692 415.027 311.19 424.638C311.307 424.964 311.397 425.298 311.46 425.638C311.85 427.138 312.19 428.638 312.54 430.198C312.92 432.008 313.3 433.768 313.65 435.568C313.73 436.148 313.84 436.718 313.92 437.298C313.936 437.401 313.936 437.506 313.92 437.608C313.99 438.028 314.07 438.448 314.15 438.908C314.22 439.638 314.34 440.408 314.49 441.208C314.47 441.297 314.47 441.389 314.49 441.478" stroke="black" stroke-width="5.21" stroke-linecap="round" stroke-linejoin="round"/>
<path d="M187.74 344.998C199.74 333.538 215.55 324.258 231.74 324.448H231.85C233.12 324.448 234.46 324.518 235.73 324.678C246.54 325.828 255.73 332.998 263.49 340.588C272.54 349.422 280.558 359.255 287.39 369.898" stroke="black" stroke-width="5.21" stroke-linecap="round" stroke-linejoin="round"/>
<path d="M313.97 437.3C313.986 437.402 313.986 437.507 313.97 437.61C314.04 438.03 314.12 438.45 314.2 438.91C315.81 451.68 315.73 463.46 310.25 475.27C305.61 485.27 295.25 491.57 285.32 495.36C273.16 500.01 259.89 502.27 249 509.36C237 517.22 229.21 530.07 223.07 543.07C216.93 556.07 211.95 569.73 203.59 581.43C195.23 593.13 182.59 602.83 168.27 603.43C156.27 603.89 144.87 597.98 135.09 590.97C108.4 571.79 89.3 543.72 74.65 514.3C61.8 488.53 51.83 460.76 50.91 432C50.45 418.42 52.21 404.31 59.39 392.8C61.966 388.647 65.144 384.899 68.82 381.68" stroke="black" stroke-width="5.21" stroke-linecap="round" stroke-linejoin="round"/>
<path d="M248.82 624.871H5.49998" stroke="black" stroke-width="5.21" stroke-linecap="round" stroke-linejoin="round"/>
<path d="M625.85 624.871H480.11" stroke="black" stroke-width="5.21" stroke-linecap="round" stroke-linejoin="round"/>
<path d="M304.72 172.862V232.322C304.732 238.107 303.021 243.765 299.805 248.574C296.588 253.383 292.012 257.124 286.66 259.322C272.43 265.122 253.59 271.642 222.44 272.752V230.352C230.9 233.742 240.66 231.582 247.44 225.472C248.89 224.172 250.31 222.912 251.64 221.802C256.85 217.292 261.08 214.382 263.21 215.192C267.63 216.822 268.21 216.822 270.93 202.502C272.93 192.192 289.61 180.792 293.63 161.842C294.458 157.899 294.688 153.853 294.31 149.842C293.834 144.923 292.659 140.098 290.82 135.512C288.149 128.652 284.439 122.243 279.82 116.512L288.47 125.372C289.27 126.212 290.04 127.042 290.75 127.912C301.36 140.292 304.72 156.252 304.72 172.862Z" fill="#225560"/>
<path d="M294.04 159.518C293.94 160.318 293.79 161.098 293.64 161.838C291.72 161.708 286.23 162.478 279.93 166.128C275.523 168.668 271.635 172.016 268.47 175.998C263.66 181.998 240.56 208.168 221.39 229.808L214.29 237.808C213.246 238.985 211.958 239.919 210.515 240.545C209.072 241.171 207.51 241.474 205.938 241.432C204.365 241.39 202.821 241.004 201.414 240.302C200.006 239.6 198.769 238.599 197.79 237.368L150.62 178.268C147.513 174.338 146.024 169.37 146.455 164.378C146.886 159.387 149.205 154.748 152.94 151.408L195.49 113.408L197.19 111.998C198.02 111.388 198.85 110.798 199.67 110.228C226.26 93.4081 252.41 95.1681 271.67 108.138L279.85 116.528C284.469 122.26 288.18 128.668 290.85 135.528C294.44 144.698 295.09 152.598 294.04 159.518Z" fill="#225560"/>
<path d="M279.83 116.54L271.65 108.15L271.19 107.68C271.261 107.711 271.325 107.755 271.38 107.81L272.15 108.49C274.854 110.868 277.353 113.471 279.62 116.27C279.68 116.36 279.77 116.45 279.83 116.54Z" fill="#3FBDF1"/>
<path d="M277.19 112.309C277.261 112.339 277.326 112.383 277.38 112.439C280.379 115.001 283.137 117.833 285.62 120.899C285.68 120.989 285.78 121.079 285.84 121.169L277.19 112.309Z" fill="#3FBDF1"/>
<path d="M201.32 252.481C206.32 246.831 213.55 238.711 221.32 229.851C240.56 208.211 263.66 182.001 268.47 176.001C278.47 163.651 290.58 161.611 293.64 161.801" stroke="black" stroke-width="5.21" stroke-linecap="round" stroke-linejoin="round"/>
<path d="M221.36 229.85C221.701 230.035 222.052 230.201 222.41 230.35C230.87 233.74 240.63 231.58 247.41 225.47C254.54 219.05 260.5 214.17 263.18 215.19C267.6 216.82 268.18 216.82 270.9 202.5C272.9 192.19 289.58 180.79 293.6 161.84C295.17 154.36 294.8 145.72 290.79 135.53C288.116 128.671 284.406 122.264 279.79 116.53C279.72 116.44 279.63 116.35 279.57 116.26C277.087 113.195 274.329 110.363 271.33 107.8C271.275 107.745 271.211 107.701 271.14 107.67C250.08 89.7999 218.47 86.5899 187.04 110.17C186.48 110.61 185.93 111.07 185.4 111.53L142.86 149.53C139.125 152.863 136.805 157.497 136.374 162.484C135.942 167.472 137.433 172.435 140.54 176.36L201.27 252.43" stroke="black" stroke-width="5.21" stroke-linecap="round" stroke-linejoin="round"/>
<path d="M265.93 179.62C265.93 179.62 270.17 178.99 274.42 182.85" stroke="black" stroke-width="5.21" stroke-linecap="round" stroke-linejoin="round"/>
<path d="M265.286 189.691C266.944 187.759 267.306 185.35 266.095 184.31C264.883 183.271 262.557 183.995 260.899 185.927C259.242 187.859 258.879 190.268 260.091 191.308C261.302 192.347 263.628 191.623 265.286 189.691Z" fill="black"/>
<path d="M271.19 107.68L279.84 116.54L288.48 125.4C300.86 138.09 304.72 155.11 304.72 172.86V239.79C304.732 245.575 303.021 251.233 299.805 256.042C296.588 260.851 292.012 264.592 286.66 266.79C272.43 272.59 253.59 279.11 222.44 280.22V230.35" stroke="black" stroke-width="5.21" stroke-linecap="round" stroke-linejoin="round"/>
<path d="M251.63 221.789C251.63 221.789 244.7 224.119 242.63 214.859" stroke="black" stroke-width="5.21" stroke-linecap="round" stroke-linejoin="round"/>
<path d="M165.94 208.172L157.48 218.392C156.738 219.283 155.788 219.977 154.713 220.414C153.639 220.85 152.473 221.014 151.32 220.892C145.54 220.332 139.75 220.072 133.98 220.072C46.73 220.072 -10.57 378.122 86.04 384.992C180.73 391.702 218.36 387.562 225.04 436.762C226.61 448.352 233.63 459.762 246.78 455.332C263.16 449.842 273.55 430.052 270.95 413.412C268.3 396.492 255.53 382.342 242.6 372.062C217.18 351.932 186.07 343.382 154.85 337.062C144.73 335.062 112.55 332.382 122.75 315.002" stroke="black" stroke-width="5.21" stroke-linecap="round" stroke-linejoin="round"/>
<path d="M260.25 483.16H257.51V479.76H260.25C261.178 479.76 262.069 479.391 262.725 478.735C263.381 478.079 263.75 477.188 263.75 476.26V452.93L288.31 442.41V468.41C288.31 470.267 287.573 472.047 286.26 473.36C284.947 474.673 283.167 475.41 281.31 475.41H278.1V472H281.31C282.262 472 283.175 471.622 283.849 470.949C284.522 470.275 284.9 469.362 284.9 468.41V447.56L267.19 455.18V476.26C267.189 477.169 267.008 478.069 266.658 478.908C266.309 479.748 265.797 480.509 265.152 481.15C264.507 481.791 263.742 482.299 262.901 482.644C262.06 482.989 261.159 483.164 260.25 483.16Z" fill="#225560"/>
<path d="M255.72 485.15C257.758 485.15 259.41 483.497 259.41 481.46C259.41 479.422 257.758 477.77 255.72 477.77C253.682 477.77 252.03 479.422 252.03 481.46C252.03 483.497 253.682 485.15 255.72 485.15Z" fill="#225560"/>
<path d="M278.2 477.778C280.238 477.778 281.89 476.126 281.89 474.088C281.89 472.051 280.238 470.398 278.2 470.398C276.162 470.398 274.51 472.051 274.51 474.088C274.51 476.126 276.162 477.778 278.2 477.778Z" fill="#225560"/>
<g opacity="0.54">
<path opacity="0.54" d="M485.29 273.658L481.04 275.438L478.82 270.148L483.08 268.368C484.523 267.763 485.666 266.61 486.258 265.162C486.851 263.715 486.844 262.091 486.24 260.648L470.09 222.078L474.47 222.148C475.21 222.148 492.69 222.618 503.57 237.148L498.98 240.588C492.92 232.518 484.25 229.588 478.98 228.528L491.52 258.528C492.681 261.362 492.678 264.54 491.512 267.372C490.346 270.205 488.11 272.463 485.29 273.658Z" fill="#225560"/>
<path opacity="0.54" d="M477.14 280.178C480.57 280.178 483.35 277.397 483.35 273.968C483.35 270.538 480.57 267.758 477.14 267.758C473.71 267.758 470.93 270.538 470.93 273.968C470.93 277.397 473.71 280.178 477.14 280.178Z" fill="#225560"/>
</g>
<g opacity="0.46">
<path opacity="0.46" d="M342.19 308.87H337.56V303.12H342.19C343.759 303.117 345.264 302.493 346.373 301.383C347.483 300.274 348.107 298.769 348.11 297.2V257.75L389.64 240V284C389.635 287.135 388.386 290.14 386.169 292.356C383.951 294.572 380.945 295.817 377.81 295.82H372.38V290H377.81C378.607 290 379.396 289.843 380.133 289.538C380.869 289.233 381.538 288.786 382.102 288.222C382.666 287.658 383.113 286.989 383.418 286.253C383.723 285.516 383.88 284.727 383.88 283.93V248.67L353.88 261.55V297.2C353.879 298.734 353.575 300.252 352.987 301.669C352.399 303.086 351.537 304.372 350.452 305.456C349.366 306.54 348.078 307.399 346.66 307.985C345.243 308.571 343.724 308.871 342.19 308.87Z" fill="#225560"/>
<path opacity="0.46" d="M334.51 312.222C337.951 312.222 340.74 309.432 340.74 305.992C340.74 302.551 337.951 299.762 334.51 299.762C331.069 299.762 328.28 302.551 328.28 305.992C328.28 309.432 331.069 312.222 334.51 312.222Z" fill="#225560"/>
<path opacity="0.46" d="M372.54 299.761C375.981 299.761 378.77 296.972 378.77 293.531C378.77 290.09 375.981 287.301 372.54 287.301C369.099 287.301 366.31 290.09 366.31 293.531C366.31 296.972 369.099 299.761 372.54 299.761Z" fill="#225560"/>
</g>
<path d="M526.42 355.139L524.52 357.379L521.74 354.999L523.64 352.759C523.959 352.384 524.202 351.949 524.353 351.48C524.504 351.011 524.562 350.517 524.522 350.025C524.482 349.534 524.345 349.055 524.12 348.617C523.895 348.178 523.586 347.788 523.21 347.469L504.13 331.269L512.58 303.859L533.85 321.919C535.365 323.209 536.308 325.047 536.471 327.03C536.634 329.013 536.004 330.98 534.72 332.499L532.48 335.129L529.7 332.759L531.93 330.139C532.258 329.754 532.507 329.308 532.662 328.826C532.817 328.345 532.876 327.837 532.835 327.333C532.795 326.829 532.655 326.338 532.424 325.887C532.193 325.437 531.876 325.037 531.49 324.709L514.49 310.229L508.38 330.039L525.62 344.679C526.36 345.313 526.968 346.087 527.409 346.956C527.85 347.824 528.115 348.772 528.19 349.743C528.264 350.715 528.146 351.692 527.842 352.618C527.539 353.544 527.055 354.401 526.42 355.139Z" fill="#225560"/>
<path d="M521.88 361.619C524.062 361.619 525.83 359.85 525.83 357.669C525.83 355.487 524.062 353.719 521.88 353.719C519.698 353.719 517.93 355.487 517.93 357.669C517.93 359.85 519.698 361.619 521.88 361.619Z" fill="#225560"/>
<path d="M531.47 338.099C533.652 338.099 535.42 336.331 535.42 334.149C535.42 331.968 533.652 330.199 531.47 330.199C529.289 330.199 527.52 331.968 527.52 334.149C527.52 336.331 529.289 338.099 531.47 338.099Z" fill="#225560"/>
<path d="M600.62 412.61L595.07 410.75L597.39 403.84L602.94 405.71C603.872 406.024 604.857 406.151 605.839 406.084C606.821 406.018 607.779 405.758 608.661 405.321C609.542 404.883 610.328 404.277 610.975 403.535C611.622 402.794 612.116 401.932 612.43 401L628.35 353.68L685.35 349.09L667.6 401.86C666.327 405.626 663.61 408.733 660.047 410.497C656.485 412.262 652.367 412.539 648.6 411.27L642.19 409.08L644.51 402.17L651.03 404.37C652.962 405.015 655.071 404.869 656.896 403.964C658.721 403.059 660.114 401.468 660.77 399.54L675 357.24L633.76 360.56L619.37 403.33C618.749 405.171 617.771 406.871 616.492 408.333C615.213 409.796 613.659 410.993 611.918 411.854C610.176 412.716 608.282 413.226 606.344 413.356C604.405 413.486 602.46 413.232 600.62 412.61Z" fill="#225560"/>
<path d="M592.58 413.96C596.938 413.96 600.47 410.427 600.47 406.07C600.47 401.712 596.938 398.18 592.58 398.18C588.222 398.18 584.69 401.712 584.69 406.07C584.69 410.427 588.222 413.96 592.58 413.96Z" fill="#225560"/>
<path d="M643.24 414.358C647.597 414.358 651.13 410.826 651.13 406.468C651.13 402.111 647.597 398.578 643.24 398.578C638.882 398.578 635.35 402.111 635.35 406.468C635.35 410.826 638.882 414.358 643.24 414.358Z" fill="#225560"/>
<path d="M469.46 420L466.38 418.3L468.49 414.47L471.57 416.17C472.614 416.746 473.843 416.884 474.989 416.554C476.135 416.224 477.102 415.453 477.68 414.41L493.08 386.5L495.08 389.16C495.42 389.61 503.42 400.27 499.92 413.62L495.69 412.5C497.114 406.538 496.31 400.261 493.43 394.85L481.43 416.52C480.292 418.556 478.398 420.062 476.158 420.713C473.918 421.365 471.512 421.108 469.46 420Z" fill="#225560"/>
<path d="M465.42 420C468.038 420 470.16 417.877 470.16 415.26C470.16 412.642 468.038 410.52 465.42 410.52C462.802 410.52 460.68 412.642 460.68 415.26C460.68 417.877 462.802 420 465.42 420Z" fill="#225560"/>
<g opacity="0.56">
<path opacity="0.56" d="M385.96 440.731L381.77 442.731L378.6 436.001C376.593 437.114 374.375 437.795 372.09 438.001C370.176 438.168 368.251 437.856 366.489 437.091C364.728 436.326 363.184 435.133 362 433.621C359.89 431.041 358.56 427.621 357.94 423.121C356.72 414.341 358.48 405.651 360.8 398.221L358.19 392.641C357.43 391.041 356.19 388.361 357.19 385.641C357.57 384.752 358.159 383.968 358.908 383.356C359.656 382.744 360.541 382.322 361.488 382.125C362.435 381.929 363.415 381.964 364.345 382.228C365.275 382.492 366.128 382.977 366.83 383.641C369.83 386.821 368.1 391.511 367.35 393.511C366.84 394.901 366.35 396.371 365.81 397.901L373.02 413.221C377.02 410.411 382.6 411.301 386.07 415.281C389.25 418.921 389.42 423.941 386.53 428.701C385.45 430.458 384.1 432.034 382.53 433.371L385.96 440.731ZM363.82 404.611C362.279 410.428 361.842 416.483 362.53 422.461C363.03 426.071 364.03 428.751 365.59 430.651C366.31 431.582 367.252 432.316 368.33 432.786C369.409 433.257 370.588 433.447 371.76 433.341C373.474 433.176 375.133 432.651 376.63 431.801L372.55 423.131C372.47 423.551 372.4 423.991 372.35 424.441L367.74 423.901C368.006 421.535 368.683 419.234 369.74 417.101L363.82 404.611ZM375.03 417.521L380.41 429.001C381.222 428.193 381.934 427.29 382.53 426.311C383.39 424.901 385.12 421.311 382.53 418.311C380.9 416.451 377.96 415.311 375.63 417.011C375.415 417.162 375.214 417.333 375.03 417.521ZM362.03 386.741C361.92 386.782 361.819 386.845 361.733 386.926C361.647 387.007 361.578 387.104 361.53 387.211C361.22 388.051 361.81 389.431 362.39 390.661L362.97 391.901C363.6 390.191 364.34 387.801 363.43 386.841C363.289 386.734 363.126 386.66 362.953 386.625C362.78 386.591 362.601 386.596 362.43 386.641C362.289 386.656 362.151 386.689 362.02 386.741H362.03Z" fill="#225560"/>
</g>
<path d="M573.38 316.14L568.38 312.49L574.21 304.49C571.642 302.84 569.446 300.674 567.76 298.13C566.347 296 565.487 293.551 565.258 291.006C565.029 288.46 565.439 285.897 566.45 283.55C568.12 279.44 571.29 275.7 576.13 272.12C585.62 265.12 596.9 261.63 607.06 259.6L611.88 253.02C613.28 251.11 615.61 247.93 619.42 247.35C620.706 247.212 622.007 247.391 623.208 247.871C624.41 248.351 625.476 249.117 626.314 250.102C627.152 251.088 627.736 252.264 628.016 253.527C628.296 254.79 628.263 256.102 627.92 257.35C626.13 262.89 619.53 263.84 616.72 264.25C614.72 264.53 612.72 264.85 610.61 265.25L597.29 283.44C603.11 286.32 605.64 293.44 603.2 300C600.96 306 595.2 309.44 587.79 309.08C585.05 308.931 582.351 308.354 579.79 307.37L573.38 316.14ZM601.5 267.26C594.03 269.26 586.38 272.26 579.82 277.12C575.92 280 573.43 282.87 572.2 285.91C571.565 287.341 571.304 288.91 571.44 290.47C571.577 292.03 572.106 293.53 572.98 294.83C574.257 296.729 575.924 298.335 577.87 299.54L585.41 289.25C584.87 289.43 584.32 289.63 583.76 289.85L581.46 284.12C584.384 282.923 587.494 282.246 590.65 282.12L601.5 267.26ZM593.55 288.58L583.62 302.15C585.082 302.577 586.589 302.835 588.11 302.92C590.31 303.02 595.62 302.74 597.43 297.86C598.57 294.78 597.98 290.64 594.55 288.96C594.227 288.807 593.893 288.68 593.55 288.58ZM621.25 253.77C621.005 253.571 620.696 253.467 620.38 253.48C619.2 253.66 617.96 255.23 616.89 256.69L615.82 258.16C618.22 257.82 621.48 257.16 622.03 255.48C622.066 255.238 622.044 254.99 621.968 254.758C621.891 254.525 621.762 254.314 621.59 254.14C621.489 254.005 621.375 253.882 621.25 253.77Z" fill="#225560"/>
</svg>
