<svg width="631" height="464" viewBox="0 0 631 464" fill="none" xmlns="http://www.w3.org/2000/svg">
<path fill-rule="evenodd" clip-rule="evenodd" d="M237.781 458.174C342.535 487.633 393.507 374.585 483.262 383.185C532.394 387.893 630.327 411.756 630.108 237.931C629.561 125.709 526.124 97.6081 419.459 155.159C388.072 167.434 363.292 163.63 336.386 151.434C309.481 139.238 274.878 84.7911 209.661 73.5901C13.4022 39.8831 -154.523 347.853 237.781 458.174Z" fill="black"/>
<path fill-rule="evenodd" clip-rule="evenodd" d="M486.717 175.847C488.682 174.891 492.208 176.744 490.163 179.726C485.633 186.33 503.15 199.521 497.527 187.897C496.926 186.654 493.843 178.059 498.205 182.497C502.568 186.934 508.65 206.543 504.716 213.299C501.264 219.228 492.128 222.049 479.656 222.382L479.095 222.395L478.829 222.411C471.477 222.753 465.902 218.203 462.304 209.342L462.131 208.91C458.488 199.635 459.487 192.2 465.378 187.187C465.485 187.096 465.6 187.014 465.72 186.942L465.906 186.842L486.717 175.847Z" fill="white"/>
<path fill-rule="evenodd" clip-rule="evenodd" d="M89.5327 2.26402C88.6757 1.04802 87.2857 0.347024 85.8017 0.528024C84.2817 0.713024 83.0107 1.77002 82.5487 3.22802L82.4247 3.61802C82.3317 3.90502 82.2207 4.23503 82.0897 4.60603C81.7167 5.66403 81.2647 6.83902 80.7307 8.10202C79.2127 11.694 77.3437 15.279 75.1127 18.613C70.2997 25.809 64.5007 30.818 57.7027 32.747C56.6397 33.048 56.0227 34.154 56.3247 35.217C56.4777 35.756 66.4057 40.718 76.5417 39.467C86.3727 38.254 96.4207 30.842 96.5017 30.338L96.6257 29.287L96.6607 28.935C97.3647 21.299 96.0287 12.673 90.8867 4.31702C90.4587 3.62302 90.0077 2.93902 89.5327 2.26402Z" fill="#F5C754"/>
<path fill-rule="evenodd" clip-rule="evenodd" d="M109.992 4.48389L109.94 4.88789C109.227 10.0579 107.232 17.2569 103.622 22.6879C99.1789 29.3739 92.9079 34.4869 86.6059 37.7829C77.5139 42.5359 67.6189 43.4059 57.8749 37.2309L57.4449 36.9539C52.3249 33.6049 48.4389 31.9929 43.1079 33.3229C37.7759 34.6539 35.1869 38.5369 32.8855 42.1399L32.78 42.2919C32.411 42.7849 31.8714 43.1259 31.2632 43.2459L21.1548 44.8469L24.8359 49.4199C25.9438 50.8069 26.7314 51.8059 27.1985 52.4179L31.2445 57.7489C43.3029 73.5639 56.2799 88.6639 81.5859 83.4369L82.4439 83.2529C89.1479 81.7619 94.7689 85.7649 101.821 91.6639L103.328 92.9329C105.193 94.5119 110.833 99.4829 113.141 101.877L113.895 102.668L114.591 103.417C114.736 103.575 114.874 103.727 115.005 103.872L115.725 104.683L116.167 104.162C120.94 98.4149 123.93 89.6619 125.478 82.4419C126.062 79.7139 126.398 77.1019 126.538 74.6919L126.555 74.3779C126.591 73.6729 126.607 73.0579 126.61 72.5449V72.1629L125.889 72.3749C117.543 74.7419 108.152 74.9769 98.9889 73.9199C96.7759 73.6649 121.057 53.9979 116.073 28.5289C114.937 22.7249 114.216 14.9639 112.232 9.69588C111.606 8.03388 110.958 6.51488 110.315 5.15688L109.992 4.48389Z" fill="white"/>
<path fill-rule="evenodd" clip-rule="evenodd" d="M487.773 178.989L466.999 189.088C462.019 193.325 461.172 199.627 464.458 207.993C465.611 210.929 468.496 217.921 468.496 215.175C468.496 214.317 487.773 201.716 491.472 202.949C494.891 204.089 488.748 193.813 487.026 189.088L487.773 178.731L488.344 177.699" fill="#F5C754"/>
<path fill-rule="evenodd" clip-rule="evenodd" d="M460.056 186.57C461.437 186.57 453.613 190.25 454.016 197.036C454.419 203.821 459.722 216.328 458.433 216.821C457.143 217.314 454.698 213.668 454.205 212.378C451.138 204.353 450.558 201.079 450.667 196.398C450.811 190.271 454.033 186.57 460.056 186.57Z" fill="#E7EAEE"/>
<path d="M494.87 205.492C497.852 205.492 500.27 200.03 500.27 193.293C500.27 186.556 497.852 181.094 494.87 181.094C491.888 181.094 489.47 186.556 489.47 193.293C489.47 200.03 491.888 205.492 494.87 205.492Z" fill="#E7EAEE"/>
<path fill-rule="evenodd" clip-rule="evenodd" d="M117.675 321.915C117.675 300.747 120.027 291.544 145.281 279.992C197.041 259.071 197.041 258.264 296.201 219.927C322.425 209.84 377.711 234.002 401.752 223.876C417.779 217.126 432.766 212.113 446.008 205.418C447.29 213.791 455.579 227.967 458.498 230.404C442.992 233.658 427.993 238.69 413.501 245.501C382.172 260.223 400.737 256.211 351.114 303.007C346.908 306.973 331.455 316.015 309.11 325.434C309.11 325.434 264.11 319.391 246.062 311.884C227.694 304.244 199.862 279.992 199.862 279.992C199.862 279.992 167.402 301.169 148.741 310.688C140.006 315.143 117.675 321.915 117.675 321.915Z" fill="white"/>
<path fill-rule="evenodd" clip-rule="evenodd" d="M117.675 310.915C117.675 305.946 117.15 302.478 117.675 298.643C119.386 286.139 126.092 279.742 145.419 270.901C197.179 249.98 197.041 247.264 296.201 208.927C322.425 198.84 377.71 223.002 401.751 212.876C417.779 206.126 432.766 201.113 446.008 194.418C446.045 194.658 444.667 206.1 444.667 206.1C444.667 206.1 411.979 223.362 390.356 227.022C367.381 230.911 335.825 212.876 304.316 221.746C256.331 235.254 145.754 277.71 132.673 288.35C122.395 296.71 117.675 310.915 117.675 310.915Z" fill="#F5C754"/>
<path fill-rule="evenodd" clip-rule="evenodd" d="M89.5327 2.26402C88.6757 1.04802 87.2857 0.347024 85.8017 0.528024C84.2817 0.713024 83.0107 1.77002 82.5487 3.22802L82.4247 3.61802C82.3317 3.90502 82.2207 4.23503 82.0897 4.60603C81.7167 5.66403 81.2647 6.83902 80.7307 8.10202C79.2127 11.694 77.3437 15.279 75.1127 18.613C70.2997 25.809 64.5007 30.818 57.7027 32.747C56.6397 33.048 56.0227 34.154 56.3247 35.217C56.6257 36.279 73.1427 28.752 78.4377 20.837C80.8207 17.274 82.8047 13.47 84.4147 9.66003C84.9007 8.51003 85.3237 7.42703 85.6857 6.42803L85.8627 5.93502C86.0037 5.53302 86.1257 5.17202 86.2297 4.85302C86.2557 4.62602 86.2797 4.55002 86.3027 4.62502C97.7597 12.463 93.2557 31.916 94.3567 32.011C95.4067 32.101 96.3377 31.362 96.5017 30.338L96.6257 29.287L96.6607 28.935C97.3647 21.299 96.0287 12.673 90.8867 4.31702C90.4587 3.62302 90.0077 2.93902 89.5327 2.26402Z" fill="#F5C754"/>
<path fill-rule="evenodd" clip-rule="evenodd" d="M113.391 2.20597L113.643 2.65697L113.951 3.23497C114.137 3.59097 114.345 4.00397 114.572 4.47097C115.358 6.08797 116.151 7.91797 116.911 9.93597C119.051 15.616 120.546 21.746 121.057 28.133C121.75 36.8 120.499 44.979 117.33 52.42L117.059 53.045C114.485 58.858 110.735 64.184 105.867 68.962L105.384 69.429L105.794 69.449C112.805 69.744 119.738 69.116 125.832 67.173C127.139 66.756 128.564 66.971 129.69 67.754C130.814 68.536 131.512 69.794 131.582 71.161L131.598 71.585L131.608 72.146V72.362C131.608 73.144 131.585 74.022 131.529 74.983C131.376 77.638 131.008 80.502 130.367 83.492C128.556 91.939 124.936 99.85 119.019 106.516C118.233 107.401 117.129 107.931 115.954 107.994L115.683 108C114.429 107.977 113.283 107.458 112.469 106.573L111.873 105.88L111.581 105.548L110.96 104.859L110.28 104.124C110.043 103.873 109.797 103.614 109.542 103.35C107.37 101.097 104.972 98.864 102.425 96.809C95.3669 91.113 88.5579 87.897 82.7429 88.246C73.2319 88.817 65.3549 88.373 58.0469 86.322C48.5999 83.672 41.1809 78.471 36.2719 70.191L35.9967 69.719C33.4551 65.287 29.7013 60.181 25.2734 54.867C23.905 53.224 22.5553 51.662 21.2688 50.218L20.7214 49.606C19.845 48.631 19.1269 47.854 18.8259 47.538C17.7147 46.367 17.3285 44.687 17.814 43.151L17.8853 42.943C18.4186 41.508 19.6589 40.444 21.1706 40.145L29.2769 38.543L29.3713 38.407C32.2719 34.284 36.4133 30.792 41.9149 29.385C47.6529 27.918 53.6909 29.194 59.7719 33.052L60.1959 33.325C68.4089 38.697 76.5489 38.4 84.2889 34.354C89.8169 31.463 95.0869 26.554 99.0789 20.547C102.792 14.961 104.998 8.98997 105.156 4.27697C105.221 2.30797 106.58 0.61697 108.49 0.13497C110.402 -0.34903 112.402 0.49797 113.391 2.20597ZM109.992 4.48597L109.94 4.88997C109.228 10.06 107.232 17.259 103.623 22.69C99.1789 29.376 92.9079 34.489 86.6059 37.785C77.5149 42.538 67.6189 43.408 57.8749 37.233L57.4449 36.956C52.3249 33.607 48.4389 31.995 43.1079 33.325C37.7769 34.656 35.187 38.539 32.8856 42.142L32.7801 42.294C32.4112 42.787 31.8716 43.128 31.2633 43.248L21.1549 44.849L24.836 49.422C25.944 50.809 26.7315 51.808 27.1986 52.42L31.2447 57.751C43.3029 73.566 56.2799 88.666 81.5859 83.439L82.4439 83.255C89.1479 81.764 94.7689 85.767 101.821 91.666L103.328 92.935C105.193 94.514 110.833 99.485 113.141 101.879L113.895 102.67L114.591 103.419C114.736 103.577 114.874 103.729 115.006 103.874L115.725 104.685L116.167 104.164C120.94 98.417 123.93 89.664 125.478 82.444C126.063 79.716 126.398 77.104 126.538 74.694L126.555 74.38C126.591 73.675 126.607 73.06 126.61 72.547V72.165L125.889 72.377C117.543 74.744 108.152 74.979 98.9889 73.922C96.7759 73.667 121.057 54 116.073 28.531C114.937 22.727 114.216 14.966 112.232 9.69797C111.607 8.03597 110.958 6.51696 110.315 5.15897L109.992 4.48597Z" fill="#E7EAEE"/>
<path fill-rule="evenodd" clip-rule="evenodd" d="M46.6079 49.5C48.5379 49.5 50.1079 47.93 50.1079 46C50.1079 44.07 48.5379 42.5 46.6079 42.5C44.6779 42.5 43.1079 44.07 43.1079 46C43.1079 47.93 44.6779 49.5 46.6079 49.5Z" fill="#00160A"/>
<path d="M49.6079 63.5C52.6455 63.5 55.1079 61.4853 55.1079 59C55.1079 56.5147 52.6455 54.5 49.6079 54.5C46.5703 54.5 44.1079 56.5147 44.1079 59C44.1079 61.4853 46.5703 63.5 49.6079 63.5Z" fill="#FFB61D"/>
<path d="M49.6079 63.5C52.6455 63.5 55.1079 61.4853 55.1079 59C55.1079 56.5147 52.6455 54.5 49.6079 54.5C46.5703 54.5 44.1079 56.5147 44.1079 59C44.1079 61.4853 46.5703 63.5 49.6079 63.5Z" fill="#FFB61D"/>
<path fill-rule="evenodd" clip-rule="evenodd" d="M113.391 2.20597L113.643 2.65697L113.951 3.23497C114.137 3.59097 114.345 4.00397 114.572 4.47097C115.358 6.08797 116.151 7.91797 116.911 9.93597C119.051 15.616 120.546 21.746 121.057 28.133C121.75 36.8 120.499 44.979 117.33 52.42L117.059 53.045C114.485 58.858 110.735 64.184 105.866 68.962L105.384 69.429L105.794 69.449C112.805 69.744 119.737 69.116 125.832 67.173C127.139 66.756 128.564 66.971 129.69 67.754C130.814 68.536 131.512 69.794 131.582 71.161L131.598 71.585L131.608 72.146V72.362C131.608 73.144 131.585 74.022 131.529 74.983C131.375 77.638 131.007 80.502 130.367 83.492C128.556 91.939 124.936 99.85 119.019 106.516C118.233 107.401 117.128 107.931 115.954 107.994L115.683 108C114.428 107.977 113.283 107.458 112.469 106.573L111.873 105.88L111.581 105.548L110.96 104.859L110.279 104.124C110.043 103.873 109.797 103.614 109.542 103.35C107.369 101.097 104.972 98.864 102.425 96.809C95.3659 91.113 88.5579 87.897 82.7429 88.246C73.2309 88.817 65.3549 88.373 58.0469 86.322C48.5989 83.672 41.1809 78.471 36.2717 70.191L35.9966 69.719C33.4549 65.287 29.7011 60.181 25.2733 54.867C23.9049 53.224 22.5551 51.662 21.2686 50.218L20.7213 49.606C19.8448 48.631 19.1267 47.854 18.8258 47.538C17.7146 46.367 17.3284 44.687 17.8138 43.151L17.8852 42.943C18.4184 41.508 19.6588 40.444 21.1705 40.145L29.2768 38.543L29.3712 38.407C32.2717 34.284 36.4131 30.792 41.9139 29.385C47.3289 28 53.0119 29.059 58.7449 32.425C65.0949 30.296 70.5479 25.439 75.1129 18.614C77.3439 15.279 79.2129 11.694 80.7309 8.10297C81.2649 6.83897 81.7169 5.66497 82.0899 4.60597C82.2209 4.23597 82.3319 3.90596 82.4259 3.61796L82.5489 3.22797C83.0109 1.76997 84.2819 0.712968 85.8019 0.528968C87.2859 0.346968 88.6759 1.04797 89.5329 2.26497C90.0089 2.93897 90.4599 3.62397 90.8869 4.31797C94.8779 10.804 96.5769 17.453 96.8079 23.675C97.6019 22.672 98.3609 21.627 99.0789 20.547C102.791 14.961 104.998 8.98997 105.155 4.27697C105.221 2.30797 106.58 0.61697 108.49 0.13497C110.402 -0.34903 112.402 0.49797 113.391 2.20597ZM84.2889 34.354C76.7709 38.284 68.8749 38.677 60.9019 33.773C66.2699 31.291 74.8829 26.152 78.4379 20.838C80.8209 17.275 82.8049 13.47 84.4149 9.65997C84.9009 8.51097 85.3239 7.42797 85.6869 6.42797L85.8629 5.93597C86.0039 5.53297 86.1259 5.17196 86.2299 4.85396C86.2559 4.62596 86.2799 4.54997 86.3029 4.62497C93.9189 9.83597 94.4819 20.178 94.3269 26.555C91.2659 29.822 87.8309 32.502 84.2889 34.354ZM86.6059 37.785C89.6569 36.189 92.6999 34.168 95.5329 31.748C95.7509 31.622 95.9429 31.454 96.0989 31.256C98.8989 28.787 101.474 25.922 103.622 22.69C107.232 17.259 109.227 10.06 109.94 4.88997L109.992 4.48597L110.315 5.15897C110.958 6.51696 111.606 8.03597 112.232 9.69797C113.613 13.364 114.382 18.237 115.105 22.818V22.819C115.42 24.82 115.727 26.766 116.073 28.531C119.893 48.052 106.521 64.164 101.063 70.74C99.3999 72.744 98.4719 73.862 98.9889 73.922C108.152 74.979 117.543 74.744 125.889 72.377L126.61 72.165V72.547C126.607 73.06 126.591 73.675 126.555 74.38L126.538 74.694C126.398 77.104 126.062 79.716 125.478 82.444C123.93 89.664 120.94 98.417 116.167 104.164L115.725 104.685L115.005 103.874C114.874 103.729 114.736 103.577 114.591 103.419L113.895 102.67L113.141 101.879C110.833 99.485 105.193 94.514 103.328 92.935L101.821 91.666C94.7689 85.767 89.1479 81.764 82.4439 83.255L81.5859 83.439C56.2799 88.666 43.3029 73.566 31.2445 57.751L27.1985 52.42C26.7314 51.808 25.9438 50.809 24.8359 49.422L21.1548 44.849L31.2632 43.248C31.8714 43.128 32.411 42.787 32.78 42.294L32.8854 42.142C35.1869 38.539 37.7759 34.656 43.1079 33.325C48.4389 31.995 52.3249 33.607 57.4449 36.956L57.8749 37.233C67.6189 43.408 77.5139 42.538 86.6059 37.785ZM486.716 175.846C488.682 174.89 492.208 176.743 490.162 179.726C487.066 184.241 490.506 194.725 492.602 201.11V201.111V201.112C493.572 204.065 494.253 206.141 493.866 206.344C492.642 206.983 491.132 206.51 490.492 205.286C487.029 198.66 485.04 193.398 484.544 189.398C484.298 187.408 484.243 185.483 484.382 183.625L484.401 183.411L468.391 191.193L468.188 191.379C464.574 194.769 462.984 198.705 465.629 205.677L465.785 206.082C468.656 213.392 473.516 218.635 478.573 218.417L478.968 218.397C490.205 218.171 496.921 214.79 499.318 210.672C502.332 205.495 503.15 199.521 497.527 187.896C496.926 186.654 493.842 178.059 498.205 182.496C502.568 186.933 508.65 206.542 504.716 213.298C501.432 218.938 493.005 221.766 481.456 222.315C481.523 222.609 481.538 222.921 481.492 223.237C480.398 230.661 477.009 235.331 471.343 236.682C467.01 237.715 462.353 236.347 458.087 233.049C443.1 236.267 428.593 241.172 414.564 247.765L412.486 248.749C405.328 252.168 401.224 254.46 398.227 256.688C396.469 257.994 395.017 259.333 393.456 261.055L393.204 261.342C392.446 262.22 390.796 264.235 388.919 266.529L388.915 266.533L388.913 266.536L388.912 266.537L388.911 266.539L388.905 266.546L388.902 266.55C386.403 269.601 383.507 273.139 381.777 275.142L380.941 276.105C373.9 284.172 365.026 293.325 352.829 304.828L352.487 305.141C347.914 309.228 335.762 316.136 320.608 323.103C362.429 321.617 392.586 305.655 411.366 275.189C412.192 273.848 414.037 273.596 415.193 274.666C447.486 304.574 484.903 318.415 527.589 316.254C570.388 314.086 601.796 302.962 621.909 282.991C622.888 282.018 624.471 282.024 625.444 283.004C626.417 283.983 626.411 285.566 625.432 286.539C604.333 307.49 559.538 323.211 515.609 325.435C472.888 327.598 447.398 309.996 414.804 281.064L414.008 280.352L413.723 280.79C393.08 312.073 348.233 334.89 303.478 335.213L302.075 335.218C256.298 335.218 229.897 313.052 199.013 282.756L198.772 282.519L198.662 282.613L197.855 283.292L196.682 284.278L195.964 284.883C167.025 309.236 145.432 327.408 112.95 332.05L111.914 332.195C75.2909 339.604 19.7465 319.867 11.211 310.192C3.3902 301.328 12.5123 306.838 15.0166 308.351C15.2454 308.489 15.4191 308.594 15.5194 308.651C39.7589 322.529 67.7069 327.814 101.239 323.241C105.866 322.609 110.465 321.774 115.034 320.734L114.981 320.241C113.517 306.336 113.508 300.258 115.618 293.282C118.487 283.794 125.454 276.584 137.986 270.852L141.437 269.326C156.917 262.504 169.211 257.382 181.963 252.405L182.897 252.041C184.327 251.485 185.776 250.925 187.255 250.358L188.704 249.805C189.228 249.62 196.059 246.912 206.443 242.795C230.395 233.299 273.252 216.309 301.21 205.499C307.258 203.173 314.581 202.4 323.563 202.864L324.337 202.907C331.066 203.303 337.684 204.216 348.533 206.093L358.066 207.763C368.71 209.605 373.868 210.332 379.89 210.761C381.783 210.896 383.582 211.063 385.292 211.222C391.624 211.81 396.721 212.284 400.781 210.574C404.383 209.057 407.914 207.592 411.374 206.157L411.375 206.156L411.402 206.145H411.403C422.75 201.438 433.334 197.048 443.156 192.165C443.83 187.797 445.551 184.572 448.248 182.448C452.408 179.172 458.297 179.117 463.405 181.103C464.692 181.604 465.329 183.053 464.829 184.339C464.667 184.756 463.627 184.564 462.155 184.293C459.077 183.725 454.112 182.809 451.341 186.376C448.259 190.345 447.235 196.424 449.965 208.394C451.943 217.069 464.767 231.819 470.183 231.819C476.222 231.819 477.634 225.956 478.435 222.631L478.485 222.423C471.303 222.609 465.846 218.064 462.304 209.342L462.131 208.91C458.488 199.634 459.487 192.199 465.378 187.186C465.485 187.095 465.6 187.013 465.72 186.942L465.906 186.842L486.716 175.846ZM453.474 228.529C453.221 228.223 452.971 227.909 452.724 227.588C452.629 227.488 452.54 227.387 452.462 227.293C452.234 227.016 452.001 226.735 451.762 226.449C449.825 224.122 447.58 221.425 445.822 217.537L445.567 216.97C442.747 210.653 442.411 203.557 442.584 197.706L442.61 197.027L442.461 197.102C430.81 202.868 418.136 208.653 404.439 214.456L402.722 215.182C396.857 217.652 389.533 219.397 380.252 218.797L379.535 218.748C373.194 218.296 367.861 217.538 356.678 215.597L348.329 214.133C324.792 210.058 313.014 209.422 303.309 213.051C303.309 213.051 158.576 267.496 140.039 275.41C128.766 280.567 124.941 285.42 120.279 293.282C117.867 297.349 118.111 308.568 118.281 316.36V316.362C118.309 317.668 118.335 318.878 118.347 319.942C145.713 313.098 172.019 298.869 197.282 277.226C198.278 276.373 199.764 276.434 200.686 277.366C202.73 279.433 204.808 281.429 206.92 283.355L311.144 239.812C311.43 239.692 311.725 239.63 312.017 239.619C312.802 239.249 313.649 238.943 314.557 238.701C323.645 236.285 330.903 240.216 335.917 249.892L345.002 243.265C346.342 242.288 348.245 242.862 348.82 244.417C357.11 266.822 354.695 282.174 341.044 289.582C327.277 297.052 315.305 290.892 305.971 272.221C305.498 271.274 305.684 270.179 306.339 269.441C304.114 260.402 303.701 253.2 305.215 247.985L213.901 289.367C227.555 300.452 242.548 308.813 258.891 314.452C259.265 314.094 259.67 313.786 260.068 313.569C273.834 306.028 307.75 297.22 316.128 295.044C316.853 294.856 317.386 294.717 317.699 294.633C321.63 293.58 317.603 297.253 316.416 297.801L316.265 297.865L266.763 316.927C281.489 321.122 297.257 323.218 314.075 323.218C315.032 323.218 315.982 323.211 316.927 323.196L318.034 322.476H318.035L318.036 322.475L318.038 322.474C328.624 315.593 346.325 304.088 349.398 301.19L350.832 299.834C361.024 289.944 368.609 280.457 375.231 272.175C382.495 263.089 388.599 255.454 395.712 250.332C401.242 246.35 403.246 245.44 407.957 243.302C409.217 242.73 410.67 242.07 412.437 241.24C424.931 235.368 439.12 231.969 452.439 228.777L453.474 228.529ZM315.842 243.533C323.043 241.619 328.437 245.001 332.548 254.444L321.926 262.865L321.915 262.869L310.94 267.2L310.666 265.995C307.66 252.371 309.618 245.188 315.842 243.533ZM332.548 254.444L321.935 262.862C322.148 262.778 322.367 262.725 322.586 262.701C322.787 262.68 322.988 262.683 323.184 262.71C323.65 262.772 324.093 262.966 324.457 263.27C324.696 263.47 324.9 263.716 325.054 264.003C327.559 268.514 329.496 269.588 331.462 268.485C333.544 267.318 334.198 262.929 332.677 255.088L332.548 254.444ZM194.846 357.095C196.008 356.347 204.022 352.437 196.885 359.787C189.748 367.136 134.164 398.316 104.16 400.043C75.2409 401.707 49.5649 389.63 27.2253 373.823L26.4849 373.295L26.3373 373.485C25.3484 374.739 24.3323 375.877 23.2881 376.898L22.8388 377.329C20.9466 379.105 17.6717 381.116 12.9401 383.453C11.7022 384.064 7.328 384.627 9.5915 382.318C11.8549 380.01 16.8089 376.687 19.6941 374.781C21.5796 373.536 22.175 372.08 22.7658 370.635C23.079 369.869 23.3909 369.106 23.8931 368.379C24.6995 367.213 26.314 366.95 27.4489 367.8C49.4719 384.306 75.1979 393.105 104.16 391.438C133.241 389.764 163.276 377.408 194.846 357.095ZM365.895 373.034C366.909 372.098 366.909 365.418 365.895 366.354C354.662 376.719 331.145 385.836 302.126 387.506C273.07 389.178 250.226 384.61 233.549 373.886C232.388 373.139 226.639 371.164 230.094 374.637C233.549 378.109 272.383 396.226 302.413 394.497L303.312 394.444C332.902 392.638 353.763 384.229 365.895 373.034ZM345.383 249.733L345.233 249.284L337.706 254.776L337.844 255.552C339.358 264.405 338.325 270.191 334.128 272.719L333.908 272.847C329.532 275.3 325.413 273.567 321.969 268.525L321.818 268.301L311.697 272.389L311.931 272.814C319.667 286.774 328.242 290.657 338.333 285.361L338.659 285.187C348.793 279.688 351.29 268.465 345.734 250.821L345.383 249.733ZM50.1079 46C50.1079 47.93 48.5379 49.5 46.6079 49.5C44.6779 49.5 43.1079 47.93 43.1079 46C43.1079 44.07 44.6779 42.5 46.6079 42.5C48.5379 42.5 50.1079 44.07 50.1079 46Z" fill="#00160A"/>
</svg>
