<svg width="904" height="584" viewBox="0 0 904 584" fill="none" xmlns="http://www.w3.org/2000/svg">
<path d="M783.52 72.3193C790.959 72.3193 796.99 66.2883 796.99 58.8493C796.99 51.4093 790.959 45.3793 783.52 45.3793C776.081 45.3793 770.05 51.4093 770.05 58.8493C770.05 66.2883 776.081 72.3193 783.52 72.3193Z" fill="#D7E8F0"/>
<path d="M820.73 74.6593C826.788 74.6593 831.7 69.7473 831.7 63.6893C831.7 57.6303 826.788 52.7193 820.73 52.7193C814.671 52.7193 809.76 57.6303 809.76 63.6893C809.76 69.7473 814.671 74.6593 820.73 74.6593Z" fill="#D7E8F0"/>
<path d="M613.52 280.91C613.52 280.91 611.6 275.4 617.25 274.36C622.9 273.32 629.95 267.57 633.12 280.91C636.29 294.25 653.39 359.08 649.9 368.82C646.41 378.56 630.14 394.93 629.9 391.4C629.66 387.87 627.47 346.59 623.06 330.05C618.65 313.51 613.52 280.91 613.52 280.91Z" fill="#D7E8F0"/>
<path d="M591.6 217.909C592.21 218.379 594.54 229.459 603.08 230.599C611.62 231.739 618.41 228.599 612.69 217.439C606.97 206.279 602.92 190.149 599.86 198.269C598.926 200.674 597.483 202.848 595.629 204.641C593.775 206.435 591.554 207.805 589.12 208.659L591.6 217.909Z" fill="#D7E8F0"/>
<path d="M575.63 154.5L575.4 154.73C574.4 155.88 573.57 157.29 572.28 158.2C568.78 160.67 561.55 161.14 558.11 159.79C557.97 159.64 557.82 159.49 557.7 159.35C556.23 157.7 554.7 156.06 553.14 154.35C512.14 110.2 434.3 53.0803 323.27 49.3503V42.0003C323.71 42.0003 324.18 42.0003 324.63 42.0003C410.78 42.0003 505.55 88.3303 568.63 147.62C570.45 149.32 572.243 151.033 574.01 152.76C574.52 153.35 575.1 153.91 575.63 154.5Z" fill="#D7E8F0"/>
<path d="M288.7 578.738C286.11 577.128 283.52 575.418 281 573.738" stroke="black" stroke-width="3.68" stroke-miterlimit="10"/>
<path d="M890.36 508.709L793.36 576.969C793.24 576.909 793.13 576.819 793.01 576.759C786.19 572.589 783.1 565.759 777.43 560.509C772.02 555.509 764.91 551.749 757.38 551.749C750.434 551.681 743.706 554.173 738.48 558.749C733.78 563.039 730.78 568.859 726.13 573.209C720.851 578.259 713.835 581.09 706.53 581.119C701.591 581.123 696.732 579.877 692.405 577.497C688.077 575.117 684.422 571.681 681.78 567.509L680.48 565.339C677.835 561.169 674.179 557.736 669.853 555.356C665.526 552.977 660.668 551.73 655.73 551.73C650.792 551.73 645.934 552.977 641.608 555.356C637.281 557.736 633.625 561.169 630.98 565.339L629.69 567.509C627.054 571.675 623.409 575.108 619.093 577.49C614.777 579.873 609.93 581.128 605 581.139C597.701 581.109 590.692 578.277 585.42 573.229C580.75 568.879 577.78 563.059 573.04 558.769C567.816 554.189 561.087 551.696 554.14 551.769C546.65 551.769 539.53 555.499 534.14 560.529C528.47 565.789 525.39 572.609 518.57 576.779C514.011 579.641 508.738 581.158 503.355 581.158C497.972 581.158 492.699 579.641 488.14 576.779C481.32 572.609 478.23 565.779 472.56 560.529C467.15 555.529 460.04 551.769 452.56 551.769C445.614 551.703 438.887 554.195 433.66 558.769C428.96 563.059 425.96 568.879 421.32 573.229C416.037 578.278 409.018 581.109 401.71 581.139C396.771 581.143 391.912 579.897 387.585 577.517C383.257 575.137 379.602 571.701 376.96 567.529L375.67 565.359C373.024 561.19 369.367 557.756 365.04 555.377C360.712 552.998 355.854 551.751 350.915 551.751C345.977 551.751 341.118 552.998 336.791 555.377C332.463 557.756 328.806 561.19 326.16 565.359L324.87 567.529C318.65 577.999 305.31 582.849 293.63 580.189C279.33 576.909 275.62 562.679 264.06 555.909C260.83 554.029 257.14 553.089 253.72 551.579C243 546.909 235.88 537.029 227.41 529.389L252.23 551.799C249.88 549.679 248.4 542.799 246.78 539.799C244.345 535.347 241.538 531.109 238.39 527.129C232.08 519.129 225.33 511.669 219.01 503.639C204.65 485.399 190.09 467.319 175.75 449.059C166.06 436.719 156.47 424.299 147.11 411.699C140.37 402.609 125.11 386.529 135.11 374.759C137.226 372.48 140.105 371.057 143.2 370.759C156.72 368.939 172.54 373.369 185.98 375.009C217.17 378.839 248.33 382.869 279.51 386.749C321.23 391.909 363 397.049 404.65 403.139L411.71 404.209L414.18 404.589C415.42 404.799 416.36 404.979 416.97 405.059L417.74 405.179C417.79 405.186 417.84 405.186 417.89 405.179L884 480.989C887.011 481.482 889.807 482.86 892.032 484.948C894.257 487.036 895.809 489.739 896.491 492.713C897.174 495.686 896.955 498.796 895.863 501.645C894.771 504.494 892.855 506.953 890.36 508.709Z" fill="#F8BAB4"/>
<path d="M793.42 576.979L890.36 508.719C892.86 506.966 894.78 504.507 895.875 501.657C896.97 498.807 897.19 495.695 896.508 492.719C895.825 489.743 894.27 487.038 892.042 484.951C889.814 482.863 887.014 481.487 884 480.999L127.66 357.999C113.99 355.799 104.58 371.349 112.93 382.429L202 500.809C216.847 519.496 233.564 536.618 251.89 551.909" stroke="black" stroke-width="3.68" stroke-miterlimit="10"/>
<path d="M837.68 551.76C837.704 556.979 836.33 562.109 833.701 566.618C831.073 571.127 827.286 574.85 822.733 577.401C818.18 579.952 813.027 581.238 807.809 581.125C802.591 581.012 797.499 579.505 793.06 576.76C786.24 572.58 783.16 565.76 777.48 560.49C772.07 555.49 764.98 551.74 757.48 551.74C750.534 551.674 743.807 554.166 738.58 558.74C733.87 563.04 730.87 568.85 726.22 573.2C720.938 578.244 713.924 581.072 706.62 581.1C701.682 581.101 696.824 579.854 692.497 577.474C688.17 575.095 684.514 571.66 681.87 567.49L680.58 565.32C677.935 561.15 674.279 557.717 669.953 555.337C665.626 552.958 660.768 551.711 655.83 551.711C650.892 551.711 646.035 552.958 641.708 555.337C637.381 557.717 633.725 561.15 631.08 565.32L629.78 567.49C627.141 571.676 623.484 575.124 619.15 577.513C614.817 579.902 609.948 581.153 605 581.15C597.7 581.119 590.689 578.292 585.41 573.25C580.75 568.9 577.76 563.09 573.05 558.79C567.823 554.216 561.096 551.724 554.15 551.79C546.63 551.79 539.53 555.51 534.15 560.54C528.47 565.81 525.39 572.63 518.57 576.81C514.005 579.665 508.729 581.179 503.345 581.179C497.961 581.179 492.685 579.665 488.12 576.81C481.3 572.63 478.22 565.81 472.55 560.54C467.14 555.54 460.04 551.79 452.55 551.79C445.604 551.724 438.877 554.216 433.65 558.79C428.94 563.09 425.95 568.9 421.29 573.25C416.011 578.292 409 581.119 401.7 581.15C396.762 581.154 391.902 579.908 387.575 577.528C383.247 575.148 379.592 571.712 376.95 567.54L375.65 565.37C373.005 561.2 369.349 557.767 365.023 555.387C360.696 553.008 355.838 551.761 350.9 551.761C345.962 551.761 341.104 553.008 336.778 555.387C332.451 557.767 328.795 561.2 326.15 565.37L324.86 567.54C322.216 571.71 318.56 575.145 314.233 577.524C309.906 579.904 305.048 581.151 300.11 581.15C292.807 581.122 285.792 578.294 280.51 573.25C275.86 568.9 272.86 563.09 268.15 558.79C262.923 554.216 256.196 551.724 249.25 551.79C241.73 551.79 234.64 555.51 229.25 560.54C223.57 565.81 220.49 572.63 213.67 576.81C209.231 579.555 204.139 581.062 198.921 581.175C193.703 581.288 188.551 580.002 183.997 577.451C179.444 574.9 175.657 571.177 173.029 566.668C170.4 562.159 169.027 557.029 169.05 551.81" stroke="black" stroke-width="3.68" stroke-miterlimit="10"/>
<path d="M631.62 274.91C639.29 304.66 644.73 335.17 650.81 364.91" stroke="black" stroke-width="3.68" stroke-linecap="round" stroke-linejoin="round"/>
<path d="M2 581.141V363.201C2 185.831 145.8 42.0313 323.17 42.0313C409.33 42.0313 504.1 88.3613 567.17 147.651C568.99 149.351 570.783 151.064 572.55 152.791C573.1 153.351 573.69 153.911 574.22 154.501" stroke="black" stroke-width="3.68" stroke-linecap="round" stroke-linejoin="round"/>
<path d="M598.58 188.18C603.801 197.682 608.511 207.456 612.69 217.459C612.98 218.199 613.31 218.899 613.6 219.639C614.6 222.049 615.6 224.46 616.48 226.9" stroke="black" stroke-width="3.68" stroke-linecap="round" stroke-linejoin="round"/>
<path d="M766.26 129.851C766.26 129.851 753.55 153.451 783.92 155.411C814.29 157.371 834.1 133.211 834.1 133.211" stroke="black" stroke-width="3.68" stroke-linecap="round" stroke-linejoin="round"/>
<path d="M708.87 328.911C713.43 330.851 718.07 332.761 722.8 334.551C711.345 331.728 699.37 331.78 687.94 334.701C686 335.231 670.08 341.941 667.94 341.621C668.25 334.621 671.05 309.751 672.94 305.621C681.13 309.541 702.52 326.201 708.87 328.911Z" fill="#225560"/>
<path d="M895.47 252.909L886.09 278.459C886.09 278.459 862.93 225.459 811.09 246.459C811.09 246.459 802.93 277.829 759.94 269.359C715.62 260.639 690.16 249.709 691.24 243.749C692.41 237.339 698.32 225.309 699.69 226.219C702.299 218.955 705.622 211.968 709.61 205.359C711.36 202.469 711.47 205.359 711.56 203.359C712.94 173.569 686.3 167.359 686.3 167.359C708.82 146.109 737.07 133.199 765.91 128.359C765.91 128.359 756.47 148.209 772.34 152.909C788.21 157.609 806.21 158.579 838.19 132.189C838.21 132.249 926.25 150.089 895.47 252.909Z" fill="#EC9A4A"/>
<path d="M874.25 299.531C871.81 312.121 847 432.841 786.89 457.831C798.03 404.531 757.64 361.031 757.64 361.031C750.46 349.301 741.5 342.161 732.39 338.031C771.39 351.171 814.16 355.381 848.73 327.511C858.569 319.493 867.168 310.064 874.25 299.531Z" fill="#225560"/>
<path d="M766.75 374.82C757.05 358.82 744.97 341.51 722.89 335.13C699.17 328.25 672.07 334.43 659.66 352.13C649.55 366.59 640.17 381.44 630.18 396.02C627.27 400.31 624.27 404.6 621.18 408.83C617.3 414.24 613.39 419.62 609.51 425C607.07 428.38 604.66 431.76 602.22 435.11" stroke="black" stroke-width="3.68" stroke-miterlimit="10"/>
<path d="M666.39 344.799C659.449 340.91 652.229 337.541 644.79 334.719" stroke="black" stroke-width="3.68" stroke-miterlimit="10"/>
<path d="M442 409.121C457.52 397.451 473.07 385.781 488.33 373.731C514.25 353.301 539.56 331.101 573.63 326.081C590.061 323.745 606.781 324.443 622.96 328.141" stroke="black" stroke-width="3.68" stroke-miterlimit="10"/>
<path d="M874.46 298.34C874.46 298.34 845.07 460.27 765.91 462.28" stroke="black" stroke-width="3.68" stroke-miterlimit="10"/>
<path d="M736.8 436.93L724.64 455.09" stroke="black" stroke-width="3.68" stroke-miterlimit="10"/>
<path d="M551.26 426.909C550.9 426.849 557.01 423.319 564.43 419.129C571.576 415.089 579.842 413.483 587.981 414.553C596.12 415.623 603.69 419.31 609.55 425.059" stroke="black" stroke-width="3.68" stroke-miterlimit="10"/>
<path d="M588 209.082C589.85 213.262 593.31 220.652 595.2 225.272" stroke="black" stroke-width="3.68" stroke-linecap="round" stroke-linejoin="round"/>
<path d="M630.18 396.07C627.92 353.56 620 302.74 612 275.14" stroke="black" stroke-width="3.68" stroke-linecap="round" stroke-linejoin="round"/>
<path d="M689.71 243.789C696.188 229.019 703.958 214.851 712.93 201.449" stroke="black" stroke-width="3.68" stroke-linecap="round" stroke-linejoin="round"/>
<path d="M672.2 303.91C669.32 318.91 667.05 332.15 665.67 342.8" stroke="black" stroke-width="3.68" stroke-linecap="round" stroke-linejoin="round"/>
<path d="M778.45 126.808C774.25 127.188 770.067 127.725 765.9 128.418C737.06 133.268 708.81 146.178 686.29 167.418C680.747 172.634 675.633 178.289 671 184.328C665.62 191.268 660.62 203.588 650.95 205.198C640.19 206.968 631.46 196.328 625.47 188.978C615.88 177.218 606.21 165.548 597.13 153.378C593.01 147.848 589.13 140.948 581.84 139.268C575.96 137.918 569.32 142.148 564.74 145.378" stroke="black" stroke-width="3.68" stroke-linecap="round" stroke-linejoin="round"/>
<path d="M594.42 192.449C598.23 191.159 599.09 195.699 599.09 195.699C599.315 197.561 599.038 199.449 598.287 201.167C597.536 202.885 596.339 204.37 594.82 205.469C589.77 209.469 582.89 210.879 576.57 210.659C573.57 210.559 569.7 209.929 567.81 207.379C565.92 204.829 565.81 201.289 566.37 198.179" stroke="black" stroke-width="3.68" stroke-linecap="round" stroke-linejoin="round"/>
<path d="M549.31 152.341C547.354 153.456 545.649 154.96 544.298 156.761C542.948 158.562 541.982 160.621 541.46 162.811C540.968 164.621 541.159 166.548 541.996 168.226C542.833 169.904 544.258 171.216 546 171.911C554.893 176.03 564.983 176.766 574.38 173.981C579.38 172.491 582.57 169.311 586.01 165.651C586.756 164.849 587.334 163.906 587.709 162.876C588.084 161.847 588.248 160.753 588.193 159.659C588.137 158.565 587.861 157.493 587.383 156.508C586.905 155.522 586.234 154.642 585.41 153.921C584.428 153.083 583.264 152.485 582.011 152.174C580.758 151.863 579.45 151.849 578.19 152.131C577.231 152.369 576.33 152.797 575.54 153.391C574.971 153.773 574.447 154.219 573.98 154.721C573.081 155.994 572.038 157.159 570.87 158.191C566.53 161.271 556.3 161.241 554.97 158.461" stroke="black" stroke-width="3.68" stroke-linecap="round" stroke-linejoin="round"/>
<path d="M588.11 161.031C590.715 161.894 592.92 163.67 594.32 166.031C598.5 173.801 589.61 181.381 583.25 183.821C575.82 186.661 567.78 186.631 559.98 185.821C556.32 185.451 551.89 185.521 549.17 182.631C548.106 181.521 547.344 180.157 546.958 178.669C546.571 177.181 546.571 175.619 546.96 174.131C547.103 173.609 547.315 173.108 547.59 172.641" stroke="black" stroke-width="3.68" stroke-linecap="round" stroke-linejoin="round"/>
<path d="M594.67 173.648C594.67 173.648 600.91 176.398 600.29 183.008C599.57 190.678 592.29 194.588 585.58 196.418C579.554 197.971 573.323 198.578 567.11 198.218C565.467 198.185 563.833 197.963 562.24 197.558C557.37 196.188 553.44 190.958 554.64 185.818C554.64 185.648 554.73 185.468 554.78 185.298" stroke="black" stroke-width="3.68" stroke-linecap="round" stroke-linejoin="round"/>
<path d="M609.68 210.562C614.759 208.845 620.156 208.278 625.48 208.902C631.089 209.392 636.511 211.161 641.33 214.071C646.33 217.341 650.84 221.702 655.75 225.182C666.18 232.612 677.23 238.772 688.54 244.722C714.06 258.132 756.54 270.091 770.15 269.641L771.89 269.562C781.89 269.002 791.89 266.212 799.83 260.022C805.854 255.264 810.483 248.969 813.23 241.802C815.458 236.261 816.56 230.332 816.47 224.362C816.42 222.472 816.47 218.602 814.69 217.362" stroke="black" stroke-width="3.68" stroke-linecap="round" stroke-linejoin="round"/>
<path d="M613.6 219.64C618.89 219.64 618.6 226.221 614.83 228.371C614.211 228.714 613.562 228.998 612.89 229.22L612.25 229.4" stroke="black" stroke-width="3.68" stroke-linecap="round" stroke-linejoin="round"/>
<path d="M834 132.25C837.29 133.13 840.58 134.13 843.87 135.25L844.99 135.61C861.36 141.13 878.29 149.72 888.44 164.27C898.72 179.08 902.28 197.4 901.44 215.21C899.5 257.13 881.86 300.6 848.7 327.38C829.33 343.01 805.03 349.28 780.41 347.92C768.239 347.127 756.189 345.022 744.47 341.64C731.9 338.14 719.25 333.96 707.55 328.14C703.83 326.29 700.18 324.28 696.64 322.14C684.73 314.85 673.99 305.86 663.64 296.5C658.78 292.08 653.8 287.7 649.09 283.14C645.09 279.29 640.93 275.21 635.56 273.43C633.461 272.742 631.256 272.437 629.05 272.53C622.2 272.85 615.7 275.62 608.77 274.71C589.04 272.15 582.11 253.57 579.4 236.23C578.67 231.5 578.4 225 583.34 222.35C584.219 221.865 585.139 221.46 586.09 221.14C587.691 220.652 589.411 220.722 590.967 221.338C592.524 221.954 593.825 223.079 594.66 224.53C595.929 226.943 597.982 228.853 600.482 229.943C602.981 231.034 605.777 231.241 608.41 230.53L612.18 229.53L612.82 229.35" stroke="black" stroke-width="3.68" stroke-linecap="round" stroke-linejoin="round"/>
<path d="M556.7 159.849L556.26 159.349C554.79 157.699 553.26 156.059 551.7 154.349C510.7 110.199 432.85 53.0793 321.82 49.3493V41.9693" stroke="black" stroke-width="3.68" stroke-miterlimit="10"/>
<path d="M843.31 44.7793V44.6893C842.293 38.6383 839.347 33.0783 834.91 28.8393C828.05 22.5393 818.28 20.6093 809.5 20.4193C806.01 20.3553 802.543 21.0043 799.312 22.3273C796.081 23.6493 793.154 25.6163 790.71 28.1093C786.88 23.4893 789.32 17.4393 789.32 17.4393C792.32 10.5993 797.32 8.01933 803.32 8.03933C818.6 8.08933 839.82 25.2993 847.11 31.6993C848.18 32.6293 848.94 33.3393 849.35 33.6993C853.71 37.8493 847.71 60.9093 843.31 44.7793Z" fill="#225560"/>
<path d="M803.29 8.03934C808.83 3.53934 818.8 -1.38065 831.96 5.17935C846.78 12.5794 847.76 25.1093 847.08 31.6993L803.29 8.03934Z" fill="#225560"/>
<path d="M812.81 109.498C812.81 109.498 774.81 120.638 778.3 73.3983C779.156 63.2933 780.764 53.2653 783.11 43.3983C783.36 42.3983 783.59 41.3983 783.84 40.3283C784.943 35.7293 787.28 31.5183 790.6 28.1483" stroke="black" stroke-width="3.68" stroke-linecap="round" stroke-linejoin="round"/>
<path d="M843.2 44.6913V44.7813C845.73 57.5913 841.79 70.9413 841.52 71.7813" stroke="black" stroke-width="3.68" stroke-linecap="round" stroke-linejoin="round"/>
<path d="M841.52 71.9103C845.52 66.6403 853.99 71.5203 851.17 77.5103C848.23 83.7603 839.17 89.7403 839.17 89.7403L833.52 134.32" stroke="black" stroke-width="3.68" stroke-linecap="round" stroke-linejoin="round"/>
<path d="M843.2 44.6884C838.75 28.6884 817.77 35.3683 800.88 32.9083C795.51 32.1283 792.37 30.2783 790.6 28.1083C793.044 25.6163 795.971 23.6483 799.202 22.3263C802.433 21.0043 805.9 20.3543 809.39 20.4183C818.17 20.6083 827.94 22.5384 834.8 28.8384C839.237 33.0774 842.183 38.6374 843.2 44.6884Z" fill="black"/>
<path d="M843.22 44.7793V44.6893C842.203 38.6383 839.256 33.0783 834.82 28.8393C827.96 22.5393 818.19 20.6093 809.41 20.4193C805.919 20.3553 802.453 21.0043 799.222 22.3273C795.991 23.6493 793.064 25.6163 790.62 28.1093C786.79 23.4893 789.23 17.4393 789.23 17.4393C792.23 10.5993 797.23 8.01933 803.23 8.03933C818.51 8.08933 839.73 25.2993 847.02 31.6993C848.09 32.6293 848.85 33.3393 849.26 33.6993C853.62 37.8493 847.62 60.9093 843.22 44.7793Z" stroke="black" stroke-width="3.68" stroke-linecap="round" stroke-linejoin="round"/>
<path d="M803.2 8.03934C808.74 3.53934 818.71 -1.38065 831.87 5.17935C846.69 12.5794 847.67 25.1093 846.99 31.6993" stroke="black" stroke-width="3.68" stroke-linecap="round" stroke-linejoin="round"/>
<path d="M820.73 79.1593C829.274 79.1593 836.2 72.2323 836.2 63.6893C836.2 55.1453 829.274 48.2193 820.73 48.2193C812.186 48.2193 805.26 55.1453 805.26 63.6893C805.26 72.2323 812.186 79.1593 820.73 79.1593Z" stroke="black" stroke-width="3.68" stroke-linecap="round" stroke-linejoin="round"/>
<path d="M783.52 72.3193C790.959 72.3193 796.99 66.2883 796.99 58.8493C796.99 51.4093 790.959 45.3793 783.52 45.3793C776.081 45.3793 770.05 51.4093 770.05 58.8493C770.05 66.2883 776.081 72.3193 783.52 72.3193Z" stroke="white" stroke-width="3.68" stroke-linecap="round" stroke-linejoin="round"/>
<path d="M783.52 74.3193C792.064 74.3193 798.99 67.3933 798.99 58.8493C798.99 50.3053 792.064 43.3793 783.52 43.3793C774.976 43.3793 768.05 50.3053 768.05 58.8493C768.05 67.3933 774.976 74.3193 783.52 74.3193Z" stroke="black" stroke-width="3.68" stroke-linecap="round" stroke-linejoin="round"/>
<path d="M805.5 61.0203L798.93 60.1603L794.96 78.4003L801.8 78.4703" stroke="black" stroke-width="3.68" stroke-linecap="round" stroke-linejoin="round"/>
<path d="M847.84 49.9103C849.448 56.4593 849.156 63.3313 847 69.7203C847 69.7203 841.21 73.0803 842.94 66.6303C844.67 60.1803 843.94 50.1303 843.94 50.1303L847.84 49.9103Z" fill="black"/>
<path d="M786.89 107.988L777.03 137.238" stroke="black" stroke-width="3.68" stroke-linecap="round" stroke-linejoin="round"/>
<path d="M821.62 84.6103C823.44 82.7003 825.52 91.5003 825.62 92.4203C825.75 95.1303 824.08 96.0503 821.62 96.6303C814.827 98.1313 807.718 96.9753 801.75 93.4003C800.75 92.8003 798.75 91.7203 798.7 90.4003C805.76 90.8303 815.45 90.1503 820.98 85.2803C821.18 85.0403 821.41 84.8303 821.62 84.6103Z" stroke="black" stroke-width="3.68" stroke-miterlimit="10"/>
<path d="M814.79 62.9993C816.052 62.8273 817.336 62.9163 818.562 63.2603C819.789 63.6043 820.931 64.1963 821.92 64.9993" stroke="black" stroke-width="3.68" stroke-linecap="round" stroke-linejoin="round"/>
<path d="M786.51 58.9093C787.772 58.7373 789.056 58.8263 790.282 59.1703C791.508 59.5143 792.651 60.1063 793.64 60.9093" stroke="black" stroke-width="3.68" stroke-linecap="round" stroke-linejoin="round"/>
<path d="M732.39 337.98C729.15 336.9 725.98 335.75 722.8 334.57C726.09 335.425 729.299 336.566 732.39 337.98Z" fill="#2E2E2E"/>
<path d="M411.71 404.211L414.18 404.591C413.48 404.501 412.62 404.361 411.71 404.211Z" fill="#3FBDF1"/>
</svg>
