<svg width="903" height="500" viewBox="0 0 903 500" fill="none" xmlns="http://www.w3.org/2000/svg">
<path d="M855.991 496.853H570.761H590.521L770.921 494.763C804.271 491.863 827.771 459.153 815.101 428.183C812.911 422.833 815.201 421.343 812.491 416.183C784.131 362.783 734.961 319.283 679.241 294.013C680.621 293.753 682.011 293.563 683.431 293.373C673.055 288.177 662.368 283.625 651.431 279.743C645.631 277.673 639.761 275.803 633.901 274.163C605.091 266.043 566.161 269.753 553.901 301.653C543.591 328.433 557.281 360.783 583.031 372.513L629.281 390.193C628.891 389.613 628.541 389.033 628.181 388.423L668.401 403.793C669.199 404.352 669.808 405.142 670.144 406.056C670.481 406.971 670.531 407.966 670.286 408.909C670.041 409.853 669.514 410.699 668.775 411.334C668.036 411.969 667.12 412.363 666.151 412.463L568.471 423.133C554.391 424.553 536.761 430.443 526.381 440.133C518.811 447.133 512.431 456.663 512.491 468.723C506.107 469.204 499.76 470.096 493.491 471.393C483.921 473.453 474.181 477.003 473.491 482.833C472.131 494.533 488.761 496.913 499.241 496.913L432.921 496.653C440.041 496.653 440.921 496.593 445.641 491.893C450.361 487.193 455.641 483.573 455.641 476.453L456.221 453.633C456.221 448.933 457.341 445.133 452.641 445.133H410.641C412.351 445.18 414.038 444.733 415.501 443.846C416.964 442.96 418.141 441.671 418.891 440.133C418.923 440.097 418.944 440.052 418.951 440.003C421.051 436.103 421.531 430.493 421.141 425.183L421.631 423.443L422.891 418.803L449.571 403.103C449.771 402.987 449.965 402.86 450.151 402.723C464.071 394.213 465.811 379.003 461.041 365.403C460.941 365.143 460.881 364.913 460.781 364.693C460.561 364.113 460.361 363.563 460.111 363.013C458.837 359.912 457.26 356.944 455.401 354.153C448.511 343.393 438.511 334.623 429.011 332.333C426.346 331.731 423.623 331.429 420.891 331.433C453.951 300.433 492.041 272.883 537.031 263.723C576.395 255.591 617.104 256.652 655.991 266.823C701.431 278.913 742.351 304.013 774.801 337.913C818.481 383.483 838.911 436.723 855.991 496.853Z" fill="#EC9A4A"/>
<path d="M411.591 359.842C410.023 362.93 407.457 365.396 404.311 366.842C401.624 368.193 398.779 369.201 395.841 369.842C391.001 370.652 389.291 367.592 386.201 364.592C384.439 362.89 382.413 361.485 380.201 360.432C378.875 359.781 377.422 359.432 375.946 359.41C374.469 359.387 373.006 359.692 371.661 360.302C370.751 360.708 369.977 361.369 369.434 362.204C368.891 363.04 368.602 364.016 368.601 365.012C368.801 368.682 373.861 371.582 376.721 373.102C380.455 374.866 384.336 376.298 388.321 377.382C398.091 380.382 381.821 386.632 378.401 387.022C371.086 388.013 363.661 387.837 356.401 386.502C358.485 391.159 360.084 396.018 361.171 401.002C362.301 405.772 363.621 411.512 362.691 416.312C361.561 421.952 357.751 426.142 353.051 428.982L334.781 352.762C341.518 349.553 348.845 347.771 356.303 347.526C363.761 347.282 371.189 348.581 378.121 351.342C380.433 352.195 382.94 352.365 385.346 351.833C387.752 351.301 389.954 350.09 391.691 348.342L393.561 346.532C396.165 345.966 398.879 346.181 401.361 347.152C405.791 348.822 413.991 354.192 411.591 359.842Z" fill="#225560"/>
<path d="M430.351 445.071H354.911C354.148 452.187 350.781 458.77 345.457 463.554C340.133 468.337 333.228 470.982 326.071 470.981H72.4507C72.4667 477.84 75.1987 484.413 80.0487 489.263C84.8987 494.113 91.4717 496.845 98.3307 496.861H430.331C437.19 496.837 443.762 494.104 448.615 489.256C453.469 484.409 456.209 477.84 456.241 470.981V453.581C456.241 451.324 455.344 449.159 453.749 447.563C452.153 445.967 449.988 445.071 447.731 445.071H430.351Z" stroke="black" stroke-width="4.83" stroke-miterlimit="10"/>
<path d="M313.851 275.892C316.08 278.962 317.68 282.442 318.561 286.132L354.301 435.132C355.091 438.366 355.297 441.716 354.911 445.022C354.148 452.139 350.781 458.722 345.457 463.505C340.133 468.288 333.228 470.933 326.071 470.932H67.7409C61.2189 470.928 54.8869 468.729 49.7664 464.69C44.6455 460.65 41.0332 455.004 39.5109 448.662L3.81088 299.662C2.77978 295.394 2.73138 290.947 3.66938 286.657C4.60728 282.368 6.50718 278.347 9.22568 274.899C11.9442 271.45 15.4103 268.664 19.3625 266.751C23.3147 264.837 27.6498 263.846 32.0409 263.852H290.331C294.574 263.846 298.766 264.776 302.608 266.575C306.451 268.374 309.849 270.999 312.561 274.262L313.851 275.892Z" stroke="black" stroke-width="4.83" stroke-miterlimit="10"/>
<path d="M188.524 408.246C203.235 403.607 210.935 386.444 205.722 369.91C200.509 353.376 184.357 343.733 169.645 348.371C154.934 353.01 147.234 370.173 152.447 386.707C157.66 403.241 173.812 412.884 188.524 408.246Z" fill="#F8BAB4" fill-opacity="0.32"/>
<path d="M684.841 292.502C662.051 296.312 644.531 306.732 632.771 328.302C622.241 347.602 621.011 371.152 632.241 390.302L586.391 372.722C559.841 360.562 550.501 333.542 561.141 305.792C573.791 272.732 613.931 268.892 643.641 277.312C649.691 279.012 655.731 280.952 661.711 283.092C669.524 285.892 677.234 289.029 684.841 292.502Z" fill="#225560"/>
<path d="M401.221 445.083H408.311C410.349 445.133 412.371 444.706 414.216 443.839C416.061 442.971 417.679 441.685 418.941 440.083C418.974 440.046 418.998 440.002 419.011 439.953C421.554 436.476 422.712 432.178 422.261 427.893L421.681 423.383L421.201 419.743L422.941 418.743L450.201 402.663L452.041 401.603C465.351 393.773 466.311 379.173 461.091 365.343C461.001 365.093 460.931 364.863 460.841 364.633C460.611 364.053 460.381 363.513 460.161 362.963C458.826 359.891 457.251 356.929 455.451 354.103C448.561 343.333 438.571 334.573 429.061 332.283C426.397 331.676 423.673 331.374 420.941 331.383C415.241 331.383 408.941 332.473 405.631 335.763C440.991 300.973 482.301 268.323 531.991 258.193C571.372 250.075 612.096 251.156 650.991 261.353C696.431 273.443 737.391 298.574 769.841 332.474C771.551 334.254 773.221 336.053 774.841 337.893C815.511 382.593 841.451 439.053 857.841 496.833" stroke="black" stroke-width="4.83" stroke-miterlimit="10"/>
<path d="M413.691 496.864H902.991" stroke="black" stroke-width="4.83" stroke-miterlimit="10"/>
<path d="M536.871 496.852H592.391" stroke="black" stroke-width="3.22" stroke-miterlimit="10"/>
<path d="M583.281 372.25C557.521 360.52 543.841 328.17 554.141 301.4C566.421 269.49 605.351 265.78 634.141 273.9C640.021 275.547 645.864 277.407 651.671 279.48C716.401 302.48 775.221 350.23 807.341 410.73C810.051 415.85 812.211 421.11 814.401 426.47C817.353 433.671 818.571 441.465 817.955 449.223C817.339 456.982 814.908 464.486 810.857 471.131C806.806 477.776 801.249 483.375 794.634 487.477C788.02 491.578 780.534 494.066 772.781 494.74L592.391 496.85H536.871C531.966 496.851 527.184 495.316 523.195 492.461C519.207 489.606 516.212 485.574 514.631 480.93C508.541 462.93 516.411 449.35 526.361 440.1C536.741 430.46 550.281 424.95 564.361 423.53L665.701 413.29C666.671 413.191 667.588 412.797 668.329 412.162C669.07 411.527 669.599 410.681 669.845 409.737C670.092 408.794 670.045 407.797 669.71 406.881C669.375 405.965 668.768 405.172 667.971 404.61L583.281 372.25Z" stroke="black" stroke-width="4.83" stroke-miterlimit="10"/>
<path d="M553.071 443.192C543.821 448.512 534.311 456.842 531.131 467.392C527.471 479.542 536.061 490.582 545.821 496.902" stroke="black" stroke-width="4.83" stroke-miterlimit="10"/>
<path d="M562.991 457.133C554.361 465.343 546.881 475.753 551.871 488.133C553.298 491.53 555.52 494.535 558.351 496.893" stroke="black" stroke-width="4.83" stroke-miterlimit="10"/>
<path d="M579.921 473.192C579.921 473.192 560.051 487.962 572.671 496.822" stroke="black" stroke-width="4.83" stroke-miterlimit="10"/>
<path d="M528.921 495.441L529.271 496.861H497.211C486.731 496.861 472.211 495.251 473.581 483.551C474.951 471.851 512.481 468.661 512.481 468.661" stroke="black" stroke-width="4.83" stroke-miterlimit="10"/>
<path d="M471.411 127.531L403.181 137.741L415.071 146.121L437.311 163.931C440.791 166.381 439.921 172.161 441.851 175.671C442.584 180.969 441.751 186.365 439.456 191.196C437.161 196.026 433.503 200.08 428.933 202.858C424.363 205.637 419.08 207.018 413.735 206.832C408.391 206.645 403.217 204.9 398.851 201.811L345.201 164.071C339.279 159.982 334.526 154.419 331.411 147.931C327.021 126.081 340.491 101.781 366.411 97.9307L440.991 86.7307L429.991 78.1908L396.121 51.8307C393.22 49.5847 390.799 46.7787 389.001 43.5807C388.248 38.1667 389.129 32.6507 391.531 27.7397C393.934 22.8297 397.748 18.7487 402.486 16.0207C407.223 13.2927 412.667 12.0417 418.12 12.4287C423.573 12.8147 428.786 14.8217 433.091 18.1907L493.511 65.1908C498.452 68.9858 502.446 73.8727 505.181 79.4707C509.301 100.591 496.121 123.821 471.411 127.531Z" fill="#F8BAB4"/>
<path d="M421.211 419.731C421.211 419.731 419.131 401.431 412.081 394.981" stroke="black" stroke-width="4.83" stroke-miterlimit="10"/>
<path d="M334.081 354.044C340.889 350.7 348.322 348.821 355.901 348.528C363.48 348.235 371.036 349.535 378.081 352.344C380.396 353.198 382.907 353.369 385.316 352.837C387.725 352.305 389.931 351.093 391.671 349.344L405.601 335.704" stroke="black" stroke-width="4.83" stroke-miterlimit="10"/>
<path d="M378.361 431.78L389.991 437.01C390.25 437.117 390.528 437.168 390.808 437.161C391.088 437.153 391.363 437.087 391.616 436.966C391.868 436.846 392.093 436.673 392.274 436.46C392.456 436.247 392.591 435.999 392.671 435.73L394.501 431.59" stroke="black" stroke-width="4.83" stroke-miterlimit="10"/>
<path d="M380.261 408.68C381.236 410.918 381.574 413.38 381.239 415.798C380.903 418.215 379.908 420.493 378.361 422.38" stroke="black" stroke-width="3.22" stroke-miterlimit="10"/>
<path d="M406.641 445.071C408.471 442.361 408.461 435.81 407.991 433.18C407.691 431.51 404.881 430.911 404.581 432.591C403.761 437.281 398.471 444.491 393.581 445.071" stroke="black" stroke-width="4.83" stroke-miterlimit="10"/>
<path d="M383.161 427.392C391.407 427.392 398.091 420.707 398.091 412.462C398.091 404.216 391.407 397.532 383.161 397.532C374.915 397.532 368.231 404.216 368.231 412.462C368.231 420.707 374.915 427.392 383.161 427.392Z" stroke="black" stroke-width="4.83" stroke-miterlimit="10"/>
<path d="M378.161 426.52L375.501 434C373.654 433.342 371.695 433.054 369.737 433.153C367.779 433.252 365.859 433.736 364.088 434.577C362.317 435.419 360.729 436.601 359.415 438.057C358.101 439.512 357.087 441.212 356.431 443.06" stroke="black" stroke-width="4.83" stroke-miterlimit="10"/>
<path opacity="0.53" d="M383.161 425.101C390.142 425.101 395.801 419.442 395.801 412.461C395.801 405.48 390.142 399.821 383.161 399.821C376.18 399.821 370.521 405.48 370.521 412.461C370.521 419.442 376.18 425.101 383.161 425.101Z" fill="white"/>
<path d="M352.991 429.963C357.691 427.123 361.491 422.963 362.621 417.303C363.561 412.493 362.241 406.763 361.111 401.993C360.025 397.008 358.427 392.149 356.341 387.493C363.601 388.825 371.027 388.997 378.341 388.003C381.751 387.623 398.031 381.403 388.261 378.373C384.277 377.292 380.399 375.856 376.671 374.083C373.791 372.593 368.741 369.693 368.561 366.013C368.549 365.019 368.826 364.042 369.358 363.202C369.891 362.363 370.656 361.696 371.561 361.283C372.907 360.676 374.371 360.374 375.848 360.4C377.324 360.426 378.777 360.779 380.101 361.433C382.319 362.476 384.347 363.882 386.101 365.593C389.201 368.593 390.891 371.593 395.751 370.823C398.685 370.191 401.525 369.182 404.201 367.823C407.354 366.38 409.927 363.913 411.501 360.823C413.921 355.193 405.701 349.823 401.241 348.213C398.763 347.24 396.054 347.017 393.451 347.573" stroke="black" stroke-width="4.83" stroke-miterlimit="10"/>
<path d="M471.411 127.531L403.181 137.741L415.071 146.121L430.451 156.921C433.47 158.966 436.051 161.592 438.045 164.645C440.038 167.698 441.403 171.118 442.06 174.704C442.716 178.291 442.652 181.972 441.871 185.534C441.089 189.095 439.606 192.465 437.507 195.447C435.409 198.429 432.737 200.963 429.649 202.901C426.56 204.839 423.117 206.142 419.519 206.735C415.921 207.327 412.241 207.197 408.695 206.352C405.148 205.506 401.805 203.963 398.861 201.811L345.211 164.071C339.289 159.982 334.536 154.419 331.421 147.931C320.011 124.241 333.351 92.6908 363.161 88.2408L422.331 79.3808L429.991 78.1908L396.121 51.8307C393.277 49.6177 390.897 46.8657 389.117 43.7327C387.337 40.5997 386.191 37.1457 385.745 33.5697C385.3 29.9947 385.563 26.3658 386.519 22.8908C387.476 19.4168 389.108 16.1647 391.321 13.3207C393.534 10.4777 396.286 8.09775 399.42 6.31675C402.553 4.53675 406.006 3.39075 409.582 2.94575C413.158 2.49975 416.787 2.76276 420.261 3.71976C423.735 4.67576 426.987 6.30776 429.831 8.52076L490.251 55.5207C497.985 61.4027 503.284 69.9237 505.141 79.4607C509.301 100.591 496.121 123.821 471.411 127.531Z" stroke="black" stroke-width="4.83" stroke-miterlimit="10"/>
<path d="M321.651 243.522L320.991 226.092L313.261 234.012C311.95 235.352 310.16 236.117 308.286 236.14C306.411 236.162 304.604 235.44 303.261 234.132C301.921 232.821 301.156 231.031 301.133 229.157C301.111 227.282 301.833 225.475 303.141 224.132L316.991 209.992C318.418 208.531 320.243 207.521 322.238 207.087C324.234 206.653 326.313 206.813 328.218 207.549C330.123 208.284 331.771 209.562 332.957 211.225C334.143 212.887 334.815 214.861 334.891 216.902L335.541 234.682L341.241 228.252C341.857 227.554 342.605 226.985 343.442 226.578C344.278 226.17 345.187 225.931 346.116 225.875C347.045 225.819 347.976 225.948 348.856 226.253C349.735 226.558 350.546 227.033 351.241 227.652C351.938 228.268 352.507 229.016 352.915 229.852C353.323 230.688 353.562 231.597 353.619 232.526C353.675 233.454 353.548 234.385 353.245 235.265C352.942 236.144 352.468 236.956 351.851 237.652L340.621 250.322C339.188 251.957 337.297 253.123 335.192 253.668C333.088 254.214 330.868 254.113 328.821 253.379C326.775 252.646 324.997 251.313 323.718 249.555C322.439 247.797 321.719 245.695 321.651 243.522Z" fill="#F8BAB4" fill-opacity="0.32"/>
<path d="M379.591 274.963L387.821 273.123L383.371 270.123C382.617 269.614 382.095 268.828 381.919 267.937C381.743 267.045 381.927 266.119 382.431 265.363C382.939 264.608 383.726 264.086 384.618 263.912C385.511 263.738 386.436 263.925 387.191 264.433L395.131 269.743C395.954 270.292 396.597 271.071 396.981 271.983C397.365 272.895 397.473 273.9 397.291 274.872C397.108 275.845 396.645 276.742 395.957 277.454C395.269 278.165 394.387 278.658 393.421 278.873L384.991 280.773L388.561 282.923C388.946 283.155 389.282 283.461 389.548 283.822C389.815 284.184 390.008 284.595 390.116 285.032C390.223 285.469 390.244 285.922 390.176 286.367C390.109 286.811 389.954 287.238 389.721 287.623C389.252 288.4 388.494 288.96 387.613 289.179C386.732 289.398 385.8 289.259 385.021 288.793L378.021 284.563C377.121 284.025 376.403 283.228 375.961 282.277C375.519 281.326 375.373 280.264 375.542 279.229C375.711 278.194 376.188 277.233 376.91 276.473C377.632 275.712 378.566 275.186 379.591 274.963Z" fill="#F8BAB4" fill-opacity="0.32"/>
<path d="M358.781 323.032L359.451 317.532L356.621 319.632C356.384 319.809 356.115 319.937 355.828 320.009C355.541 320.082 355.243 320.097 354.951 320.055C354.658 320.012 354.377 319.912 354.123 319.76C353.869 319.609 353.648 319.409 353.471 319.172C353.117 318.692 352.966 318.092 353.052 317.502C353.138 316.912 353.454 316.38 353.931 316.022L358.931 312.272C359.452 311.884 360.075 311.657 360.724 311.619C361.372 311.582 362.018 311.736 362.58 312.061C363.142 312.387 363.596 312.871 363.886 313.452C364.176 314.033 364.289 314.687 364.211 315.332L363.531 320.952L365.641 319.212C365.869 319.024 366.133 318.883 366.416 318.796C366.699 318.71 366.996 318.681 367.29 318.709C367.585 318.738 367.871 318.825 368.132 318.964C368.392 319.104 368.623 319.293 368.811 319.522C368.999 319.75 369.14 320.013 369.226 320.296C369.313 320.579 369.342 320.877 369.313 321.171C369.285 321.466 369.198 321.751 369.059 322.012C368.919 322.273 368.73 322.504 368.501 322.692L364.341 326.112C363.809 326.535 363.163 326.792 362.485 326.848C361.807 326.905 361.127 326.759 360.532 326.429C359.937 326.1 359.453 325.601 359.141 324.996C358.83 324.391 358.704 323.708 358.781 323.032Z" fill="#F8BAB4" fill-opacity="0.32"/>
<path d="M684.841 293.192L684.421 293.902C684.102 293.702 683.768 293.529 683.421 293.382L684.841 293.192Z" fill="#353642"/>
</svg>
